%
M48
M72
T01C0.0236
T02C0.0315
T03C0.0320
T04C0.0400
T05C0.0440
T06C0.1050
T07C0.1180
T08C0.1260
%
T01
X5455Y4314
X6439Y3526
X7817Y1755
X8605Y1755
X8408Y2739
X12935Y7070
X16282Y9432
X19234Y6873
X21400Y9038
X24156Y3920
X23171Y2542
X23368Y1558
X24353Y2345
X24549Y1164
X26715Y1755
X27502Y2542
X28683Y2345
X28290Y1361
X31833Y2149
X33801Y2149
X35770Y2149
X36557Y1164
X37542Y2936
X39510Y3723
X37935Y7267
X32738Y9511
X37935Y14550
X34904Y15613
X32738Y15456
X29116Y20416
X27305Y21243
X24943Y23802
X21006Y24196
X20927Y26400
X21242Y28330
X22896Y28802
X24156Y28526
X25731Y29708
X27778Y28960
X30061Y31086
X29274Y32267
X29864Y34235
X29077Y35416
X28093Y37582
X25731Y38960
X31833Y38960
X34589Y38960
X36164Y38960
X34983Y36597
X33644Y34235
X32423Y33645
X35967Y34038
X36754Y34235
X36360Y32857
X39116Y33645
X38329Y36597
X33801Y29708
X35849Y25180
X38329Y19078
X29274Y26164
X22778Y30495
X18644Y22857
X16636Y19550
X15809Y19196
X15101Y19038
X14589Y18841
X14589Y18093
X14353Y17188
X13526Y17897
X12837Y17601
X11951Y17306
X9589Y18684
X8408Y18487
X7620Y18487
X7620Y19274
X8408Y20259
X8605Y17503
X10573Y14747
X10179Y13763
X9983Y11597
X12345Y11597
X13526Y14550
X17660Y15101
X21439Y17306
X25140Y16125
X14116Y20062
X12345Y20456
X11360Y23211
X11754Y26164
X11360Y27345
X10967Y28526
X10967Y29117
X11754Y28723
X14904Y31361
X6636Y23999
X5455Y21637
X2305Y22227
X1715Y26164
X1715Y29904
X6242Y29314
X4274Y16125
X5849Y14550
X4077Y12582
X3290Y10219
T02
X5652Y31282
X6833Y31676
X6439Y34038
X4864Y34038
X2109Y34038
X6833Y38369
X11557Y38763
X11557Y36794
X9589Y32070
X16675Y36400
X21006Y35613
T03
X23368Y35326
X23368Y34326
X15707Y34432
X13707Y34432
X13722Y37188
X15692Y37188
X3990Y31676
X2590Y31676
T04
X1813Y1455
X1813Y3235
X1813Y4408
X1813Y6188
X1813Y7361
X1813Y9141
X2305Y11566
X2305Y12566
X2305Y13566
X2305Y14566
X2305Y15566
X5101Y13700
X5101Y12700
X5101Y11700
X4373Y9141
X4373Y7361
X4373Y6188
X4373Y4408
X4373Y3235
X4373Y1455
X25731Y35310
X25731Y36310
X22794Y37855
X21794Y37855
X20794Y37855
X9801Y36582
X8801Y36582
X7801Y36582
T05
X17825Y34432
X21825Y34432
T06
X19542Y31635
X21838Y29890
X23129Y27267
X22674Y24418
X20618Y22169
X17747Y21448
X14912Y22287
X12948Y24419
X12812Y27365
X14018Y30055
X16380Y31697
X27773Y27365
X28979Y30055
X31341Y31697
X34503Y31635
X36799Y29890
X38090Y27267
X37635Y24418
X35579Y22169
X32708Y21448
X29872Y22287
X27909Y24419
X31341Y17523
X28979Y15882
X27773Y13192
X27909Y10246
X29872Y8114
X32708Y7275
X35579Y7996
X37635Y10244
X38090Y13094
X36799Y15717
X34503Y17462
X23129Y13094
X22674Y10244
X20618Y7996
X17747Y7275
X14912Y8114
X12948Y10246
X12812Y13192
X14018Y15882
X16380Y17523
X19542Y17462
X21838Y15717
T07
X2202Y36519
X3673Y38150
T08
X3683Y35267
X7817Y30298
X6242Y1755
X38920Y1952
X39116Y31873
M30
