G75*
%MOIN*%
%OFA0B0*%
%FSLAX24Y24*%
%IPPOS*%
%LPD*%
%AMOC8*
5,1,8,0,0,1.08239X$1,22.5*
%
%ADD10C,0.0000*%
%ADD11C,0.0080*%
%ADD12C,0.0010*%
%ADD13C,0.0050*%
D10*
X000927Y000574D02*
X000927Y039550D01*
X040297Y039550D01*
X040297Y000574D01*
X000927Y000574D01*
X005612Y001755D02*
X005614Y001805D01*
X005620Y001855D01*
X005630Y001904D01*
X005644Y001952D01*
X005661Y001999D01*
X005682Y002044D01*
X005707Y002088D01*
X005735Y002129D01*
X005767Y002168D01*
X005801Y002205D01*
X005838Y002239D01*
X005878Y002269D01*
X005920Y002296D01*
X005964Y002320D01*
X006010Y002341D01*
X006057Y002357D01*
X006105Y002370D01*
X006155Y002379D01*
X006204Y002384D01*
X006255Y002385D01*
X006305Y002382D01*
X006354Y002375D01*
X006403Y002364D01*
X006451Y002349D01*
X006497Y002331D01*
X006542Y002309D01*
X006585Y002283D01*
X006626Y002254D01*
X006665Y002222D01*
X006701Y002187D01*
X006733Y002149D01*
X006763Y002109D01*
X006790Y002066D01*
X006813Y002022D01*
X006832Y001976D01*
X006848Y001928D01*
X006860Y001879D01*
X006868Y001830D01*
X006872Y001780D01*
X006872Y001730D01*
X006868Y001680D01*
X006860Y001631D01*
X006848Y001582D01*
X006832Y001534D01*
X006813Y001488D01*
X006790Y001444D01*
X006763Y001401D01*
X006733Y001361D01*
X006701Y001323D01*
X006665Y001288D01*
X006626Y001256D01*
X006585Y001227D01*
X006542Y001201D01*
X006497Y001179D01*
X006451Y001161D01*
X006403Y001146D01*
X006354Y001135D01*
X006305Y001128D01*
X006255Y001125D01*
X006204Y001126D01*
X006155Y001131D01*
X006105Y001140D01*
X006057Y001153D01*
X006010Y001169D01*
X005964Y001190D01*
X005920Y001214D01*
X005878Y001241D01*
X005838Y001271D01*
X005801Y001305D01*
X005767Y001342D01*
X005735Y001381D01*
X005707Y001422D01*
X005682Y001466D01*
X005661Y001511D01*
X005644Y001558D01*
X005630Y001606D01*
X005620Y001655D01*
X005614Y001705D01*
X005612Y001755D01*
X007187Y030298D02*
X007189Y030348D01*
X007195Y030398D01*
X007205Y030447D01*
X007219Y030495D01*
X007236Y030542D01*
X007257Y030587D01*
X007282Y030631D01*
X007310Y030672D01*
X007342Y030711D01*
X007376Y030748D01*
X007413Y030782D01*
X007453Y030812D01*
X007495Y030839D01*
X007539Y030863D01*
X007585Y030884D01*
X007632Y030900D01*
X007680Y030913D01*
X007730Y030922D01*
X007779Y030927D01*
X007830Y030928D01*
X007880Y030925D01*
X007929Y030918D01*
X007978Y030907D01*
X008026Y030892D01*
X008072Y030874D01*
X008117Y030852D01*
X008160Y030826D01*
X008201Y030797D01*
X008240Y030765D01*
X008276Y030730D01*
X008308Y030692D01*
X008338Y030652D01*
X008365Y030609D01*
X008388Y030565D01*
X008407Y030519D01*
X008423Y030471D01*
X008435Y030422D01*
X008443Y030373D01*
X008447Y030323D01*
X008447Y030273D01*
X008443Y030223D01*
X008435Y030174D01*
X008423Y030125D01*
X008407Y030077D01*
X008388Y030031D01*
X008365Y029987D01*
X008338Y029944D01*
X008308Y029904D01*
X008276Y029866D01*
X008240Y029831D01*
X008201Y029799D01*
X008160Y029770D01*
X008117Y029744D01*
X008072Y029722D01*
X008026Y029704D01*
X007978Y029689D01*
X007929Y029678D01*
X007880Y029671D01*
X007830Y029668D01*
X007779Y029669D01*
X007730Y029674D01*
X007680Y029683D01*
X007632Y029696D01*
X007585Y029712D01*
X007539Y029733D01*
X007495Y029757D01*
X007453Y029784D01*
X007413Y029814D01*
X007376Y029848D01*
X007342Y029885D01*
X007310Y029924D01*
X007282Y029965D01*
X007257Y030009D01*
X007236Y030054D01*
X007219Y030101D01*
X007205Y030149D01*
X007195Y030198D01*
X007189Y030248D01*
X007187Y030298D01*
X038486Y031873D02*
X038488Y031923D01*
X038494Y031973D01*
X038504Y032022D01*
X038518Y032070D01*
X038535Y032117D01*
X038556Y032162D01*
X038581Y032206D01*
X038609Y032247D01*
X038641Y032286D01*
X038675Y032323D01*
X038712Y032357D01*
X038752Y032387D01*
X038794Y032414D01*
X038838Y032438D01*
X038884Y032459D01*
X038931Y032475D01*
X038979Y032488D01*
X039029Y032497D01*
X039078Y032502D01*
X039129Y032503D01*
X039179Y032500D01*
X039228Y032493D01*
X039277Y032482D01*
X039325Y032467D01*
X039371Y032449D01*
X039416Y032427D01*
X039459Y032401D01*
X039500Y032372D01*
X039539Y032340D01*
X039575Y032305D01*
X039607Y032267D01*
X039637Y032227D01*
X039664Y032184D01*
X039687Y032140D01*
X039706Y032094D01*
X039722Y032046D01*
X039734Y031997D01*
X039742Y031948D01*
X039746Y031898D01*
X039746Y031848D01*
X039742Y031798D01*
X039734Y031749D01*
X039722Y031700D01*
X039706Y031652D01*
X039687Y031606D01*
X039664Y031562D01*
X039637Y031519D01*
X039607Y031479D01*
X039575Y031441D01*
X039539Y031406D01*
X039500Y031374D01*
X039459Y031345D01*
X039416Y031319D01*
X039371Y031297D01*
X039325Y031279D01*
X039277Y031264D01*
X039228Y031253D01*
X039179Y031246D01*
X039129Y031243D01*
X039078Y031244D01*
X039029Y031249D01*
X038979Y031258D01*
X038931Y031271D01*
X038884Y031287D01*
X038838Y031308D01*
X038794Y031332D01*
X038752Y031359D01*
X038712Y031389D01*
X038675Y031423D01*
X038641Y031460D01*
X038609Y031499D01*
X038581Y031540D01*
X038556Y031584D01*
X038535Y031629D01*
X038518Y031676D01*
X038504Y031724D01*
X038494Y031773D01*
X038488Y031823D01*
X038486Y031873D01*
X038290Y001952D02*
X038292Y002002D01*
X038298Y002052D01*
X038308Y002101D01*
X038322Y002149D01*
X038339Y002196D01*
X038360Y002241D01*
X038385Y002285D01*
X038413Y002326D01*
X038445Y002365D01*
X038479Y002402D01*
X038516Y002436D01*
X038556Y002466D01*
X038598Y002493D01*
X038642Y002517D01*
X038688Y002538D01*
X038735Y002554D01*
X038783Y002567D01*
X038833Y002576D01*
X038882Y002581D01*
X038933Y002582D01*
X038983Y002579D01*
X039032Y002572D01*
X039081Y002561D01*
X039129Y002546D01*
X039175Y002528D01*
X039220Y002506D01*
X039263Y002480D01*
X039304Y002451D01*
X039343Y002419D01*
X039379Y002384D01*
X039411Y002346D01*
X039441Y002306D01*
X039468Y002263D01*
X039491Y002219D01*
X039510Y002173D01*
X039526Y002125D01*
X039538Y002076D01*
X039546Y002027D01*
X039550Y001977D01*
X039550Y001927D01*
X039546Y001877D01*
X039538Y001828D01*
X039526Y001779D01*
X039510Y001731D01*
X039491Y001685D01*
X039468Y001641D01*
X039441Y001598D01*
X039411Y001558D01*
X039379Y001520D01*
X039343Y001485D01*
X039304Y001453D01*
X039263Y001424D01*
X039220Y001398D01*
X039175Y001376D01*
X039129Y001358D01*
X039081Y001343D01*
X039032Y001332D01*
X038983Y001325D01*
X038933Y001322D01*
X038882Y001323D01*
X038833Y001328D01*
X038783Y001337D01*
X038735Y001350D01*
X038688Y001366D01*
X038642Y001387D01*
X038598Y001411D01*
X038556Y001438D01*
X038516Y001468D01*
X038479Y001502D01*
X038445Y001539D01*
X038413Y001578D01*
X038385Y001619D01*
X038360Y001663D01*
X038339Y001708D01*
X038322Y001755D01*
X038308Y001803D01*
X038298Y001852D01*
X038292Y001902D01*
X038290Y001952D01*
D11*
X008238Y022739D02*
X005849Y020062D01*
X005416Y020062D01*
X002738Y020062D02*
X001597Y020062D01*
X001596Y020062D02*
X001529Y020064D01*
X001463Y020071D01*
X001396Y020081D01*
X001331Y020095D01*
X001266Y020112D01*
X001202Y020133D01*
X001140Y020158D01*
X001079Y020186D01*
X001020Y020218D01*
X000962Y020253D01*
X000907Y020291D01*
X000854Y020333D01*
X000804Y020377D01*
X000756Y020424D01*
X000711Y020474D01*
X000669Y020526D01*
X000630Y020580D01*
X000594Y020637D01*
X000561Y020695D01*
X000531Y020756D01*
X000506Y020818D01*
X000483Y020881D01*
X000465Y020946D01*
X000450Y021011D01*
X000438Y021077D01*
X000431Y021144D01*
X000427Y021211D01*
X000428Y021278D01*
X000432Y021345D01*
X000439Y021412D01*
X000451Y021478D01*
X000466Y021543D01*
X000485Y021607D01*
X000508Y021671D01*
X000534Y021732D01*
X000564Y021793D01*
X000597Y021851D01*
X000633Y021907D01*
X000673Y021962D01*
X000715Y022014D01*
X000761Y022063D01*
X000809Y022110D01*
X000809Y022109D02*
X000876Y022209D01*
X000940Y022311D01*
X001001Y022414D01*
X001058Y022520D01*
X001111Y022627D01*
X001161Y022737D01*
X001208Y022848D01*
X001251Y022960D01*
X001289Y023073D01*
X001325Y023188D01*
X001356Y023304D01*
X001384Y023421D01*
X001407Y023539D01*
X001427Y023657D01*
X001443Y023776D01*
X001455Y023896D01*
X001463Y024016D01*
X001467Y024136D01*
X001467Y024256D01*
X001463Y024376D01*
X001455Y024496D01*
X001443Y024616D01*
X001427Y024735D01*
X001407Y024853D01*
X001384Y024971D01*
X001356Y025088D01*
X001325Y025204D01*
X001289Y025319D01*
X001251Y025432D01*
X001208Y025544D01*
X001161Y025655D01*
X001111Y025765D01*
X001058Y025872D01*
X001001Y025978D01*
X000940Y026081D01*
X000876Y026183D01*
X000809Y026283D01*
X000809Y026282D02*
X000760Y026329D01*
X000713Y026377D01*
X000669Y026429D01*
X000628Y026483D01*
X000590Y026539D01*
X000556Y026598D01*
X000525Y026658D01*
X000497Y026720D01*
X000474Y026783D01*
X000454Y026848D01*
X000437Y026914D01*
X000425Y026981D01*
X000416Y027048D01*
X000412Y027115D01*
X000411Y027183D01*
X000414Y027251D01*
X000422Y027318D01*
X000433Y027385D01*
X000448Y027451D01*
X000466Y027516D01*
X000489Y027580D01*
X000515Y027643D01*
X000545Y027704D01*
X000578Y027763D01*
X000615Y027820D01*
X000654Y027875D01*
X000697Y027927D01*
X000743Y027977D01*
X000792Y028024D01*
X000843Y028068D01*
X000897Y028109D01*
X000953Y028147D01*
X001012Y028182D01*
X001072Y028213D01*
X001134Y028241D01*
X001197Y028265D01*
X001262Y028285D01*
X001327Y028302D01*
X001394Y028314D01*
X001461Y028323D01*
X001529Y028328D01*
X001596Y028329D01*
X001597Y028330D02*
X002738Y028330D01*
X005416Y028330D02*
X005849Y028330D01*
X008238Y025652D01*
X008238Y022739D01*
X003943Y009451D02*
X002243Y009451D01*
X001893Y008644D02*
X001893Y007851D01*
X002243Y007051D02*
X003943Y007051D01*
X003943Y006498D02*
X002243Y006498D01*
X001893Y005691D02*
X001893Y004898D01*
X002243Y004098D02*
X003943Y004098D01*
X003943Y003545D02*
X002243Y003545D01*
X001893Y002738D02*
X001893Y001945D01*
X002243Y001145D02*
X003943Y001145D01*
X004293Y001945D02*
X004293Y002750D01*
X002393Y002345D02*
X002395Y002397D01*
X002401Y002449D01*
X002411Y002501D01*
X002424Y002551D01*
X002441Y002601D01*
X002462Y002649D01*
X002487Y002695D01*
X002515Y002739D01*
X002546Y002781D01*
X002580Y002821D01*
X002617Y002858D01*
X002657Y002892D01*
X002699Y002923D01*
X002743Y002951D01*
X002789Y002976D01*
X002837Y002997D01*
X002887Y003014D01*
X002937Y003027D01*
X002989Y003037D01*
X003041Y003043D01*
X003093Y003045D01*
X003145Y003043D01*
X003197Y003037D01*
X003249Y003027D01*
X003299Y003014D01*
X003349Y002997D01*
X003397Y002976D01*
X003443Y002951D01*
X003487Y002923D01*
X003529Y002892D01*
X003569Y002858D01*
X003606Y002821D01*
X003640Y002781D01*
X003671Y002739D01*
X003699Y002695D01*
X003724Y002649D01*
X003745Y002601D01*
X003762Y002551D01*
X003775Y002501D01*
X003785Y002449D01*
X003791Y002397D01*
X003793Y002345D01*
X003791Y002293D01*
X003785Y002241D01*
X003775Y002189D01*
X003762Y002139D01*
X003745Y002089D01*
X003724Y002041D01*
X003699Y001995D01*
X003671Y001951D01*
X003640Y001909D01*
X003606Y001869D01*
X003569Y001832D01*
X003529Y001798D01*
X003487Y001767D01*
X003443Y001739D01*
X003397Y001714D01*
X003349Y001693D01*
X003299Y001676D01*
X003249Y001663D01*
X003197Y001653D01*
X003145Y001647D01*
X003093Y001645D01*
X003041Y001647D01*
X002989Y001653D01*
X002937Y001663D01*
X002887Y001676D01*
X002837Y001693D01*
X002789Y001714D01*
X002743Y001739D01*
X002699Y001767D01*
X002657Y001798D01*
X002617Y001832D01*
X002580Y001869D01*
X002546Y001909D01*
X002515Y001951D01*
X002487Y001995D01*
X002462Y002041D01*
X002441Y002089D01*
X002424Y002139D01*
X002411Y002189D01*
X002401Y002241D01*
X002395Y002293D01*
X002393Y002345D01*
X004293Y004898D02*
X004293Y005703D01*
X002393Y005298D02*
X002395Y005350D01*
X002401Y005402D01*
X002411Y005454D01*
X002424Y005504D01*
X002441Y005554D01*
X002462Y005602D01*
X002487Y005648D01*
X002515Y005692D01*
X002546Y005734D01*
X002580Y005774D01*
X002617Y005811D01*
X002657Y005845D01*
X002699Y005876D01*
X002743Y005904D01*
X002789Y005929D01*
X002837Y005950D01*
X002887Y005967D01*
X002937Y005980D01*
X002989Y005990D01*
X003041Y005996D01*
X003093Y005998D01*
X003145Y005996D01*
X003197Y005990D01*
X003249Y005980D01*
X003299Y005967D01*
X003349Y005950D01*
X003397Y005929D01*
X003443Y005904D01*
X003487Y005876D01*
X003529Y005845D01*
X003569Y005811D01*
X003606Y005774D01*
X003640Y005734D01*
X003671Y005692D01*
X003699Y005648D01*
X003724Y005602D01*
X003745Y005554D01*
X003762Y005504D01*
X003775Y005454D01*
X003785Y005402D01*
X003791Y005350D01*
X003793Y005298D01*
X003791Y005246D01*
X003785Y005194D01*
X003775Y005142D01*
X003762Y005092D01*
X003745Y005042D01*
X003724Y004994D01*
X003699Y004948D01*
X003671Y004904D01*
X003640Y004862D01*
X003606Y004822D01*
X003569Y004785D01*
X003529Y004751D01*
X003487Y004720D01*
X003443Y004692D01*
X003397Y004667D01*
X003349Y004646D01*
X003299Y004629D01*
X003249Y004616D01*
X003197Y004606D01*
X003145Y004600D01*
X003093Y004598D01*
X003041Y004600D01*
X002989Y004606D01*
X002937Y004616D01*
X002887Y004629D01*
X002837Y004646D01*
X002789Y004667D01*
X002743Y004692D01*
X002699Y004720D01*
X002657Y004751D01*
X002617Y004785D01*
X002580Y004822D01*
X002546Y004862D01*
X002515Y004904D01*
X002487Y004948D01*
X002462Y004994D01*
X002441Y005042D01*
X002424Y005092D01*
X002411Y005142D01*
X002401Y005194D01*
X002395Y005246D01*
X002393Y005298D01*
X004293Y007851D02*
X004293Y008656D01*
X002393Y008251D02*
X002395Y008303D01*
X002401Y008355D01*
X002411Y008407D01*
X002424Y008457D01*
X002441Y008507D01*
X002462Y008555D01*
X002487Y008601D01*
X002515Y008645D01*
X002546Y008687D01*
X002580Y008727D01*
X002617Y008764D01*
X002657Y008798D01*
X002699Y008829D01*
X002743Y008857D01*
X002789Y008882D01*
X002837Y008903D01*
X002887Y008920D01*
X002937Y008933D01*
X002989Y008943D01*
X003041Y008949D01*
X003093Y008951D01*
X003145Y008949D01*
X003197Y008943D01*
X003249Y008933D01*
X003299Y008920D01*
X003349Y008903D01*
X003397Y008882D01*
X003443Y008857D01*
X003487Y008829D01*
X003529Y008798D01*
X003569Y008764D01*
X003606Y008727D01*
X003640Y008687D01*
X003671Y008645D01*
X003699Y008601D01*
X003724Y008555D01*
X003745Y008507D01*
X003762Y008457D01*
X003775Y008407D01*
X003785Y008355D01*
X003791Y008303D01*
X003793Y008251D01*
X003791Y008199D01*
X003785Y008147D01*
X003775Y008095D01*
X003762Y008045D01*
X003745Y007995D01*
X003724Y007947D01*
X003699Y007901D01*
X003671Y007857D01*
X003640Y007815D01*
X003606Y007775D01*
X003569Y007738D01*
X003529Y007704D01*
X003487Y007673D01*
X003443Y007645D01*
X003397Y007620D01*
X003349Y007599D01*
X003299Y007582D01*
X003249Y007569D01*
X003197Y007559D01*
X003145Y007553D01*
X003093Y007551D01*
X003041Y007553D01*
X002989Y007559D01*
X002937Y007569D01*
X002887Y007582D01*
X002837Y007599D01*
X002789Y007620D01*
X002743Y007645D01*
X002699Y007673D01*
X002657Y007704D01*
X002617Y007738D01*
X002580Y007775D01*
X002546Y007815D01*
X002515Y007857D01*
X002487Y007901D01*
X002462Y007947D01*
X002441Y007995D01*
X002424Y008045D01*
X002411Y008095D01*
X002401Y008147D01*
X002395Y008199D01*
X002393Y008251D01*
D12*
X003672Y026361D02*
X003672Y026437D01*
X003697Y026462D01*
X003722Y026462D01*
X003747Y026437D01*
X003747Y026361D01*
X003672Y026361D02*
X003822Y026361D01*
X003822Y026437D01*
X003797Y026462D01*
X003772Y026462D01*
X003747Y026437D01*
X003747Y026509D02*
X003747Y026609D01*
X003772Y026609D02*
X003672Y026609D01*
X003672Y026706D02*
X003822Y026706D01*
X003822Y026656D02*
X003822Y026756D01*
X003772Y026803D02*
X003822Y026853D01*
X003672Y026853D01*
X003672Y026803D02*
X003672Y026904D01*
X003772Y026609D02*
X003822Y026559D01*
X003772Y026509D01*
X003672Y026509D01*
D13*
X004835Y008651D02*
X004835Y008201D01*
X004985Y008201D02*
X004685Y008201D01*
X004985Y008501D02*
X004835Y008651D01*
X005145Y008576D02*
X005221Y008651D01*
X005371Y008651D01*
X005446Y008576D01*
X005446Y008501D01*
X005371Y008426D01*
X005221Y008426D01*
X005145Y008351D01*
X005145Y008276D01*
X005221Y008201D01*
X005371Y008201D01*
X005446Y008276D01*
X005371Y005502D02*
X005221Y005502D01*
X005145Y005427D01*
X004985Y005427D02*
X004910Y005502D01*
X004760Y005502D01*
X004685Y005427D01*
X004685Y005352D01*
X004985Y005051D01*
X004685Y005051D01*
X005145Y005127D02*
X005221Y005051D01*
X005371Y005051D01*
X005446Y005127D01*
X005371Y005277D02*
X005221Y005277D01*
X005145Y005202D01*
X005145Y005127D01*
X005371Y005277D02*
X005446Y005352D01*
X005446Y005427D01*
X005371Y005502D01*
X005371Y002549D02*
X005221Y002549D01*
X005145Y002474D01*
X004985Y002474D02*
X004910Y002549D01*
X004760Y002549D01*
X004685Y002474D01*
X004685Y002399D01*
X004760Y002324D01*
X004685Y002249D01*
X004685Y002174D01*
X004760Y002099D01*
X004910Y002099D01*
X004985Y002174D01*
X005145Y002174D02*
X005221Y002099D01*
X005371Y002099D01*
X005446Y002174D01*
X005371Y002324D02*
X005221Y002324D01*
X005145Y002249D01*
X005145Y002174D01*
X005371Y002324D02*
X005446Y002399D01*
X005446Y002474D01*
X005371Y002549D01*
X004835Y002324D02*
X004760Y002324D01*
M02*
