G75*
%MOIN*%
%OFA0B0*%
%FSLAX24Y24*%
%IPPOS*%
%LPD*%
%AMOC8*
5,1,8,0,0,1.08239X$1,22.5*
%
%ADD10C,0.0000*%
%ADD11C,0.0118*%
%ADD12C,0.0040*%
%ADD13C,0.0060*%
%ADD14C,0.0030*%
%ADD15C,0.0080*%
%ADD16C,0.0010*%
%ADD17R,0.0660X0.0380*%
%ADD18C,0.0050*%
%ADD19C,0.0120*%
%ADD20C,0.0200*%
%ADD21R,0.4200X0.0300*%
%ADD22R,0.0750X0.0200*%
%ADD23R,0.0300X0.0200*%
%ADD24R,0.0200X0.1000*%
%ADD25R,0.0750X0.0300*%
D10*
X000927Y000574D02*
X000927Y039550D01*
X040297Y039550D01*
X040297Y000574D01*
X000927Y000574D01*
X005612Y001755D02*
X005614Y001805D01*
X005620Y001855D01*
X005630Y001904D01*
X005644Y001952D01*
X005661Y001999D01*
X005682Y002044D01*
X005707Y002088D01*
X005735Y002129D01*
X005767Y002168D01*
X005801Y002205D01*
X005838Y002239D01*
X005878Y002269D01*
X005920Y002296D01*
X005964Y002320D01*
X006010Y002341D01*
X006057Y002357D01*
X006105Y002370D01*
X006155Y002379D01*
X006204Y002384D01*
X006255Y002385D01*
X006305Y002382D01*
X006354Y002375D01*
X006403Y002364D01*
X006451Y002349D01*
X006497Y002331D01*
X006542Y002309D01*
X006585Y002283D01*
X006626Y002254D01*
X006665Y002222D01*
X006701Y002187D01*
X006733Y002149D01*
X006763Y002109D01*
X006790Y002066D01*
X006813Y002022D01*
X006832Y001976D01*
X006848Y001928D01*
X006860Y001879D01*
X006868Y001830D01*
X006872Y001780D01*
X006872Y001730D01*
X006868Y001680D01*
X006860Y001631D01*
X006848Y001582D01*
X006832Y001534D01*
X006813Y001488D01*
X006790Y001444D01*
X006763Y001401D01*
X006733Y001361D01*
X006701Y001323D01*
X006665Y001288D01*
X006626Y001256D01*
X006585Y001227D01*
X006542Y001201D01*
X006497Y001179D01*
X006451Y001161D01*
X006403Y001146D01*
X006354Y001135D01*
X006305Y001128D01*
X006255Y001125D01*
X006204Y001126D01*
X006155Y001131D01*
X006105Y001140D01*
X006057Y001153D01*
X006010Y001169D01*
X005964Y001190D01*
X005920Y001214D01*
X005878Y001241D01*
X005838Y001271D01*
X005801Y001305D01*
X005767Y001342D01*
X005735Y001381D01*
X005707Y001422D01*
X005682Y001466D01*
X005661Y001511D01*
X005644Y001558D01*
X005630Y001606D01*
X005620Y001655D01*
X005614Y001705D01*
X005612Y001755D01*
X007187Y030298D02*
X007189Y030348D01*
X007195Y030398D01*
X007205Y030447D01*
X007219Y030495D01*
X007236Y030542D01*
X007257Y030587D01*
X007282Y030631D01*
X007310Y030672D01*
X007342Y030711D01*
X007376Y030748D01*
X007413Y030782D01*
X007453Y030812D01*
X007495Y030839D01*
X007539Y030863D01*
X007585Y030884D01*
X007632Y030900D01*
X007680Y030913D01*
X007730Y030922D01*
X007779Y030927D01*
X007830Y030928D01*
X007880Y030925D01*
X007929Y030918D01*
X007978Y030907D01*
X008026Y030892D01*
X008072Y030874D01*
X008117Y030852D01*
X008160Y030826D01*
X008201Y030797D01*
X008240Y030765D01*
X008276Y030730D01*
X008308Y030692D01*
X008338Y030652D01*
X008365Y030609D01*
X008388Y030565D01*
X008407Y030519D01*
X008423Y030471D01*
X008435Y030422D01*
X008443Y030373D01*
X008447Y030323D01*
X008447Y030273D01*
X008443Y030223D01*
X008435Y030174D01*
X008423Y030125D01*
X008407Y030077D01*
X008388Y030031D01*
X008365Y029987D01*
X008338Y029944D01*
X008308Y029904D01*
X008276Y029866D01*
X008240Y029831D01*
X008201Y029799D01*
X008160Y029770D01*
X008117Y029744D01*
X008072Y029722D01*
X008026Y029704D01*
X007978Y029689D01*
X007929Y029678D01*
X007880Y029671D01*
X007830Y029668D01*
X007779Y029669D01*
X007730Y029674D01*
X007680Y029683D01*
X007632Y029696D01*
X007585Y029712D01*
X007539Y029733D01*
X007495Y029757D01*
X007453Y029784D01*
X007413Y029814D01*
X007376Y029848D01*
X007342Y029885D01*
X007310Y029924D01*
X007282Y029965D01*
X007257Y030009D01*
X007236Y030054D01*
X007219Y030101D01*
X007205Y030149D01*
X007195Y030198D01*
X007189Y030248D01*
X007187Y030298D01*
X008288Y034625D02*
X008290Y034604D01*
X008295Y034584D01*
X008304Y034565D01*
X008316Y034548D01*
X008331Y034533D01*
X008348Y034521D01*
X008367Y034512D01*
X008387Y034507D01*
X008408Y034505D01*
X008429Y034507D01*
X008449Y034512D01*
X008468Y034521D01*
X008485Y034533D01*
X008500Y034548D01*
X008512Y034565D01*
X008521Y034584D01*
X008526Y034604D01*
X008528Y034625D01*
X038486Y031873D02*
X038488Y031923D01*
X038494Y031973D01*
X038504Y032022D01*
X038518Y032070D01*
X038535Y032117D01*
X038556Y032162D01*
X038581Y032206D01*
X038609Y032247D01*
X038641Y032286D01*
X038675Y032323D01*
X038712Y032357D01*
X038752Y032387D01*
X038794Y032414D01*
X038838Y032438D01*
X038884Y032459D01*
X038931Y032475D01*
X038979Y032488D01*
X039029Y032497D01*
X039078Y032502D01*
X039129Y032503D01*
X039179Y032500D01*
X039228Y032493D01*
X039277Y032482D01*
X039325Y032467D01*
X039371Y032449D01*
X039416Y032427D01*
X039459Y032401D01*
X039500Y032372D01*
X039539Y032340D01*
X039575Y032305D01*
X039607Y032267D01*
X039637Y032227D01*
X039664Y032184D01*
X039687Y032140D01*
X039706Y032094D01*
X039722Y032046D01*
X039734Y031997D01*
X039742Y031948D01*
X039746Y031898D01*
X039746Y031848D01*
X039742Y031798D01*
X039734Y031749D01*
X039722Y031700D01*
X039706Y031652D01*
X039687Y031606D01*
X039664Y031562D01*
X039637Y031519D01*
X039607Y031479D01*
X039575Y031441D01*
X039539Y031406D01*
X039500Y031374D01*
X039459Y031345D01*
X039416Y031319D01*
X039371Y031297D01*
X039325Y031279D01*
X039277Y031264D01*
X039228Y031253D01*
X039179Y031246D01*
X039129Y031243D01*
X039078Y031244D01*
X039029Y031249D01*
X038979Y031258D01*
X038931Y031271D01*
X038884Y031287D01*
X038838Y031308D01*
X038794Y031332D01*
X038752Y031359D01*
X038712Y031389D01*
X038675Y031423D01*
X038641Y031460D01*
X038609Y031499D01*
X038581Y031540D01*
X038556Y031584D01*
X038535Y031629D01*
X038518Y031676D01*
X038504Y031724D01*
X038494Y031773D01*
X038488Y031823D01*
X038486Y031873D01*
X038290Y001952D02*
X038292Y002002D01*
X038298Y002052D01*
X038308Y002101D01*
X038322Y002149D01*
X038339Y002196D01*
X038360Y002241D01*
X038385Y002285D01*
X038413Y002326D01*
X038445Y002365D01*
X038479Y002402D01*
X038516Y002436D01*
X038556Y002466D01*
X038598Y002493D01*
X038642Y002517D01*
X038688Y002538D01*
X038735Y002554D01*
X038783Y002567D01*
X038833Y002576D01*
X038882Y002581D01*
X038933Y002582D01*
X038983Y002579D01*
X039032Y002572D01*
X039081Y002561D01*
X039129Y002546D01*
X039175Y002528D01*
X039220Y002506D01*
X039263Y002480D01*
X039304Y002451D01*
X039343Y002419D01*
X039379Y002384D01*
X039411Y002346D01*
X039441Y002306D01*
X039468Y002263D01*
X039491Y002219D01*
X039510Y002173D01*
X039526Y002125D01*
X039538Y002076D01*
X039546Y002027D01*
X039550Y001977D01*
X039550Y001927D01*
X039546Y001877D01*
X039538Y001828D01*
X039526Y001779D01*
X039510Y001731D01*
X039491Y001685D01*
X039468Y001641D01*
X039441Y001598D01*
X039411Y001558D01*
X039379Y001520D01*
X039343Y001485D01*
X039304Y001453D01*
X039263Y001424D01*
X039220Y001398D01*
X039175Y001376D01*
X039129Y001358D01*
X039081Y001343D01*
X039032Y001332D01*
X038983Y001325D01*
X038933Y001322D01*
X038882Y001323D01*
X038833Y001328D01*
X038783Y001337D01*
X038735Y001350D01*
X038688Y001366D01*
X038642Y001387D01*
X038598Y001411D01*
X038556Y001438D01*
X038516Y001468D01*
X038479Y001502D01*
X038445Y001539D01*
X038413Y001578D01*
X038385Y001619D01*
X038360Y001663D01*
X038339Y001708D01*
X038322Y001755D01*
X038308Y001803D01*
X038298Y001852D01*
X038292Y001902D01*
X038290Y001952D01*
D11*
X025903Y012385D02*
X025905Y012555D01*
X025911Y012724D01*
X025922Y012894D01*
X025936Y013063D01*
X025955Y013231D01*
X025978Y013399D01*
X026005Y013567D01*
X026036Y013734D01*
X026071Y013900D01*
X026110Y014065D01*
X026153Y014229D01*
X026201Y014392D01*
X026252Y014554D01*
X026307Y014714D01*
X026366Y014873D01*
X026429Y015031D01*
X026496Y015187D01*
X026567Y015341D01*
X026641Y015494D01*
X026719Y015644D01*
X026801Y015793D01*
X026887Y015940D01*
X026976Y016084D01*
X027068Y016226D01*
X027164Y016366D01*
X027264Y016504D01*
X027366Y016639D01*
X027472Y016771D01*
X027582Y016901D01*
X027694Y017028D01*
X027810Y017152D01*
X027928Y017274D01*
X028050Y017392D01*
X028174Y017508D01*
X028301Y017620D01*
X028431Y017730D01*
X028563Y017836D01*
X028698Y017938D01*
X028836Y018038D01*
X028976Y018134D01*
X029118Y018226D01*
X029262Y018315D01*
X029409Y018401D01*
X029558Y018483D01*
X029708Y018561D01*
X029861Y018635D01*
X030015Y018706D01*
X030171Y018773D01*
X030329Y018836D01*
X030488Y018895D01*
X030648Y018950D01*
X030810Y019001D01*
X030973Y019049D01*
X031137Y019092D01*
X031302Y019131D01*
X031468Y019166D01*
X031635Y019197D01*
X031803Y019224D01*
X031971Y019247D01*
X032139Y019266D01*
X032308Y019280D01*
X032478Y019291D01*
X032647Y019297D01*
X032817Y019299D01*
X032987Y019297D01*
X033156Y019291D01*
X033326Y019280D01*
X033495Y019266D01*
X033663Y019247D01*
X033831Y019224D01*
X033999Y019197D01*
X034166Y019166D01*
X034332Y019131D01*
X034497Y019092D01*
X034661Y019049D01*
X034824Y019001D01*
X034986Y018950D01*
X035146Y018895D01*
X035305Y018836D01*
X035463Y018773D01*
X035619Y018706D01*
X035773Y018635D01*
X035926Y018561D01*
X036076Y018483D01*
X036225Y018401D01*
X036372Y018315D01*
X036516Y018226D01*
X036658Y018134D01*
X036798Y018038D01*
X036936Y017938D01*
X037071Y017836D01*
X037203Y017730D01*
X037333Y017620D01*
X037460Y017508D01*
X037584Y017392D01*
X037706Y017274D01*
X037824Y017152D01*
X037940Y017028D01*
X038052Y016901D01*
X038162Y016771D01*
X038268Y016639D01*
X038370Y016504D01*
X038470Y016366D01*
X038566Y016226D01*
X038658Y016084D01*
X038747Y015940D01*
X038833Y015793D01*
X038915Y015644D01*
X038993Y015494D01*
X039067Y015341D01*
X039138Y015187D01*
X039205Y015031D01*
X039268Y014873D01*
X039327Y014714D01*
X039382Y014554D01*
X039433Y014392D01*
X039481Y014229D01*
X039524Y014065D01*
X039563Y013900D01*
X039598Y013734D01*
X039629Y013567D01*
X039656Y013399D01*
X039679Y013231D01*
X039698Y013063D01*
X039712Y012894D01*
X039723Y012724D01*
X039729Y012555D01*
X039731Y012385D01*
X039729Y012215D01*
X039723Y012046D01*
X039712Y011876D01*
X039698Y011707D01*
X039679Y011539D01*
X039656Y011371D01*
X039629Y011203D01*
X039598Y011036D01*
X039563Y010870D01*
X039524Y010705D01*
X039481Y010541D01*
X039433Y010378D01*
X039382Y010216D01*
X039327Y010056D01*
X039268Y009897D01*
X039205Y009739D01*
X039138Y009583D01*
X039067Y009429D01*
X038993Y009276D01*
X038915Y009126D01*
X038833Y008977D01*
X038747Y008830D01*
X038658Y008686D01*
X038566Y008544D01*
X038470Y008404D01*
X038370Y008266D01*
X038268Y008131D01*
X038162Y007999D01*
X038052Y007869D01*
X037940Y007742D01*
X037824Y007618D01*
X037706Y007496D01*
X037584Y007378D01*
X037460Y007262D01*
X037333Y007150D01*
X037203Y007040D01*
X037071Y006934D01*
X036936Y006832D01*
X036798Y006732D01*
X036658Y006636D01*
X036516Y006544D01*
X036372Y006455D01*
X036225Y006369D01*
X036076Y006287D01*
X035926Y006209D01*
X035773Y006135D01*
X035619Y006064D01*
X035463Y005997D01*
X035305Y005934D01*
X035146Y005875D01*
X034986Y005820D01*
X034824Y005769D01*
X034661Y005721D01*
X034497Y005678D01*
X034332Y005639D01*
X034166Y005604D01*
X033999Y005573D01*
X033831Y005546D01*
X033663Y005523D01*
X033495Y005504D01*
X033326Y005490D01*
X033156Y005479D01*
X032987Y005473D01*
X032817Y005471D01*
X032647Y005473D01*
X032478Y005479D01*
X032308Y005490D01*
X032139Y005504D01*
X031971Y005523D01*
X031803Y005546D01*
X031635Y005573D01*
X031468Y005604D01*
X031302Y005639D01*
X031137Y005678D01*
X030973Y005721D01*
X030810Y005769D01*
X030648Y005820D01*
X030488Y005875D01*
X030329Y005934D01*
X030171Y005997D01*
X030015Y006064D01*
X029861Y006135D01*
X029708Y006209D01*
X029558Y006287D01*
X029409Y006369D01*
X029262Y006455D01*
X029118Y006544D01*
X028976Y006636D01*
X028836Y006732D01*
X028698Y006832D01*
X028563Y006934D01*
X028431Y007040D01*
X028301Y007150D01*
X028174Y007262D01*
X028050Y007378D01*
X027928Y007496D01*
X027810Y007618D01*
X027694Y007742D01*
X027582Y007869D01*
X027472Y007999D01*
X027366Y008131D01*
X027264Y008266D01*
X027164Y008404D01*
X027068Y008544D01*
X026976Y008686D01*
X026887Y008830D01*
X026801Y008977D01*
X026719Y009126D01*
X026641Y009276D01*
X026567Y009429D01*
X026496Y009583D01*
X026429Y009739D01*
X026366Y009897D01*
X026307Y010056D01*
X026252Y010216D01*
X026201Y010378D01*
X026153Y010541D01*
X026110Y010705D01*
X026071Y010870D01*
X026036Y011036D01*
X026005Y011203D01*
X025978Y011371D01*
X025955Y011539D01*
X025936Y011707D01*
X025922Y011876D01*
X025911Y012046D01*
X025905Y012215D01*
X025903Y012385D01*
X010943Y012385D02*
X010945Y012555D01*
X010951Y012724D01*
X010962Y012894D01*
X010976Y013063D01*
X010995Y013231D01*
X011018Y013399D01*
X011045Y013567D01*
X011076Y013734D01*
X011111Y013900D01*
X011150Y014065D01*
X011193Y014229D01*
X011241Y014392D01*
X011292Y014554D01*
X011347Y014714D01*
X011406Y014873D01*
X011469Y015031D01*
X011536Y015187D01*
X011607Y015341D01*
X011681Y015494D01*
X011759Y015644D01*
X011841Y015793D01*
X011927Y015940D01*
X012016Y016084D01*
X012108Y016226D01*
X012204Y016366D01*
X012304Y016504D01*
X012406Y016639D01*
X012512Y016771D01*
X012622Y016901D01*
X012734Y017028D01*
X012850Y017152D01*
X012968Y017274D01*
X013090Y017392D01*
X013214Y017508D01*
X013341Y017620D01*
X013471Y017730D01*
X013603Y017836D01*
X013738Y017938D01*
X013876Y018038D01*
X014016Y018134D01*
X014158Y018226D01*
X014302Y018315D01*
X014449Y018401D01*
X014598Y018483D01*
X014748Y018561D01*
X014901Y018635D01*
X015055Y018706D01*
X015211Y018773D01*
X015369Y018836D01*
X015528Y018895D01*
X015688Y018950D01*
X015850Y019001D01*
X016013Y019049D01*
X016177Y019092D01*
X016342Y019131D01*
X016508Y019166D01*
X016675Y019197D01*
X016843Y019224D01*
X017011Y019247D01*
X017179Y019266D01*
X017348Y019280D01*
X017518Y019291D01*
X017687Y019297D01*
X017857Y019299D01*
X018027Y019297D01*
X018196Y019291D01*
X018366Y019280D01*
X018535Y019266D01*
X018703Y019247D01*
X018871Y019224D01*
X019039Y019197D01*
X019206Y019166D01*
X019372Y019131D01*
X019537Y019092D01*
X019701Y019049D01*
X019864Y019001D01*
X020026Y018950D01*
X020186Y018895D01*
X020345Y018836D01*
X020503Y018773D01*
X020659Y018706D01*
X020813Y018635D01*
X020966Y018561D01*
X021116Y018483D01*
X021265Y018401D01*
X021412Y018315D01*
X021556Y018226D01*
X021698Y018134D01*
X021838Y018038D01*
X021976Y017938D01*
X022111Y017836D01*
X022243Y017730D01*
X022373Y017620D01*
X022500Y017508D01*
X022624Y017392D01*
X022746Y017274D01*
X022864Y017152D01*
X022980Y017028D01*
X023092Y016901D01*
X023202Y016771D01*
X023308Y016639D01*
X023410Y016504D01*
X023510Y016366D01*
X023606Y016226D01*
X023698Y016084D01*
X023787Y015940D01*
X023873Y015793D01*
X023955Y015644D01*
X024033Y015494D01*
X024107Y015341D01*
X024178Y015187D01*
X024245Y015031D01*
X024308Y014873D01*
X024367Y014714D01*
X024422Y014554D01*
X024473Y014392D01*
X024521Y014229D01*
X024564Y014065D01*
X024603Y013900D01*
X024638Y013734D01*
X024669Y013567D01*
X024696Y013399D01*
X024719Y013231D01*
X024738Y013063D01*
X024752Y012894D01*
X024763Y012724D01*
X024769Y012555D01*
X024771Y012385D01*
X024769Y012215D01*
X024763Y012046D01*
X024752Y011876D01*
X024738Y011707D01*
X024719Y011539D01*
X024696Y011371D01*
X024669Y011203D01*
X024638Y011036D01*
X024603Y010870D01*
X024564Y010705D01*
X024521Y010541D01*
X024473Y010378D01*
X024422Y010216D01*
X024367Y010056D01*
X024308Y009897D01*
X024245Y009739D01*
X024178Y009583D01*
X024107Y009429D01*
X024033Y009276D01*
X023955Y009126D01*
X023873Y008977D01*
X023787Y008830D01*
X023698Y008686D01*
X023606Y008544D01*
X023510Y008404D01*
X023410Y008266D01*
X023308Y008131D01*
X023202Y007999D01*
X023092Y007869D01*
X022980Y007742D01*
X022864Y007618D01*
X022746Y007496D01*
X022624Y007378D01*
X022500Y007262D01*
X022373Y007150D01*
X022243Y007040D01*
X022111Y006934D01*
X021976Y006832D01*
X021838Y006732D01*
X021698Y006636D01*
X021556Y006544D01*
X021412Y006455D01*
X021265Y006369D01*
X021116Y006287D01*
X020966Y006209D01*
X020813Y006135D01*
X020659Y006064D01*
X020503Y005997D01*
X020345Y005934D01*
X020186Y005875D01*
X020026Y005820D01*
X019864Y005769D01*
X019701Y005721D01*
X019537Y005678D01*
X019372Y005639D01*
X019206Y005604D01*
X019039Y005573D01*
X018871Y005546D01*
X018703Y005523D01*
X018535Y005504D01*
X018366Y005490D01*
X018196Y005479D01*
X018027Y005473D01*
X017857Y005471D01*
X017687Y005473D01*
X017518Y005479D01*
X017348Y005490D01*
X017179Y005504D01*
X017011Y005523D01*
X016843Y005546D01*
X016675Y005573D01*
X016508Y005604D01*
X016342Y005639D01*
X016177Y005678D01*
X016013Y005721D01*
X015850Y005769D01*
X015688Y005820D01*
X015528Y005875D01*
X015369Y005934D01*
X015211Y005997D01*
X015055Y006064D01*
X014901Y006135D01*
X014748Y006209D01*
X014598Y006287D01*
X014449Y006369D01*
X014302Y006455D01*
X014158Y006544D01*
X014016Y006636D01*
X013876Y006732D01*
X013738Y006832D01*
X013603Y006934D01*
X013471Y007040D01*
X013341Y007150D01*
X013214Y007262D01*
X013090Y007378D01*
X012968Y007496D01*
X012850Y007618D01*
X012734Y007742D01*
X012622Y007869D01*
X012512Y007999D01*
X012406Y008131D01*
X012304Y008266D01*
X012204Y008404D01*
X012108Y008544D01*
X012016Y008686D01*
X011927Y008830D01*
X011841Y008977D01*
X011759Y009126D01*
X011681Y009276D01*
X011607Y009429D01*
X011536Y009583D01*
X011469Y009739D01*
X011406Y009897D01*
X011347Y010056D01*
X011292Y010216D01*
X011241Y010378D01*
X011193Y010541D01*
X011150Y010705D01*
X011111Y010870D01*
X011076Y011036D01*
X011045Y011203D01*
X011018Y011371D01*
X010995Y011539D01*
X010976Y011707D01*
X010962Y011876D01*
X010951Y012046D01*
X010945Y012215D01*
X010943Y012385D01*
X010943Y026558D02*
X010945Y026728D01*
X010951Y026897D01*
X010962Y027067D01*
X010976Y027236D01*
X010995Y027404D01*
X011018Y027572D01*
X011045Y027740D01*
X011076Y027907D01*
X011111Y028073D01*
X011150Y028238D01*
X011193Y028402D01*
X011241Y028565D01*
X011292Y028727D01*
X011347Y028887D01*
X011406Y029046D01*
X011469Y029204D01*
X011536Y029360D01*
X011607Y029514D01*
X011681Y029667D01*
X011759Y029817D01*
X011841Y029966D01*
X011927Y030113D01*
X012016Y030257D01*
X012108Y030399D01*
X012204Y030539D01*
X012304Y030677D01*
X012406Y030812D01*
X012512Y030944D01*
X012622Y031074D01*
X012734Y031201D01*
X012850Y031325D01*
X012968Y031447D01*
X013090Y031565D01*
X013214Y031681D01*
X013341Y031793D01*
X013471Y031903D01*
X013603Y032009D01*
X013738Y032111D01*
X013876Y032211D01*
X014016Y032307D01*
X014158Y032399D01*
X014302Y032488D01*
X014449Y032574D01*
X014598Y032656D01*
X014748Y032734D01*
X014901Y032808D01*
X015055Y032879D01*
X015211Y032946D01*
X015369Y033009D01*
X015528Y033068D01*
X015688Y033123D01*
X015850Y033174D01*
X016013Y033222D01*
X016177Y033265D01*
X016342Y033304D01*
X016508Y033339D01*
X016675Y033370D01*
X016843Y033397D01*
X017011Y033420D01*
X017179Y033439D01*
X017348Y033453D01*
X017518Y033464D01*
X017687Y033470D01*
X017857Y033472D01*
X018027Y033470D01*
X018196Y033464D01*
X018366Y033453D01*
X018535Y033439D01*
X018703Y033420D01*
X018871Y033397D01*
X019039Y033370D01*
X019206Y033339D01*
X019372Y033304D01*
X019537Y033265D01*
X019701Y033222D01*
X019864Y033174D01*
X020026Y033123D01*
X020186Y033068D01*
X020345Y033009D01*
X020503Y032946D01*
X020659Y032879D01*
X020813Y032808D01*
X020966Y032734D01*
X021116Y032656D01*
X021265Y032574D01*
X021412Y032488D01*
X021556Y032399D01*
X021698Y032307D01*
X021838Y032211D01*
X021976Y032111D01*
X022111Y032009D01*
X022243Y031903D01*
X022373Y031793D01*
X022500Y031681D01*
X022624Y031565D01*
X022746Y031447D01*
X022864Y031325D01*
X022980Y031201D01*
X023092Y031074D01*
X023202Y030944D01*
X023308Y030812D01*
X023410Y030677D01*
X023510Y030539D01*
X023606Y030399D01*
X023698Y030257D01*
X023787Y030113D01*
X023873Y029966D01*
X023955Y029817D01*
X024033Y029667D01*
X024107Y029514D01*
X024178Y029360D01*
X024245Y029204D01*
X024308Y029046D01*
X024367Y028887D01*
X024422Y028727D01*
X024473Y028565D01*
X024521Y028402D01*
X024564Y028238D01*
X024603Y028073D01*
X024638Y027907D01*
X024669Y027740D01*
X024696Y027572D01*
X024719Y027404D01*
X024738Y027236D01*
X024752Y027067D01*
X024763Y026897D01*
X024769Y026728D01*
X024771Y026558D01*
X024769Y026388D01*
X024763Y026219D01*
X024752Y026049D01*
X024738Y025880D01*
X024719Y025712D01*
X024696Y025544D01*
X024669Y025376D01*
X024638Y025209D01*
X024603Y025043D01*
X024564Y024878D01*
X024521Y024714D01*
X024473Y024551D01*
X024422Y024389D01*
X024367Y024229D01*
X024308Y024070D01*
X024245Y023912D01*
X024178Y023756D01*
X024107Y023602D01*
X024033Y023449D01*
X023955Y023299D01*
X023873Y023150D01*
X023787Y023003D01*
X023698Y022859D01*
X023606Y022717D01*
X023510Y022577D01*
X023410Y022439D01*
X023308Y022304D01*
X023202Y022172D01*
X023092Y022042D01*
X022980Y021915D01*
X022864Y021791D01*
X022746Y021669D01*
X022624Y021551D01*
X022500Y021435D01*
X022373Y021323D01*
X022243Y021213D01*
X022111Y021107D01*
X021976Y021005D01*
X021838Y020905D01*
X021698Y020809D01*
X021556Y020717D01*
X021412Y020628D01*
X021265Y020542D01*
X021116Y020460D01*
X020966Y020382D01*
X020813Y020308D01*
X020659Y020237D01*
X020503Y020170D01*
X020345Y020107D01*
X020186Y020048D01*
X020026Y019993D01*
X019864Y019942D01*
X019701Y019894D01*
X019537Y019851D01*
X019372Y019812D01*
X019206Y019777D01*
X019039Y019746D01*
X018871Y019719D01*
X018703Y019696D01*
X018535Y019677D01*
X018366Y019663D01*
X018196Y019652D01*
X018027Y019646D01*
X017857Y019644D01*
X017687Y019646D01*
X017518Y019652D01*
X017348Y019663D01*
X017179Y019677D01*
X017011Y019696D01*
X016843Y019719D01*
X016675Y019746D01*
X016508Y019777D01*
X016342Y019812D01*
X016177Y019851D01*
X016013Y019894D01*
X015850Y019942D01*
X015688Y019993D01*
X015528Y020048D01*
X015369Y020107D01*
X015211Y020170D01*
X015055Y020237D01*
X014901Y020308D01*
X014748Y020382D01*
X014598Y020460D01*
X014449Y020542D01*
X014302Y020628D01*
X014158Y020717D01*
X014016Y020809D01*
X013876Y020905D01*
X013738Y021005D01*
X013603Y021107D01*
X013471Y021213D01*
X013341Y021323D01*
X013214Y021435D01*
X013090Y021551D01*
X012968Y021669D01*
X012850Y021791D01*
X012734Y021915D01*
X012622Y022042D01*
X012512Y022172D01*
X012406Y022304D01*
X012304Y022439D01*
X012204Y022577D01*
X012108Y022717D01*
X012016Y022859D01*
X011927Y023003D01*
X011841Y023150D01*
X011759Y023299D01*
X011681Y023449D01*
X011607Y023602D01*
X011536Y023756D01*
X011469Y023912D01*
X011406Y024070D01*
X011347Y024229D01*
X011292Y024389D01*
X011241Y024551D01*
X011193Y024714D01*
X011150Y024878D01*
X011111Y025043D01*
X011076Y025209D01*
X011045Y025376D01*
X011018Y025544D01*
X010995Y025712D01*
X010976Y025880D01*
X010962Y026049D01*
X010951Y026219D01*
X010945Y026388D01*
X010943Y026558D01*
X025903Y026558D02*
X025905Y026728D01*
X025911Y026897D01*
X025922Y027067D01*
X025936Y027236D01*
X025955Y027404D01*
X025978Y027572D01*
X026005Y027740D01*
X026036Y027907D01*
X026071Y028073D01*
X026110Y028238D01*
X026153Y028402D01*
X026201Y028565D01*
X026252Y028727D01*
X026307Y028887D01*
X026366Y029046D01*
X026429Y029204D01*
X026496Y029360D01*
X026567Y029514D01*
X026641Y029667D01*
X026719Y029817D01*
X026801Y029966D01*
X026887Y030113D01*
X026976Y030257D01*
X027068Y030399D01*
X027164Y030539D01*
X027264Y030677D01*
X027366Y030812D01*
X027472Y030944D01*
X027582Y031074D01*
X027694Y031201D01*
X027810Y031325D01*
X027928Y031447D01*
X028050Y031565D01*
X028174Y031681D01*
X028301Y031793D01*
X028431Y031903D01*
X028563Y032009D01*
X028698Y032111D01*
X028836Y032211D01*
X028976Y032307D01*
X029118Y032399D01*
X029262Y032488D01*
X029409Y032574D01*
X029558Y032656D01*
X029708Y032734D01*
X029861Y032808D01*
X030015Y032879D01*
X030171Y032946D01*
X030329Y033009D01*
X030488Y033068D01*
X030648Y033123D01*
X030810Y033174D01*
X030973Y033222D01*
X031137Y033265D01*
X031302Y033304D01*
X031468Y033339D01*
X031635Y033370D01*
X031803Y033397D01*
X031971Y033420D01*
X032139Y033439D01*
X032308Y033453D01*
X032478Y033464D01*
X032647Y033470D01*
X032817Y033472D01*
X032987Y033470D01*
X033156Y033464D01*
X033326Y033453D01*
X033495Y033439D01*
X033663Y033420D01*
X033831Y033397D01*
X033999Y033370D01*
X034166Y033339D01*
X034332Y033304D01*
X034497Y033265D01*
X034661Y033222D01*
X034824Y033174D01*
X034986Y033123D01*
X035146Y033068D01*
X035305Y033009D01*
X035463Y032946D01*
X035619Y032879D01*
X035773Y032808D01*
X035926Y032734D01*
X036076Y032656D01*
X036225Y032574D01*
X036372Y032488D01*
X036516Y032399D01*
X036658Y032307D01*
X036798Y032211D01*
X036936Y032111D01*
X037071Y032009D01*
X037203Y031903D01*
X037333Y031793D01*
X037460Y031681D01*
X037584Y031565D01*
X037706Y031447D01*
X037824Y031325D01*
X037940Y031201D01*
X038052Y031074D01*
X038162Y030944D01*
X038268Y030812D01*
X038370Y030677D01*
X038470Y030539D01*
X038566Y030399D01*
X038658Y030257D01*
X038747Y030113D01*
X038833Y029966D01*
X038915Y029817D01*
X038993Y029667D01*
X039067Y029514D01*
X039138Y029360D01*
X039205Y029204D01*
X039268Y029046D01*
X039327Y028887D01*
X039382Y028727D01*
X039433Y028565D01*
X039481Y028402D01*
X039524Y028238D01*
X039563Y028073D01*
X039598Y027907D01*
X039629Y027740D01*
X039656Y027572D01*
X039679Y027404D01*
X039698Y027236D01*
X039712Y027067D01*
X039723Y026897D01*
X039729Y026728D01*
X039731Y026558D01*
X039729Y026388D01*
X039723Y026219D01*
X039712Y026049D01*
X039698Y025880D01*
X039679Y025712D01*
X039656Y025544D01*
X039629Y025376D01*
X039598Y025209D01*
X039563Y025043D01*
X039524Y024878D01*
X039481Y024714D01*
X039433Y024551D01*
X039382Y024389D01*
X039327Y024229D01*
X039268Y024070D01*
X039205Y023912D01*
X039138Y023756D01*
X039067Y023602D01*
X038993Y023449D01*
X038915Y023299D01*
X038833Y023150D01*
X038747Y023003D01*
X038658Y022859D01*
X038566Y022717D01*
X038470Y022577D01*
X038370Y022439D01*
X038268Y022304D01*
X038162Y022172D01*
X038052Y022042D01*
X037940Y021915D01*
X037824Y021791D01*
X037706Y021669D01*
X037584Y021551D01*
X037460Y021435D01*
X037333Y021323D01*
X037203Y021213D01*
X037071Y021107D01*
X036936Y021005D01*
X036798Y020905D01*
X036658Y020809D01*
X036516Y020717D01*
X036372Y020628D01*
X036225Y020542D01*
X036076Y020460D01*
X035926Y020382D01*
X035773Y020308D01*
X035619Y020237D01*
X035463Y020170D01*
X035305Y020107D01*
X035146Y020048D01*
X034986Y019993D01*
X034824Y019942D01*
X034661Y019894D01*
X034497Y019851D01*
X034332Y019812D01*
X034166Y019777D01*
X033999Y019746D01*
X033831Y019719D01*
X033663Y019696D01*
X033495Y019677D01*
X033326Y019663D01*
X033156Y019652D01*
X032987Y019646D01*
X032817Y019644D01*
X032647Y019646D01*
X032478Y019652D01*
X032308Y019663D01*
X032139Y019677D01*
X031971Y019696D01*
X031803Y019719D01*
X031635Y019746D01*
X031468Y019777D01*
X031302Y019812D01*
X031137Y019851D01*
X030973Y019894D01*
X030810Y019942D01*
X030648Y019993D01*
X030488Y020048D01*
X030329Y020107D01*
X030171Y020170D01*
X030015Y020237D01*
X029861Y020308D01*
X029708Y020382D01*
X029558Y020460D01*
X029409Y020542D01*
X029262Y020628D01*
X029118Y020717D01*
X028976Y020809D01*
X028836Y020905D01*
X028698Y021005D01*
X028563Y021107D01*
X028431Y021213D01*
X028301Y021323D01*
X028174Y021435D01*
X028050Y021551D01*
X027928Y021669D01*
X027810Y021791D01*
X027694Y021915D01*
X027582Y022042D01*
X027472Y022172D01*
X027366Y022304D01*
X027264Y022439D01*
X027164Y022577D01*
X027068Y022717D01*
X026976Y022859D01*
X026887Y023003D01*
X026801Y023150D01*
X026719Y023299D01*
X026641Y023449D01*
X026567Y023602D01*
X026496Y023756D01*
X026429Y023912D01*
X026366Y024070D01*
X026307Y024229D01*
X026252Y024389D01*
X026201Y024551D01*
X026153Y024714D01*
X026110Y024878D01*
X026071Y025043D01*
X026036Y025209D01*
X026005Y025376D01*
X025978Y025544D01*
X025955Y025712D01*
X025936Y025880D01*
X025922Y026049D01*
X025911Y026219D01*
X025905Y026388D01*
X025903Y026558D01*
D12*
X029337Y027078D02*
X029644Y027078D01*
X029491Y027078D02*
X029491Y027538D01*
X029337Y027385D01*
X029798Y027385D02*
X029951Y027538D01*
X029951Y027078D01*
X029798Y027078D02*
X030104Y027078D01*
X030337Y029078D02*
X030644Y029078D01*
X030491Y029078D02*
X030491Y029538D01*
X030337Y029385D01*
X030798Y029462D02*
X030798Y029155D01*
X031104Y029462D01*
X031104Y029155D01*
X031028Y029078D01*
X030874Y029078D01*
X030798Y029155D01*
X030798Y029462D02*
X030874Y029538D01*
X031028Y029538D01*
X031104Y029462D01*
X024834Y023181D02*
X024834Y023028D01*
X024757Y022951D01*
X024834Y022798D02*
X024373Y022798D01*
X024450Y022951D02*
X024373Y023028D01*
X024373Y023181D01*
X024450Y023258D01*
X024527Y023258D01*
X024603Y023181D01*
X024680Y023258D01*
X024757Y023258D01*
X024834Y023181D01*
X024603Y023181D02*
X024603Y023105D01*
X024834Y022798D02*
X024373Y022491D01*
X024834Y022491D01*
X025227Y021350D02*
X025227Y021043D01*
X024997Y021273D01*
X025457Y021273D01*
X025381Y020890D02*
X025304Y020890D01*
X025227Y020813D01*
X025227Y020736D01*
X025227Y020813D02*
X025150Y020890D01*
X025074Y020890D01*
X024997Y020813D01*
X024997Y020660D01*
X025074Y020583D01*
X025074Y020429D02*
X025227Y020429D01*
X025304Y020353D01*
X025304Y020122D01*
X025457Y020122D02*
X024997Y020122D01*
X024997Y020353D01*
X025074Y020429D01*
X025304Y020276D02*
X025457Y020429D01*
X025381Y020583D02*
X025457Y020660D01*
X025457Y020813D01*
X025381Y020890D01*
X023489Y020813D02*
X023489Y020660D01*
X023412Y020583D01*
X023489Y020429D02*
X023335Y020276D01*
X023335Y020353D02*
X023335Y020122D01*
X023489Y020122D02*
X023029Y020122D01*
X023029Y020353D01*
X023105Y020429D01*
X023259Y020429D01*
X023335Y020353D01*
X023105Y020583D02*
X023029Y020660D01*
X023029Y020813D01*
X023105Y020890D01*
X023182Y020890D01*
X023259Y020813D01*
X023335Y020890D01*
X023412Y020890D01*
X023489Y020813D01*
X023489Y021043D02*
X023182Y021350D01*
X023105Y021350D01*
X023029Y021273D01*
X023029Y021120D01*
X023105Y021043D01*
X023259Y020813D02*
X023259Y020736D01*
X023489Y021043D02*
X023489Y021350D01*
X023489Y018791D02*
X023489Y018484D01*
X023489Y018638D02*
X023029Y018638D01*
X023182Y018484D01*
X023182Y018331D02*
X023259Y018254D01*
X023335Y018331D01*
X023412Y018331D01*
X023489Y018254D01*
X023489Y018101D01*
X023412Y018024D01*
X023489Y017870D02*
X023335Y017717D01*
X023335Y017794D02*
X023335Y017563D01*
X023489Y017563D02*
X023029Y017563D01*
X023029Y017794D01*
X023105Y017870D01*
X023259Y017870D01*
X023335Y017794D01*
X023105Y018024D02*
X023029Y018101D01*
X023029Y018254D01*
X023105Y018331D01*
X023182Y018331D01*
X023259Y018254D02*
X023259Y018177D01*
X024997Y018101D02*
X024997Y018254D01*
X025074Y018331D01*
X025150Y018331D01*
X025227Y018254D01*
X025304Y018331D01*
X025381Y018331D01*
X025457Y018254D01*
X025457Y018101D01*
X025381Y018024D01*
X025457Y017870D02*
X025304Y017717D01*
X025304Y017794D02*
X025304Y017563D01*
X025457Y017563D02*
X024997Y017563D01*
X024997Y017794D01*
X025074Y017870D01*
X025227Y017870D01*
X025304Y017794D01*
X025074Y018024D02*
X024997Y018101D01*
X025227Y018177D02*
X025227Y018254D01*
X025074Y018484D02*
X024997Y018561D01*
X024997Y018714D01*
X025074Y018791D01*
X025150Y018791D01*
X025227Y018714D01*
X025304Y018791D01*
X025381Y018791D01*
X025457Y018714D01*
X025457Y018561D01*
X025381Y018484D01*
X025227Y018638D02*
X025227Y018714D01*
X024997Y015187D02*
X024997Y014880D01*
X024767Y015111D01*
X025227Y015111D01*
X025227Y014727D02*
X024767Y014727D01*
X024767Y014420D02*
X025227Y014727D01*
X025227Y014420D02*
X024767Y014420D01*
X029337Y013212D02*
X029491Y013365D01*
X029491Y012905D01*
X029644Y012905D02*
X029337Y012905D01*
X029798Y012905D02*
X030104Y012905D01*
X029951Y012905D02*
X029951Y013365D01*
X029798Y013212D01*
X030337Y014905D02*
X030644Y014905D01*
X030491Y014905D02*
X030491Y015365D01*
X030337Y015212D01*
X030798Y015288D02*
X030874Y015365D01*
X031028Y015365D01*
X031104Y015288D01*
X030798Y014981D01*
X030874Y014905D01*
X031028Y014905D01*
X031104Y014981D01*
X031104Y015288D01*
X030798Y015288D02*
X030798Y014981D01*
X038153Y017570D02*
X038613Y017876D01*
X038153Y017876D01*
X038229Y018030D02*
X038153Y018107D01*
X038153Y018260D01*
X038229Y018337D01*
X038306Y018337D01*
X038613Y018030D01*
X038613Y018337D01*
X038613Y017570D02*
X038153Y017570D01*
X038350Y021113D02*
X038810Y021420D01*
X038350Y021420D01*
X038503Y021573D02*
X038350Y021727D01*
X038810Y021727D01*
X038810Y021880D02*
X038810Y021573D01*
X038810Y021113D02*
X038350Y021113D01*
X025923Y037114D02*
X025463Y037114D01*
X025463Y037344D01*
X025539Y037421D01*
X025693Y037421D01*
X025770Y037344D01*
X025770Y037114D01*
X025770Y037268D02*
X025923Y037421D01*
X025846Y037574D02*
X025923Y037651D01*
X025923Y037805D01*
X025846Y037881D01*
X025770Y037881D01*
X025693Y037805D01*
X025693Y037728D01*
X025693Y037805D02*
X025616Y037881D01*
X025539Y037881D01*
X025463Y037805D01*
X025463Y037651D01*
X025539Y037574D01*
X025539Y038035D02*
X025616Y038035D01*
X025693Y038112D01*
X025693Y038342D01*
X025846Y038342D02*
X025539Y038342D01*
X025463Y038265D01*
X025463Y038112D01*
X025539Y038035D01*
X025846Y038035D02*
X025923Y038112D01*
X025923Y038265D01*
X025846Y038342D01*
X018027Y036878D02*
X018027Y036724D01*
X017950Y036648D01*
X017643Y036954D01*
X017950Y036954D01*
X018027Y036878D01*
X017950Y036648D02*
X017643Y036648D01*
X017567Y036724D01*
X017567Y036878D01*
X017643Y036954D01*
X017797Y036494D02*
X017797Y036187D01*
X017567Y036417D01*
X018027Y036417D01*
X018027Y036034D02*
X017874Y035880D01*
X017874Y035957D02*
X017874Y035727D01*
X018027Y035727D02*
X017567Y035727D01*
X017567Y035957D01*
X017643Y036034D01*
X017797Y036034D01*
X017874Y035957D01*
X012111Y036100D02*
X011958Y036023D01*
X011804Y035870D01*
X012035Y035870D01*
X012111Y035793D01*
X012111Y035716D01*
X012035Y035639D01*
X011881Y035639D01*
X011804Y035716D01*
X011804Y035870D01*
X011651Y035946D02*
X011574Y035870D01*
X011651Y035793D01*
X011651Y035716D01*
X011574Y035639D01*
X011421Y035639D01*
X011344Y035716D01*
X011191Y035639D02*
X011037Y035793D01*
X011114Y035793D02*
X010884Y035793D01*
X010884Y035639D02*
X010884Y036100D01*
X011114Y036100D01*
X011191Y036023D01*
X011191Y035870D01*
X011114Y035793D01*
X011344Y036023D02*
X011421Y036100D01*
X011574Y036100D01*
X011651Y036023D01*
X011651Y035946D01*
X011574Y035870D02*
X011497Y035870D01*
X011421Y032950D02*
X011574Y032950D01*
X011651Y032873D01*
X011651Y032797D01*
X011574Y032720D01*
X011651Y032643D01*
X011651Y032566D01*
X011574Y032490D01*
X011421Y032490D01*
X011344Y032566D01*
X011191Y032490D02*
X011037Y032643D01*
X011114Y032643D02*
X010884Y032643D01*
X010884Y032490D02*
X010884Y032950D01*
X011114Y032950D01*
X011191Y032873D01*
X011191Y032720D01*
X011114Y032643D01*
X011344Y032873D02*
X011421Y032950D01*
X011497Y032720D02*
X011574Y032720D01*
X011804Y032566D02*
X011804Y032490D01*
X011804Y032566D02*
X012111Y032873D01*
X012111Y032950D01*
X011804Y032950D01*
X015377Y029385D02*
X015530Y029538D01*
X015530Y029078D01*
X015377Y029078D02*
X015683Y029078D01*
X015837Y029155D02*
X016144Y029462D01*
X016144Y029155D01*
X016067Y029078D01*
X015914Y029078D01*
X015837Y029155D01*
X015837Y029462D01*
X015914Y029538D01*
X016067Y029538D01*
X016144Y029462D01*
X014990Y027538D02*
X014990Y027078D01*
X014837Y027078D02*
X015144Y027078D01*
X014837Y027385D02*
X014990Y027538D01*
X014530Y027538D02*
X014530Y027078D01*
X014377Y027078D02*
X014683Y027078D01*
X014377Y027385D02*
X014530Y027538D01*
X008089Y028975D02*
X007782Y028975D01*
X007936Y028975D02*
X007936Y029435D01*
X007782Y029282D01*
X007629Y029358D02*
X007552Y029435D01*
X007399Y029435D01*
X007322Y029358D01*
X007322Y029052D01*
X007399Y028975D01*
X007552Y028975D01*
X007629Y029052D01*
X007169Y028975D02*
X007015Y028975D01*
X007092Y028975D02*
X007092Y029435D01*
X007015Y029435D02*
X007169Y029435D01*
X005986Y023501D02*
X005986Y023041D01*
X006139Y023041D02*
X005832Y023041D01*
X005679Y023041D02*
X005525Y023194D01*
X005602Y023194D02*
X005372Y023194D01*
X005372Y023041D02*
X005372Y023501D01*
X005602Y023501D01*
X005679Y023425D01*
X005679Y023271D01*
X005602Y023194D01*
X005832Y023348D02*
X005986Y023501D01*
X001728Y018952D02*
X001728Y018645D01*
X001728Y018798D02*
X001268Y018798D01*
X001421Y018645D01*
X001345Y018491D02*
X001652Y018491D01*
X001728Y018415D01*
X001728Y018261D01*
X001652Y018184D01*
X001345Y018184D01*
X001268Y018261D01*
X001268Y018415D01*
X001345Y018491D01*
X001575Y018338D02*
X001728Y018491D01*
X014377Y013212D02*
X014530Y013365D01*
X014530Y012905D01*
X014377Y012905D02*
X014683Y012905D01*
X014837Y012905D02*
X015144Y012905D01*
X014990Y012905D02*
X014990Y013365D01*
X014837Y013212D01*
X015377Y014905D02*
X015683Y014905D01*
X015530Y014905D02*
X015530Y015365D01*
X015377Y015212D01*
X015837Y015288D02*
X015914Y015365D01*
X016067Y015365D01*
X016144Y015288D01*
X015837Y014981D01*
X015914Y014905D01*
X016067Y014905D01*
X016144Y014981D01*
X016144Y015288D01*
X015837Y015288D02*
X015837Y014981D01*
X008694Y038867D02*
X008541Y038867D01*
X008464Y038944D01*
X008464Y039020D01*
X008541Y039097D01*
X008694Y039097D01*
X008771Y039020D01*
X008771Y038944D01*
X008694Y038867D01*
X008694Y039097D02*
X008771Y039174D01*
X008771Y039251D01*
X008694Y039327D01*
X008541Y039327D01*
X008464Y039251D01*
X008464Y039174D01*
X008541Y039097D01*
X008311Y039020D02*
X008311Y038944D01*
X008234Y038867D01*
X008081Y038867D01*
X008004Y038944D01*
X007850Y038867D02*
X007697Y039020D01*
X007774Y039020D02*
X007543Y039020D01*
X007543Y038867D02*
X007543Y039327D01*
X007774Y039327D01*
X007850Y039251D01*
X007850Y039097D01*
X007774Y039020D01*
X008004Y039251D02*
X008081Y039327D01*
X008234Y039327D01*
X008311Y039251D01*
X008311Y039174D01*
X008234Y039097D01*
X008311Y039020D01*
X008234Y039097D02*
X008157Y039097D01*
D13*
X006801Y037132D02*
X006851Y035982D01*
X006951Y035882D01*
X010651Y035882D01*
X010751Y035982D01*
X010801Y037132D01*
X010101Y038133D02*
X009864Y038133D01*
X009864Y038605D02*
X010101Y038605D01*
X013357Y034932D02*
X016057Y034932D01*
X016074Y034930D01*
X016091Y034926D01*
X016107Y034919D01*
X016121Y034909D01*
X016134Y034896D01*
X016144Y034882D01*
X016151Y034866D01*
X016155Y034849D01*
X016157Y034832D01*
X016157Y034032D01*
X016155Y034015D01*
X016151Y033998D01*
X016144Y033982D01*
X016134Y033968D01*
X016121Y033955D01*
X016107Y033945D01*
X016091Y033938D01*
X016074Y033934D01*
X016057Y033932D01*
X013357Y033932D01*
X013340Y033934D01*
X013323Y033938D01*
X013307Y033945D01*
X013293Y033955D01*
X013280Y033968D01*
X013270Y033982D01*
X013263Y033998D01*
X013259Y034015D01*
X013257Y034032D01*
X013257Y034832D01*
X013259Y034849D01*
X013263Y034866D01*
X013270Y034882D01*
X013280Y034896D01*
X013293Y034909D01*
X013307Y034919D01*
X013323Y034926D01*
X013340Y034930D01*
X013357Y034932D01*
X014107Y034432D02*
X014587Y034432D01*
X014837Y034432D02*
X015307Y034432D01*
X017267Y037695D02*
X017617Y037695D01*
X017267Y037695D02*
X017267Y038035D01*
X017717Y038255D02*
X017997Y038255D01*
X018447Y038035D02*
X018447Y037855D01*
X018447Y037695D01*
X018097Y037695D01*
X018326Y037985D02*
X018326Y037965D01*
X018330Y037946D01*
X018336Y037927D01*
X018346Y037909D01*
X018358Y037894D01*
X018372Y037880D01*
X018389Y037869D01*
X018407Y037861D01*
X018427Y037857D01*
X018446Y037855D01*
X019025Y034932D02*
X019025Y033932D01*
X020625Y033932D01*
X020625Y034932D01*
X019025Y034932D01*
X019425Y034682D02*
X019825Y034432D01*
X019825Y034682D01*
X019825Y034432D02*
X019225Y034432D01*
X019425Y034182D02*
X019425Y034682D01*
X019825Y034432D02*
X019825Y034182D01*
X019825Y034432D02*
X019425Y034182D01*
X019825Y034432D02*
X020075Y034432D01*
X022718Y034176D02*
X022868Y034176D01*
X022868Y034326D01*
X022868Y034176D02*
X023018Y034176D01*
X022868Y034176D02*
X022868Y034026D01*
X022268Y034826D02*
X022270Y034892D01*
X022276Y034957D01*
X022286Y035022D01*
X022299Y035087D01*
X022317Y035150D01*
X022338Y035213D01*
X022363Y035273D01*
X022392Y035333D01*
X022424Y035390D01*
X022459Y035446D01*
X022498Y035499D01*
X022540Y035550D01*
X022584Y035598D01*
X022632Y035643D01*
X022682Y035686D01*
X022735Y035725D01*
X022790Y035762D01*
X022847Y035795D01*
X022906Y035824D01*
X022966Y035850D01*
X023028Y035872D01*
X023091Y035891D01*
X023155Y035905D01*
X023220Y035916D01*
X023286Y035923D01*
X023352Y035926D01*
X023417Y035925D01*
X023483Y035920D01*
X023548Y035911D01*
X023613Y035898D01*
X023676Y035882D01*
X023739Y035862D01*
X023800Y035837D01*
X023860Y035810D01*
X023918Y035779D01*
X023974Y035744D01*
X024028Y035706D01*
X024079Y035665D01*
X024128Y035621D01*
X024174Y035574D01*
X024218Y035525D01*
X024258Y035473D01*
X024295Y035418D01*
X024329Y035362D01*
X024359Y035303D01*
X024386Y035243D01*
X024409Y035182D01*
X024428Y035119D01*
X024444Y035055D01*
X024456Y034990D01*
X024464Y034925D01*
X024468Y034859D01*
X024468Y034793D01*
X024464Y034727D01*
X024456Y034662D01*
X024444Y034597D01*
X024428Y034533D01*
X024409Y034470D01*
X024386Y034409D01*
X024359Y034349D01*
X024329Y034290D01*
X024295Y034234D01*
X024258Y034179D01*
X024218Y034127D01*
X024174Y034078D01*
X024128Y034031D01*
X024079Y033987D01*
X024028Y033946D01*
X023974Y033908D01*
X023918Y033873D01*
X023860Y033842D01*
X023800Y033815D01*
X023739Y033790D01*
X023676Y033770D01*
X023613Y033754D01*
X023548Y033741D01*
X023483Y033732D01*
X023417Y033727D01*
X023352Y033726D01*
X023286Y033729D01*
X023220Y033736D01*
X023155Y033747D01*
X023091Y033761D01*
X023028Y033780D01*
X022966Y033802D01*
X022906Y033828D01*
X022847Y033857D01*
X022790Y033890D01*
X022735Y033927D01*
X022682Y033966D01*
X022632Y034009D01*
X022584Y034054D01*
X022540Y034102D01*
X022498Y034153D01*
X022459Y034206D01*
X022424Y034262D01*
X022392Y034319D01*
X022363Y034379D01*
X022338Y034439D01*
X022317Y034502D01*
X022299Y034565D01*
X022286Y034630D01*
X022276Y034695D01*
X022270Y034760D01*
X022268Y034826D01*
X025231Y035060D02*
X025481Y034810D01*
X025981Y034810D01*
X026231Y035060D01*
X026231Y035560D01*
X025981Y035810D01*
X026231Y036060D01*
X026231Y036560D01*
X025981Y036810D01*
X025481Y036810D01*
X025231Y036560D01*
X025231Y036060D01*
X025481Y035810D01*
X025981Y035810D01*
X025481Y035810D02*
X025231Y035560D01*
X025231Y035060D01*
X027503Y034939D02*
X027853Y034939D01*
X027503Y034939D02*
X027503Y035279D01*
X027953Y035499D02*
X028233Y035499D01*
X028683Y035279D02*
X028683Y035099D01*
X028683Y034939D01*
X028333Y034939D01*
X028562Y035229D02*
X028562Y035209D01*
X028566Y035190D01*
X028572Y035171D01*
X028582Y035153D01*
X028594Y035138D01*
X028608Y035124D01*
X028625Y035113D01*
X028643Y035105D01*
X028663Y035101D01*
X028682Y035099D01*
X030259Y034939D02*
X030609Y034939D01*
X030259Y034939D02*
X030259Y035279D01*
X030709Y035499D02*
X030989Y035499D01*
X031439Y035279D02*
X031439Y035099D01*
X031439Y034939D01*
X031089Y034939D01*
X031318Y035229D02*
X031318Y035209D01*
X031322Y035190D01*
X031328Y035171D01*
X031338Y035153D01*
X031350Y035138D01*
X031364Y035124D01*
X031381Y035113D01*
X031399Y035105D01*
X031419Y035101D01*
X031438Y035099D01*
X032621Y034939D02*
X032971Y034939D01*
X032621Y034939D02*
X032621Y035279D01*
X033071Y035499D02*
X033351Y035499D01*
X033801Y035279D02*
X033801Y035099D01*
X033801Y034939D01*
X033451Y034939D01*
X033680Y035229D02*
X033680Y035209D01*
X033684Y035190D01*
X033690Y035171D01*
X033700Y035153D01*
X033712Y035138D01*
X033726Y035124D01*
X033743Y035113D01*
X033761Y035105D01*
X033781Y035101D01*
X033800Y035099D01*
X035377Y034939D02*
X035727Y034939D01*
X035377Y034939D02*
X035377Y035279D01*
X035827Y035499D02*
X036107Y035499D01*
X036557Y035279D02*
X036557Y035099D01*
X036557Y034939D01*
X036207Y034939D01*
X036436Y035229D02*
X036436Y035209D01*
X036440Y035190D01*
X036446Y035171D01*
X036456Y035153D01*
X036468Y035138D01*
X036482Y035124D01*
X036499Y035113D01*
X036517Y035105D01*
X036537Y035101D01*
X036556Y035099D01*
X037739Y034939D02*
X038089Y034939D01*
X037739Y034939D02*
X037739Y035279D01*
X038189Y035499D02*
X038469Y035499D01*
X038919Y035279D02*
X038919Y035099D01*
X038919Y034939D01*
X038569Y034939D01*
X038799Y035229D02*
X038799Y035209D01*
X038803Y035190D01*
X038809Y035171D01*
X038819Y035153D01*
X038831Y035138D01*
X038845Y035124D01*
X038862Y035113D01*
X038880Y035105D01*
X038900Y035101D01*
X038919Y035099D01*
X037738Y037302D02*
X037388Y037302D01*
X037738Y037302D02*
X037738Y037462D01*
X037738Y037642D01*
X037617Y037592D02*
X037617Y037572D01*
X037621Y037553D01*
X037627Y037534D01*
X037637Y037516D01*
X037649Y037501D01*
X037663Y037487D01*
X037680Y037476D01*
X037698Y037468D01*
X037718Y037464D01*
X037737Y037462D01*
X037288Y037862D02*
X037008Y037862D01*
X036558Y037642D02*
X036558Y037302D01*
X036908Y037302D01*
X034982Y037302D02*
X034982Y037462D01*
X034982Y037642D01*
X034862Y037592D02*
X034862Y037572D01*
X034866Y037553D01*
X034872Y037534D01*
X034882Y037516D01*
X034894Y037501D01*
X034908Y037487D01*
X034925Y037476D01*
X034943Y037468D01*
X034963Y037464D01*
X034982Y037462D01*
X034982Y037302D02*
X034632Y037302D01*
X034152Y037302D02*
X033802Y037302D01*
X033802Y037642D01*
X034252Y037862D02*
X034532Y037862D01*
X032620Y037642D02*
X032620Y037462D01*
X032620Y037302D01*
X032270Y037302D01*
X032499Y037592D02*
X032499Y037572D01*
X032503Y037553D01*
X032509Y037534D01*
X032519Y037516D01*
X032531Y037501D01*
X032545Y037487D01*
X032562Y037476D01*
X032580Y037468D01*
X032600Y037464D01*
X032619Y037462D01*
X032170Y037862D02*
X031890Y037862D01*
X031790Y037302D02*
X031440Y037302D01*
X031440Y037642D01*
X030258Y037642D02*
X030258Y037462D01*
X030258Y037302D01*
X029908Y037302D01*
X030137Y037592D02*
X030137Y037572D01*
X030141Y037553D01*
X030147Y037534D01*
X030157Y037516D01*
X030169Y037501D01*
X030183Y037487D01*
X030200Y037476D01*
X030218Y037468D01*
X030238Y037464D01*
X030257Y037462D01*
X029808Y037862D02*
X029528Y037862D01*
X029078Y037642D02*
X029078Y037302D01*
X029428Y037302D01*
X010378Y020851D02*
X010378Y020541D01*
X010378Y020851D02*
X010068Y020851D01*
X006951Y021991D02*
X006715Y021991D01*
X006715Y022463D02*
X006951Y022463D01*
X006748Y020851D02*
X006438Y020851D01*
X006438Y020541D01*
X006588Y020501D02*
X006788Y020701D01*
X004904Y020771D02*
X004904Y020534D01*
X004431Y020534D02*
X004431Y020771D01*
X004431Y019196D02*
X004431Y018960D01*
X004904Y018960D02*
X004904Y019196D01*
X004904Y017818D02*
X004904Y017582D01*
X004431Y017582D02*
X004431Y017818D01*
X006438Y017221D02*
X006438Y016911D01*
X006748Y016911D01*
X005351Y014200D02*
X004851Y014200D01*
X004601Y013950D01*
X004601Y013450D01*
X004851Y013200D01*
X005351Y013200D01*
X005601Y013450D01*
X005601Y013950D01*
X005351Y014200D01*
X005351Y013200D02*
X005601Y012950D01*
X005601Y012450D01*
X005351Y012200D01*
X005601Y011950D01*
X005601Y011450D01*
X005351Y011200D01*
X004851Y011200D01*
X004601Y011450D01*
X004601Y011950D01*
X004851Y012200D01*
X004601Y012450D01*
X004601Y012950D01*
X004851Y013200D01*
X004851Y012200D02*
X005351Y012200D01*
X002805Y012316D02*
X002555Y012066D01*
X002805Y011816D01*
X002805Y011316D01*
X002555Y011066D01*
X002055Y011066D01*
X001805Y011316D01*
X001805Y011816D01*
X002055Y012066D01*
X001805Y012316D01*
X001805Y012816D01*
X002055Y013066D01*
X001805Y013316D01*
X001805Y013816D01*
X002055Y014066D01*
X001805Y014316D01*
X001805Y014816D01*
X002055Y015066D01*
X001805Y015316D01*
X001805Y015816D01*
X002055Y016066D01*
X002555Y016066D01*
X002805Y015816D01*
X002805Y015316D01*
X002555Y015066D01*
X002805Y014816D01*
X002805Y014316D01*
X002555Y014066D01*
X002055Y014066D01*
X002555Y014066D02*
X002805Y013816D01*
X002805Y013316D01*
X002555Y013066D01*
X002805Y012816D01*
X002805Y012316D01*
X002555Y012066D02*
X002055Y012066D01*
X002055Y013066D02*
X002555Y013066D01*
X002555Y015066D02*
X002055Y015066D01*
X009196Y010303D02*
X009196Y010143D01*
X009196Y009963D01*
X009316Y010013D02*
X009316Y010033D01*
X009312Y010052D01*
X009306Y010071D01*
X009296Y010089D01*
X009284Y010104D01*
X009270Y010118D01*
X009253Y010129D01*
X009235Y010137D01*
X009215Y010141D01*
X009196Y010143D01*
X009196Y010303D02*
X009546Y010303D01*
X010026Y010303D02*
X010376Y010303D01*
X010376Y009963D01*
X009926Y009743D02*
X009646Y009743D01*
X009983Y007940D02*
X009983Y007780D01*
X009983Y007600D01*
X010104Y007650D02*
X010104Y007670D01*
X010100Y007689D01*
X010094Y007708D01*
X010084Y007726D01*
X010072Y007741D01*
X010058Y007755D01*
X010041Y007766D01*
X010023Y007774D01*
X010003Y007778D01*
X009984Y007780D01*
X009983Y007940D02*
X010333Y007940D01*
X010813Y007940D02*
X011163Y007940D01*
X011163Y007600D01*
X010713Y007380D02*
X010433Y007380D01*
X011558Y006366D02*
X011558Y006206D01*
X011558Y006026D01*
X011678Y006076D02*
X011678Y006096D01*
X011674Y006115D01*
X011668Y006134D01*
X011658Y006152D01*
X011646Y006167D01*
X011632Y006181D01*
X011615Y006192D01*
X011597Y006200D01*
X011577Y006204D01*
X011558Y006206D01*
X011558Y006366D02*
X011908Y006366D01*
X012388Y006366D02*
X012738Y006366D01*
X012738Y006026D01*
X012288Y005806D02*
X012008Y005806D01*
X013133Y005578D02*
X013133Y005418D01*
X013133Y005238D01*
X013253Y005288D02*
X013253Y005308D01*
X013249Y005327D01*
X013243Y005346D01*
X013233Y005364D01*
X013221Y005379D01*
X013207Y005393D01*
X013190Y005404D01*
X013172Y005412D01*
X013152Y005416D01*
X013133Y005418D01*
X013133Y005578D02*
X013483Y005578D01*
X013583Y005018D02*
X013863Y005018D01*
X013963Y005578D02*
X014313Y005578D01*
X014313Y005238D01*
X014904Y004988D02*
X014904Y004828D01*
X014904Y004648D01*
X015025Y004698D02*
X015025Y004718D01*
X015021Y004737D01*
X015015Y004756D01*
X015005Y004774D01*
X014993Y004789D01*
X014979Y004803D01*
X014962Y004814D01*
X014944Y004822D01*
X014924Y004826D01*
X014905Y004828D01*
X014904Y004988D02*
X015254Y004988D01*
X015734Y004988D02*
X016084Y004988D01*
X016084Y004648D01*
X015634Y004428D02*
X015354Y004428D01*
X016676Y004434D02*
X016676Y004254D01*
X016796Y004304D02*
X016796Y004324D01*
X016792Y004343D01*
X016786Y004362D01*
X016776Y004380D01*
X016764Y004395D01*
X016750Y004409D01*
X016733Y004420D01*
X016715Y004428D01*
X016695Y004432D01*
X016676Y004434D01*
X016676Y004594D01*
X017026Y004594D01*
X017506Y004594D02*
X017856Y004594D01*
X017856Y004254D01*
X018251Y004451D02*
X018251Y004631D01*
X018251Y004791D01*
X018601Y004791D01*
X018371Y004501D02*
X018371Y004521D01*
X018367Y004540D01*
X018361Y004559D01*
X018351Y004577D01*
X018339Y004592D01*
X018325Y004606D01*
X018308Y004617D01*
X018290Y004625D01*
X018270Y004629D01*
X018251Y004631D01*
X018701Y004231D02*
X018981Y004231D01*
X019431Y004451D02*
X019431Y004791D01*
X019081Y004791D01*
X019826Y004828D02*
X019826Y004648D01*
X019946Y004698D02*
X019946Y004718D01*
X019942Y004737D01*
X019936Y004756D01*
X019926Y004774D01*
X019914Y004789D01*
X019900Y004803D01*
X019883Y004814D01*
X019865Y004822D01*
X019845Y004826D01*
X019826Y004828D01*
X019826Y004988D01*
X020176Y004988D01*
X020656Y004988D02*
X021006Y004988D01*
X021006Y004648D01*
X020556Y004428D02*
X020276Y004428D01*
X021400Y005041D02*
X021400Y005221D01*
X021400Y005381D01*
X021750Y005381D01*
X021521Y005091D02*
X021521Y005111D01*
X021517Y005130D01*
X021511Y005149D01*
X021501Y005167D01*
X021489Y005182D01*
X021475Y005196D01*
X021458Y005207D01*
X021440Y005215D01*
X021420Y005219D01*
X021401Y005221D01*
X021850Y004821D02*
X022130Y004821D01*
X022580Y005041D02*
X022580Y005381D01*
X022230Y005381D01*
X022975Y005435D02*
X022975Y005615D01*
X022975Y005775D01*
X023325Y005775D01*
X023096Y005485D02*
X023096Y005505D01*
X023092Y005524D01*
X023086Y005543D01*
X023076Y005561D01*
X023064Y005576D01*
X023050Y005590D01*
X023033Y005601D01*
X023015Y005609D01*
X022995Y005613D01*
X022976Y005615D01*
X023425Y005215D02*
X023705Y005215D01*
X024155Y005435D02*
X024155Y005775D01*
X023805Y005775D01*
X025534Y007207D02*
X025534Y007387D01*
X025534Y007547D01*
X025884Y007547D01*
X025655Y007257D02*
X025655Y007277D01*
X025651Y007296D01*
X025645Y007315D01*
X025635Y007333D01*
X025623Y007348D01*
X025609Y007362D01*
X025592Y007373D01*
X025574Y007381D01*
X025554Y007385D01*
X025535Y007387D01*
X025984Y006987D02*
X026264Y006987D01*
X026714Y007207D02*
X026714Y007547D01*
X026364Y007547D01*
X025927Y008978D02*
X025927Y009318D01*
X025577Y009318D01*
X025097Y009318D02*
X024747Y009318D01*
X024747Y009158D01*
X024747Y008978D01*
X024867Y009028D02*
X024867Y009048D01*
X024863Y009067D01*
X024857Y009086D01*
X024847Y009104D01*
X024835Y009119D01*
X024821Y009133D01*
X024804Y009144D01*
X024786Y009152D01*
X024766Y009156D01*
X024747Y009158D01*
X025197Y008758D02*
X025477Y008758D01*
X026322Y005775D02*
X026322Y005615D01*
X026322Y005435D01*
X026442Y005485D02*
X026442Y005505D01*
X026438Y005524D01*
X026432Y005543D01*
X026422Y005561D01*
X026410Y005576D01*
X026396Y005590D01*
X026379Y005601D01*
X026361Y005609D01*
X026341Y005613D01*
X026322Y005615D01*
X026322Y005775D02*
X026672Y005775D01*
X027152Y005775D02*
X027502Y005775D01*
X027502Y005435D01*
X027700Y005435D02*
X027700Y005615D01*
X027700Y005775D01*
X028050Y005775D01*
X027820Y005485D02*
X027820Y005505D01*
X027816Y005524D01*
X027810Y005543D01*
X027800Y005561D01*
X027788Y005576D01*
X027774Y005590D01*
X027757Y005601D01*
X027739Y005609D01*
X027719Y005613D01*
X027700Y005615D01*
X028150Y005215D02*
X028430Y005215D01*
X028880Y005435D02*
X028880Y005775D01*
X028530Y005775D01*
X029274Y004791D02*
X029274Y004631D01*
X029274Y004451D01*
X029395Y004501D02*
X029395Y004521D01*
X029391Y004540D01*
X029385Y004559D01*
X029375Y004577D01*
X029363Y004592D01*
X029349Y004606D01*
X029332Y004617D01*
X029314Y004625D01*
X029294Y004629D01*
X029275Y004631D01*
X029274Y004791D02*
X029624Y004791D01*
X030104Y004791D02*
X030454Y004791D01*
X030454Y004451D01*
X030849Y004451D02*
X030849Y004631D01*
X030849Y004791D01*
X031199Y004791D01*
X030970Y004501D02*
X030970Y004521D01*
X030966Y004540D01*
X030960Y004559D01*
X030950Y004577D01*
X030938Y004592D01*
X030924Y004606D01*
X030907Y004617D01*
X030889Y004625D01*
X030869Y004629D01*
X030850Y004631D01*
X031299Y004231D02*
X031579Y004231D01*
X032029Y004451D02*
X032029Y004791D01*
X031679Y004791D01*
X032621Y004791D02*
X032621Y004631D01*
X032621Y004451D01*
X032741Y004501D02*
X032741Y004521D01*
X032737Y004540D01*
X032731Y004559D01*
X032721Y004577D01*
X032709Y004592D01*
X032695Y004606D01*
X032678Y004617D01*
X032660Y004625D01*
X032640Y004629D01*
X032621Y004631D01*
X032621Y004791D02*
X032971Y004791D01*
X033451Y004791D02*
X033801Y004791D01*
X033801Y004451D01*
X033351Y004231D02*
X033071Y004231D01*
X034589Y004451D02*
X034589Y004631D01*
X034589Y004791D01*
X034939Y004791D01*
X034710Y004501D02*
X034710Y004521D01*
X034706Y004540D01*
X034700Y004559D01*
X034690Y004577D01*
X034678Y004592D01*
X034664Y004606D01*
X034647Y004617D01*
X034629Y004625D01*
X034609Y004629D01*
X034590Y004631D01*
X035039Y004231D02*
X035319Y004231D01*
X035769Y004451D02*
X035769Y004791D01*
X035419Y004791D01*
X036558Y004844D02*
X036558Y005024D01*
X036558Y005184D01*
X036908Y005184D01*
X036678Y004894D02*
X036678Y004914D01*
X036674Y004933D01*
X036668Y004952D01*
X036658Y004970D01*
X036646Y004985D01*
X036632Y004999D01*
X036615Y005010D01*
X036597Y005018D01*
X036577Y005022D01*
X036558Y005024D01*
X037008Y004624D02*
X037288Y004624D01*
X037738Y004844D02*
X037738Y005184D01*
X037388Y005184D01*
X038330Y006222D02*
X038330Y006402D01*
X038330Y006562D01*
X038680Y006562D01*
X038450Y006272D02*
X038450Y006292D01*
X038446Y006311D01*
X038440Y006330D01*
X038430Y006348D01*
X038418Y006363D01*
X038404Y006377D01*
X038387Y006388D01*
X038369Y006396D01*
X038349Y006400D01*
X038330Y006402D01*
X038780Y006002D02*
X039060Y006002D01*
X039510Y006222D02*
X039510Y006562D01*
X039160Y006562D01*
X030004Y004231D02*
X029724Y004231D01*
X027052Y005215D02*
X026772Y005215D01*
X017406Y004034D02*
X017126Y004034D01*
X010297Y015298D02*
X010061Y015298D01*
X010061Y015771D02*
X010297Y015771D01*
X010378Y016911D02*
X010068Y016911D01*
X010378Y016911D02*
X010378Y017221D01*
X002620Y023172D02*
X002384Y023172D01*
X002384Y023645D02*
X002620Y023645D01*
X002620Y023960D02*
X002384Y023960D01*
X002384Y024432D02*
X002620Y024432D01*
X002620Y028684D02*
X002384Y028684D01*
X002384Y029156D02*
X002620Y029156D01*
X004490Y031076D02*
X004490Y031376D01*
X004640Y031226D02*
X004340Y031226D01*
X001690Y031676D02*
X001692Y031756D01*
X001698Y031835D01*
X001708Y031914D01*
X001722Y031993D01*
X001739Y032071D01*
X001761Y032148D01*
X001786Y032223D01*
X001816Y032297D01*
X001848Y032370D01*
X001885Y032441D01*
X001925Y032510D01*
X001968Y032577D01*
X002015Y032642D01*
X002064Y032704D01*
X002117Y032764D01*
X002173Y032821D01*
X002231Y032876D01*
X002292Y032927D01*
X002356Y032975D01*
X002422Y033020D01*
X002490Y033062D01*
X002560Y033100D01*
X002632Y033134D01*
X002705Y033165D01*
X002780Y033193D01*
X002857Y033216D01*
X002934Y033236D01*
X003012Y033252D01*
X003091Y033264D01*
X003170Y033272D01*
X003250Y033276D01*
X003330Y033276D01*
X003410Y033272D01*
X003489Y033264D01*
X003568Y033252D01*
X003646Y033236D01*
X003723Y033216D01*
X003800Y033193D01*
X003875Y033165D01*
X003948Y033134D01*
X004020Y033100D01*
X004090Y033062D01*
X004158Y033020D01*
X004224Y032975D01*
X004288Y032927D01*
X004349Y032876D01*
X004407Y032821D01*
X004463Y032764D01*
X004516Y032704D01*
X004565Y032642D01*
X004612Y032577D01*
X004655Y032510D01*
X004695Y032441D01*
X004732Y032370D01*
X004764Y032297D01*
X004794Y032223D01*
X004819Y032148D01*
X004841Y032071D01*
X004858Y031993D01*
X004872Y031914D01*
X004882Y031835D01*
X004888Y031756D01*
X004890Y031676D01*
X004888Y031596D01*
X004882Y031517D01*
X004872Y031438D01*
X004858Y031359D01*
X004841Y031281D01*
X004819Y031204D01*
X004794Y031129D01*
X004764Y031055D01*
X004732Y030982D01*
X004695Y030911D01*
X004655Y030842D01*
X004612Y030775D01*
X004565Y030710D01*
X004516Y030648D01*
X004463Y030588D01*
X004407Y030531D01*
X004349Y030476D01*
X004288Y030425D01*
X004224Y030377D01*
X004158Y030332D01*
X004090Y030290D01*
X004020Y030252D01*
X003948Y030218D01*
X003875Y030187D01*
X003800Y030159D01*
X003723Y030136D01*
X003646Y030116D01*
X003568Y030100D01*
X003489Y030088D01*
X003410Y030080D01*
X003330Y030076D01*
X003250Y030076D01*
X003170Y030080D01*
X003091Y030088D01*
X003012Y030100D01*
X002934Y030116D01*
X002857Y030136D01*
X002780Y030159D01*
X002705Y030187D01*
X002632Y030218D01*
X002560Y030252D01*
X002490Y030290D01*
X002422Y030332D01*
X002356Y030377D01*
X002292Y030425D01*
X002231Y030476D01*
X002173Y030531D01*
X002117Y030588D01*
X002064Y030648D01*
X002015Y030710D01*
X001968Y030775D01*
X001925Y030842D01*
X001885Y030911D01*
X001848Y030982D01*
X001816Y031055D01*
X001786Y031129D01*
X001761Y031204D01*
X001739Y031281D01*
X001722Y031359D01*
X001708Y031438D01*
X001698Y031517D01*
X001692Y031596D01*
X001690Y031676D01*
X007868Y032665D02*
X008948Y032665D01*
X008948Y034625D02*
X008528Y034625D01*
X008288Y034625D01*
X007868Y034625D01*
D14*
X007436Y034658D02*
X007123Y034972D01*
X007280Y034972D02*
X007280Y034658D01*
X007123Y034658D02*
X007436Y034972D01*
X007436Y034815D02*
X007123Y034815D01*
X005756Y020758D02*
X005443Y020444D01*
X005600Y020444D02*
X005600Y020758D01*
X005443Y020758D02*
X005756Y020444D01*
X005756Y020601D02*
X005443Y020601D01*
D15*
X003290Y020219D02*
X002109Y020219D01*
X002502Y020180D02*
X002504Y020153D01*
X002509Y020127D01*
X002518Y020102D01*
X002531Y020078D01*
X002546Y020056D01*
X002565Y020036D01*
X002585Y020019D01*
X002608Y020005D01*
X002633Y019994D01*
X002659Y019987D01*
X002686Y019983D01*
X002712Y019983D01*
X002739Y019987D01*
X002765Y019994D01*
X002790Y020005D01*
X002813Y020019D01*
X002833Y020036D01*
X002852Y020056D01*
X002867Y020078D01*
X002880Y020102D01*
X002889Y020127D01*
X002894Y020153D01*
X002896Y020180D01*
X003290Y019235D02*
X003290Y018133D01*
X003290Y017149D02*
X002109Y017149D01*
X002109Y018133D02*
X002109Y019235D01*
X004124Y024552D02*
X004124Y028563D01*
X007789Y031792D02*
X007789Y032409D01*
X008283Y032409D02*
X008283Y031792D01*
X008159Y031668D01*
X007912Y031668D01*
X007789Y031792D01*
X008544Y031668D02*
X009038Y032162D01*
X009038Y032285D01*
X008914Y032409D01*
X008667Y032409D01*
X008544Y032285D01*
X008544Y031668D02*
X009038Y031668D01*
X005395Y035117D02*
X004628Y035117D01*
X005395Y035117D02*
X005395Y039450D01*
X001972Y039450D01*
X001972Y037463D01*
X001972Y035613D02*
X001972Y035117D01*
X002738Y035117D01*
X012957Y037188D02*
X012959Y037271D01*
X012965Y037354D01*
X012975Y037437D01*
X012989Y037519D01*
X013006Y037601D01*
X013028Y037681D01*
X013053Y037760D01*
X013082Y037838D01*
X013115Y037915D01*
X013152Y037990D01*
X013191Y038063D01*
X013235Y038134D01*
X013281Y038203D01*
X013331Y038270D01*
X013384Y038334D01*
X013440Y038396D01*
X013499Y038455D01*
X013561Y038511D01*
X013625Y038564D01*
X013692Y038614D01*
X013761Y038660D01*
X013832Y038704D01*
X013905Y038743D01*
X013980Y038780D01*
X014057Y038813D01*
X014135Y038842D01*
X014214Y038867D01*
X014294Y038889D01*
X014376Y038906D01*
X014458Y038920D01*
X014541Y038930D01*
X014624Y038936D01*
X014707Y038938D01*
X014790Y038936D01*
X014873Y038930D01*
X014956Y038920D01*
X015038Y038906D01*
X015120Y038889D01*
X015200Y038867D01*
X015279Y038842D01*
X015357Y038813D01*
X015434Y038780D01*
X015509Y038743D01*
X015582Y038704D01*
X015653Y038660D01*
X015722Y038614D01*
X015789Y038564D01*
X015853Y038511D01*
X015915Y038455D01*
X015974Y038396D01*
X016030Y038334D01*
X016083Y038270D01*
X016133Y038203D01*
X016179Y038134D01*
X016223Y038063D01*
X016262Y037990D01*
X016299Y037915D01*
X016332Y037838D01*
X016361Y037760D01*
X016386Y037681D01*
X016408Y037601D01*
X016425Y037519D01*
X016439Y037437D01*
X016449Y037354D01*
X016455Y037271D01*
X016457Y037188D01*
X016455Y037105D01*
X016449Y037022D01*
X016439Y036939D01*
X016425Y036857D01*
X016408Y036775D01*
X016386Y036695D01*
X016361Y036616D01*
X016332Y036538D01*
X016299Y036461D01*
X016262Y036386D01*
X016223Y036313D01*
X016179Y036242D01*
X016133Y036173D01*
X016083Y036106D01*
X016030Y036042D01*
X015974Y035980D01*
X015915Y035921D01*
X015853Y035865D01*
X015789Y035812D01*
X015722Y035762D01*
X015653Y035716D01*
X015582Y035672D01*
X015509Y035633D01*
X015434Y035596D01*
X015357Y035563D01*
X015279Y035534D01*
X015200Y035509D01*
X015120Y035487D01*
X015038Y035470D01*
X014956Y035456D01*
X014873Y035446D01*
X014790Y035440D01*
X014707Y035438D01*
X014624Y035440D01*
X014541Y035446D01*
X014458Y035456D01*
X014376Y035470D01*
X014294Y035487D01*
X014214Y035509D01*
X014135Y035534D01*
X014057Y035563D01*
X013980Y035596D01*
X013905Y035633D01*
X013832Y035672D01*
X013761Y035716D01*
X013692Y035762D01*
X013625Y035812D01*
X013561Y035865D01*
X013499Y035921D01*
X013440Y035980D01*
X013384Y036042D01*
X013331Y036106D01*
X013281Y036173D01*
X013235Y036242D01*
X013191Y036313D01*
X013152Y036386D01*
X013115Y036461D01*
X013082Y036538D01*
X013053Y036616D01*
X013028Y036695D01*
X013006Y036775D01*
X012989Y036857D01*
X012975Y036939D01*
X012965Y037022D01*
X012959Y037105D01*
X012957Y037188D01*
X020294Y036575D02*
X020294Y039215D01*
X023294Y039215D01*
X023294Y036575D01*
X020294Y036575D01*
X010212Y022745D02*
X010212Y022004D01*
X009965Y022004D02*
X010459Y022004D01*
X009965Y022498D02*
X010212Y022745D01*
X009704Y022745D02*
X009704Y022128D01*
X009580Y022004D01*
X009333Y022004D01*
X009210Y022128D01*
X009210Y022745D01*
D16*
X006132Y022263D02*
X006132Y022213D01*
X006107Y022188D01*
X006107Y022141D02*
X006132Y022116D01*
X006132Y022066D01*
X006107Y022041D01*
X006007Y022041D01*
X005982Y022066D01*
X005982Y022116D01*
X006007Y022141D01*
X005982Y022188D02*
X006057Y022188D01*
X006032Y022238D01*
X006032Y022263D01*
X006057Y022288D01*
X006107Y022288D01*
X006132Y022263D01*
X005982Y022288D02*
X005982Y022188D01*
X004141Y020802D02*
X004141Y020702D01*
X004141Y020752D02*
X003991Y020752D01*
X004041Y020702D01*
X004016Y020654D02*
X003991Y020629D01*
X003991Y020579D01*
X004016Y020554D01*
X004116Y020554D01*
X004141Y020579D01*
X004141Y020629D01*
X004116Y020654D01*
X004141Y019030D02*
X004141Y018930D01*
X004041Y019030D01*
X004016Y019030D01*
X003991Y019005D01*
X003991Y018955D01*
X004016Y018930D01*
X004016Y018883D02*
X003991Y018858D01*
X003991Y018808D01*
X004016Y018783D01*
X004116Y018783D01*
X004141Y018808D01*
X004141Y018858D01*
X004116Y018883D01*
X001753Y023310D02*
X001779Y023335D01*
X001779Y023385D01*
X001753Y023410D01*
X001753Y023458D02*
X001728Y023458D01*
X001703Y023483D01*
X001703Y023533D01*
X001728Y023558D01*
X001753Y023558D01*
X001779Y023533D01*
X001779Y023483D01*
X001753Y023458D01*
X001703Y023483D02*
X001678Y023458D01*
X001653Y023458D01*
X001628Y023483D01*
X001628Y023533D01*
X001653Y023558D01*
X001678Y023558D01*
X001703Y023533D01*
X001653Y023410D02*
X001628Y023385D01*
X001628Y023335D01*
X001653Y023310D01*
X001753Y023310D01*
X001776Y024009D02*
X001801Y024034D01*
X001801Y024084D01*
X001776Y024109D01*
X001726Y024157D02*
X001726Y024257D01*
X001651Y024232D02*
X001726Y024157D01*
X001676Y024109D02*
X001651Y024084D01*
X001651Y024034D01*
X001676Y024009D01*
X001776Y024009D01*
X001801Y024232D02*
X001651Y024232D01*
X001653Y028822D02*
X001628Y028847D01*
X001628Y028897D01*
X001653Y028922D01*
X001653Y028969D02*
X001628Y028994D01*
X001628Y029044D01*
X001653Y029069D01*
X001678Y029069D01*
X001703Y029044D01*
X001728Y029069D01*
X001753Y029069D01*
X001779Y029044D01*
X001779Y028994D01*
X001753Y028969D01*
X001753Y028922D02*
X001779Y028897D01*
X001779Y028847D01*
X001753Y028822D01*
X001653Y028822D01*
X001703Y029019D02*
X001703Y029044D01*
X001598Y038576D02*
X001498Y038576D01*
X001598Y038676D01*
X001598Y038701D01*
X001573Y038726D01*
X001523Y038726D01*
X001498Y038701D01*
X001450Y038726D02*
X001400Y038726D01*
X001425Y038726D02*
X001425Y038601D01*
X001400Y038576D01*
X001375Y038576D01*
X001350Y038601D01*
X009649Y039095D02*
X009674Y039070D01*
X009724Y039070D01*
X009749Y039095D01*
X009796Y039070D02*
X009896Y039070D01*
X009846Y039070D02*
X009846Y039220D01*
X009796Y039170D01*
X009749Y039195D02*
X009724Y039220D01*
X009674Y039220D01*
X009649Y039195D01*
X009649Y039095D01*
X009943Y039095D02*
X010043Y039195D01*
X010043Y039095D01*
X010018Y039070D01*
X009968Y039070D01*
X009943Y039095D01*
X009943Y039195D01*
X009968Y039220D01*
X010018Y039220D01*
X010043Y039195D01*
X015898Y038986D02*
X015898Y038836D01*
X015998Y038836D01*
X016046Y038836D02*
X016146Y038836D01*
X016096Y038836D02*
X016096Y038986D01*
X016046Y038936D01*
X010132Y016014D02*
X010132Y015989D01*
X010032Y015889D01*
X010032Y015864D01*
X009984Y015889D02*
X009959Y015864D01*
X009909Y015864D01*
X009884Y015889D01*
X009884Y015989D01*
X009909Y016014D01*
X009959Y016014D01*
X009984Y015989D01*
X010032Y016014D02*
X010132Y016014D01*
D17*
X003828Y025558D03*
X003828Y026558D03*
X003828Y027558D03*
D18*
X002642Y033251D02*
X002342Y033251D01*
X002492Y033251D02*
X002492Y033701D01*
X002342Y033551D01*
X002181Y033251D02*
X001881Y033251D01*
X002031Y033251D02*
X002031Y033701D01*
X001881Y033551D01*
X001721Y033626D02*
X001646Y033701D01*
X001496Y033701D01*
X001421Y033626D01*
X001421Y033326D01*
X001496Y033251D01*
X001646Y033251D01*
X001721Y033326D01*
X005982Y036272D02*
X005982Y036422D01*
X006057Y036497D01*
X006357Y036497D01*
X006432Y036422D01*
X006432Y036272D01*
X006357Y036197D01*
X006057Y036197D01*
X005982Y036272D01*
X006282Y036347D02*
X006432Y036497D01*
X006432Y036658D02*
X006132Y036958D01*
X006057Y036958D01*
X005982Y036883D01*
X005982Y036733D01*
X006057Y036658D01*
X006432Y036658D02*
X006432Y036958D01*
X013382Y033711D02*
X013382Y033410D01*
X013457Y033335D01*
X013607Y033335D01*
X013682Y033410D01*
X013842Y033335D02*
X014143Y033335D01*
X013992Y033335D02*
X013992Y033786D01*
X013842Y033636D01*
X013682Y033711D02*
X013607Y033786D01*
X013457Y033786D01*
X013382Y033711D01*
X014303Y033711D02*
X014378Y033786D01*
X014528Y033786D01*
X014603Y033711D01*
X014603Y033636D01*
X014303Y033335D01*
X014603Y033335D01*
X019729Y033307D02*
X019954Y033307D01*
X020030Y033382D01*
X020030Y033682D01*
X019954Y033757D01*
X019729Y033757D01*
X019729Y033307D01*
X020190Y033307D02*
X020490Y033307D01*
X020340Y033307D02*
X020340Y033757D01*
X020190Y033607D01*
X021301Y035129D02*
X021226Y035204D01*
X021226Y035504D01*
X021301Y035579D01*
X021451Y035579D01*
X021526Y035504D01*
X021686Y035504D02*
X021686Y035429D01*
X021761Y035354D01*
X021986Y035354D01*
X021986Y035204D02*
X021986Y035504D01*
X021911Y035579D01*
X021761Y035579D01*
X021686Y035504D01*
X021686Y035204D02*
X021761Y035129D01*
X021911Y035129D01*
X021986Y035204D01*
X021526Y035204D02*
X021451Y035129D01*
X021301Y035129D01*
X004281Y012416D02*
X004356Y012341D01*
X004356Y012191D01*
X004281Y012115D01*
X004130Y012266D02*
X004130Y012341D01*
X004206Y012416D01*
X004281Y012416D01*
X004130Y012341D02*
X004055Y012416D01*
X003980Y012416D01*
X003905Y012341D01*
X003905Y012191D01*
X003980Y012115D01*
X003980Y011955D02*
X004130Y011955D01*
X004206Y011880D01*
X004206Y011655D01*
X004356Y011655D02*
X003905Y011655D01*
X003905Y011880D01*
X003980Y011955D01*
X003905Y011495D02*
X003905Y011345D01*
X003905Y011420D02*
X004281Y011420D01*
X004356Y011345D01*
X004356Y011270D01*
X004281Y011195D01*
D19*
X014587Y034182D02*
X014587Y034432D01*
X014587Y034682D01*
X014837Y034682D02*
X014837Y034432D01*
X014837Y034182D01*
D20*
X007031Y036122D03*
D21*
X008801Y037432D03*
D22*
X007076Y037182D03*
X010526Y037182D03*
D23*
X009301Y037182D03*
X008301Y037182D03*
D24*
X020375Y034432D03*
D25*
X021000Y034432D03*
X018650Y034432D03*
M02*
