G75*
%MOIN*%
%OFA0B0*%
%FSLAX24Y24*%
%IPPOS*%
%LPD*%
%AMOC8*
5,1,8,0,0,1.08239X$1,22.5*
%
%ADD10C,0.0000*%
%ADD11C,0.0050*%
D10*
X000927Y000574D02*
X000927Y039550D01*
X040297Y039550D01*
X040297Y000574D01*
X000927Y000574D01*
X005612Y001755D02*
X005614Y001805D01*
X005620Y001855D01*
X005630Y001904D01*
X005644Y001952D01*
X005661Y001999D01*
X005682Y002044D01*
X005707Y002088D01*
X005735Y002129D01*
X005767Y002168D01*
X005801Y002205D01*
X005838Y002239D01*
X005878Y002269D01*
X005920Y002296D01*
X005964Y002320D01*
X006010Y002341D01*
X006057Y002357D01*
X006105Y002370D01*
X006155Y002379D01*
X006204Y002384D01*
X006255Y002385D01*
X006305Y002382D01*
X006354Y002375D01*
X006403Y002364D01*
X006451Y002349D01*
X006497Y002331D01*
X006542Y002309D01*
X006585Y002283D01*
X006626Y002254D01*
X006665Y002222D01*
X006701Y002187D01*
X006733Y002149D01*
X006763Y002109D01*
X006790Y002066D01*
X006813Y002022D01*
X006832Y001976D01*
X006848Y001928D01*
X006860Y001879D01*
X006868Y001830D01*
X006872Y001780D01*
X006872Y001730D01*
X006868Y001680D01*
X006860Y001631D01*
X006848Y001582D01*
X006832Y001534D01*
X006813Y001488D01*
X006790Y001444D01*
X006763Y001401D01*
X006733Y001361D01*
X006701Y001323D01*
X006665Y001288D01*
X006626Y001256D01*
X006585Y001227D01*
X006542Y001201D01*
X006497Y001179D01*
X006451Y001161D01*
X006403Y001146D01*
X006354Y001135D01*
X006305Y001128D01*
X006255Y001125D01*
X006204Y001126D01*
X006155Y001131D01*
X006105Y001140D01*
X006057Y001153D01*
X006010Y001169D01*
X005964Y001190D01*
X005920Y001214D01*
X005878Y001241D01*
X005838Y001271D01*
X005801Y001305D01*
X005767Y001342D01*
X005735Y001381D01*
X005707Y001422D01*
X005682Y001466D01*
X005661Y001511D01*
X005644Y001558D01*
X005630Y001606D01*
X005620Y001655D01*
X005614Y001705D01*
X005612Y001755D01*
X007187Y030298D02*
X007189Y030348D01*
X007195Y030398D01*
X007205Y030447D01*
X007219Y030495D01*
X007236Y030542D01*
X007257Y030587D01*
X007282Y030631D01*
X007310Y030672D01*
X007342Y030711D01*
X007376Y030748D01*
X007413Y030782D01*
X007453Y030812D01*
X007495Y030839D01*
X007539Y030863D01*
X007585Y030884D01*
X007632Y030900D01*
X007680Y030913D01*
X007730Y030922D01*
X007779Y030927D01*
X007830Y030928D01*
X007880Y030925D01*
X007929Y030918D01*
X007978Y030907D01*
X008026Y030892D01*
X008072Y030874D01*
X008117Y030852D01*
X008160Y030826D01*
X008201Y030797D01*
X008240Y030765D01*
X008276Y030730D01*
X008308Y030692D01*
X008338Y030652D01*
X008365Y030609D01*
X008388Y030565D01*
X008407Y030519D01*
X008423Y030471D01*
X008435Y030422D01*
X008443Y030373D01*
X008447Y030323D01*
X008447Y030273D01*
X008443Y030223D01*
X008435Y030174D01*
X008423Y030125D01*
X008407Y030077D01*
X008388Y030031D01*
X008365Y029987D01*
X008338Y029944D01*
X008308Y029904D01*
X008276Y029866D01*
X008240Y029831D01*
X008201Y029799D01*
X008160Y029770D01*
X008117Y029744D01*
X008072Y029722D01*
X008026Y029704D01*
X007978Y029689D01*
X007929Y029678D01*
X007880Y029671D01*
X007830Y029668D01*
X007779Y029669D01*
X007730Y029674D01*
X007680Y029683D01*
X007632Y029696D01*
X007585Y029712D01*
X007539Y029733D01*
X007495Y029757D01*
X007453Y029784D01*
X007413Y029814D01*
X007376Y029848D01*
X007342Y029885D01*
X007310Y029924D01*
X007282Y029965D01*
X007257Y030009D01*
X007236Y030054D01*
X007219Y030101D01*
X007205Y030149D01*
X007195Y030198D01*
X007189Y030248D01*
X007187Y030298D01*
X038486Y031873D02*
X038488Y031923D01*
X038494Y031973D01*
X038504Y032022D01*
X038518Y032070D01*
X038535Y032117D01*
X038556Y032162D01*
X038581Y032206D01*
X038609Y032247D01*
X038641Y032286D01*
X038675Y032323D01*
X038712Y032357D01*
X038752Y032387D01*
X038794Y032414D01*
X038838Y032438D01*
X038884Y032459D01*
X038931Y032475D01*
X038979Y032488D01*
X039029Y032497D01*
X039078Y032502D01*
X039129Y032503D01*
X039179Y032500D01*
X039228Y032493D01*
X039277Y032482D01*
X039325Y032467D01*
X039371Y032449D01*
X039416Y032427D01*
X039459Y032401D01*
X039500Y032372D01*
X039539Y032340D01*
X039575Y032305D01*
X039607Y032267D01*
X039637Y032227D01*
X039664Y032184D01*
X039687Y032140D01*
X039706Y032094D01*
X039722Y032046D01*
X039734Y031997D01*
X039742Y031948D01*
X039746Y031898D01*
X039746Y031848D01*
X039742Y031798D01*
X039734Y031749D01*
X039722Y031700D01*
X039706Y031652D01*
X039687Y031606D01*
X039664Y031562D01*
X039637Y031519D01*
X039607Y031479D01*
X039575Y031441D01*
X039539Y031406D01*
X039500Y031374D01*
X039459Y031345D01*
X039416Y031319D01*
X039371Y031297D01*
X039325Y031279D01*
X039277Y031264D01*
X039228Y031253D01*
X039179Y031246D01*
X039129Y031243D01*
X039078Y031244D01*
X039029Y031249D01*
X038979Y031258D01*
X038931Y031271D01*
X038884Y031287D01*
X038838Y031308D01*
X038794Y031332D01*
X038752Y031359D01*
X038712Y031389D01*
X038675Y031423D01*
X038641Y031460D01*
X038609Y031499D01*
X038581Y031540D01*
X038556Y031584D01*
X038535Y031629D01*
X038518Y031676D01*
X038504Y031724D01*
X038494Y031773D01*
X038488Y031823D01*
X038486Y031873D01*
X038290Y001952D02*
X038292Y002002D01*
X038298Y002052D01*
X038308Y002101D01*
X038322Y002149D01*
X038339Y002196D01*
X038360Y002241D01*
X038385Y002285D01*
X038413Y002326D01*
X038445Y002365D01*
X038479Y002402D01*
X038516Y002436D01*
X038556Y002466D01*
X038598Y002493D01*
X038642Y002517D01*
X038688Y002538D01*
X038735Y002554D01*
X038783Y002567D01*
X038833Y002576D01*
X038882Y002581D01*
X038933Y002582D01*
X038983Y002579D01*
X039032Y002572D01*
X039081Y002561D01*
X039129Y002546D01*
X039175Y002528D01*
X039220Y002506D01*
X039263Y002480D01*
X039304Y002451D01*
X039343Y002419D01*
X039379Y002384D01*
X039411Y002346D01*
X039441Y002306D01*
X039468Y002263D01*
X039491Y002219D01*
X039510Y002173D01*
X039526Y002125D01*
X039538Y002076D01*
X039546Y002027D01*
X039550Y001977D01*
X039550Y001927D01*
X039546Y001877D01*
X039538Y001828D01*
X039526Y001779D01*
X039510Y001731D01*
X039491Y001685D01*
X039468Y001641D01*
X039441Y001598D01*
X039411Y001558D01*
X039379Y001520D01*
X039343Y001485D01*
X039304Y001453D01*
X039263Y001424D01*
X039220Y001398D01*
X039175Y001376D01*
X039129Y001358D01*
X039081Y001343D01*
X039032Y001332D01*
X038983Y001325D01*
X038933Y001322D01*
X038882Y001323D01*
X038833Y001328D01*
X038783Y001337D01*
X038735Y001350D01*
X038688Y001366D01*
X038642Y001387D01*
X038598Y001411D01*
X038556Y001438D01*
X038516Y001468D01*
X038479Y001502D01*
X038445Y001539D01*
X038413Y001578D01*
X038385Y001619D01*
X038360Y001663D01*
X038339Y001708D01*
X038322Y001755D01*
X038308Y001803D01*
X038298Y001852D01*
X038292Y001902D01*
X038290Y001952D01*
D11*
X030652Y012385D02*
X030654Y012478D01*
X030660Y012570D01*
X030670Y012662D01*
X030684Y012753D01*
X030701Y012844D01*
X030723Y012934D01*
X030748Y013023D01*
X030777Y013111D01*
X030810Y013197D01*
X030847Y013282D01*
X030887Y013366D01*
X030931Y013447D01*
X030978Y013527D01*
X031028Y013605D01*
X031082Y013680D01*
X031139Y013753D01*
X031199Y013823D01*
X031262Y013891D01*
X031328Y013956D01*
X031396Y014018D01*
X031467Y014078D01*
X031541Y014134D01*
X031617Y014187D01*
X031695Y014236D01*
X031775Y014283D01*
X031857Y014325D01*
X031941Y014365D01*
X032026Y014400D01*
X032113Y014432D01*
X032201Y014461D01*
X032290Y014485D01*
X032380Y014506D01*
X032471Y014522D01*
X032563Y014535D01*
X032655Y014544D01*
X032748Y014549D01*
X032840Y014550D01*
X032933Y014547D01*
X033025Y014540D01*
X033117Y014529D01*
X033208Y014514D01*
X033299Y014496D01*
X033389Y014473D01*
X033477Y014447D01*
X033565Y014417D01*
X033651Y014383D01*
X033735Y014346D01*
X033818Y014304D01*
X033899Y014260D01*
X033979Y014212D01*
X034056Y014161D01*
X034130Y014106D01*
X034203Y014048D01*
X034273Y013988D01*
X034340Y013924D01*
X034404Y013858D01*
X034466Y013788D01*
X034524Y013717D01*
X034579Y013643D01*
X034631Y013566D01*
X034680Y013487D01*
X034726Y013407D01*
X034768Y013324D01*
X034806Y013240D01*
X034841Y013154D01*
X034872Y013067D01*
X034899Y012979D01*
X034922Y012889D01*
X034942Y012799D01*
X034958Y012708D01*
X034970Y012616D01*
X034978Y012524D01*
X034982Y012431D01*
X034982Y012339D01*
X034978Y012246D01*
X034970Y012154D01*
X034958Y012062D01*
X034942Y011971D01*
X034922Y011881D01*
X034899Y011791D01*
X034872Y011703D01*
X034841Y011616D01*
X034806Y011530D01*
X034768Y011446D01*
X034726Y011363D01*
X034680Y011283D01*
X034631Y011204D01*
X034579Y011127D01*
X034524Y011053D01*
X034466Y010982D01*
X034404Y010912D01*
X034340Y010846D01*
X034273Y010782D01*
X034203Y010722D01*
X034130Y010664D01*
X034056Y010609D01*
X033979Y010558D01*
X033900Y010510D01*
X033818Y010466D01*
X033735Y010424D01*
X033651Y010387D01*
X033565Y010353D01*
X033477Y010323D01*
X033389Y010297D01*
X033299Y010274D01*
X033208Y010256D01*
X033117Y010241D01*
X033025Y010230D01*
X032933Y010223D01*
X032840Y010220D01*
X032748Y010221D01*
X032655Y010226D01*
X032563Y010235D01*
X032471Y010248D01*
X032380Y010264D01*
X032290Y010285D01*
X032201Y010309D01*
X032113Y010338D01*
X032026Y010370D01*
X031941Y010405D01*
X031857Y010445D01*
X031775Y010487D01*
X031695Y010534D01*
X031617Y010583D01*
X031541Y010636D01*
X031467Y010692D01*
X031396Y010752D01*
X031328Y010814D01*
X031262Y010879D01*
X031199Y010947D01*
X031139Y011017D01*
X031082Y011090D01*
X031028Y011165D01*
X030978Y011243D01*
X030931Y011323D01*
X030887Y011404D01*
X030847Y011488D01*
X030810Y011573D01*
X030777Y011659D01*
X030748Y011747D01*
X030723Y011836D01*
X030701Y011926D01*
X030684Y012017D01*
X030670Y012108D01*
X030660Y012200D01*
X030654Y012292D01*
X030652Y012385D01*
X015692Y012385D02*
X015694Y012478D01*
X015700Y012570D01*
X015710Y012662D01*
X015724Y012753D01*
X015741Y012844D01*
X015763Y012934D01*
X015788Y013023D01*
X015817Y013111D01*
X015850Y013197D01*
X015887Y013282D01*
X015927Y013366D01*
X015971Y013447D01*
X016018Y013527D01*
X016068Y013605D01*
X016122Y013680D01*
X016179Y013753D01*
X016239Y013823D01*
X016302Y013891D01*
X016368Y013956D01*
X016436Y014018D01*
X016507Y014078D01*
X016581Y014134D01*
X016657Y014187D01*
X016735Y014236D01*
X016815Y014283D01*
X016897Y014325D01*
X016981Y014365D01*
X017066Y014400D01*
X017153Y014432D01*
X017241Y014461D01*
X017330Y014485D01*
X017420Y014506D01*
X017511Y014522D01*
X017603Y014535D01*
X017695Y014544D01*
X017788Y014549D01*
X017880Y014550D01*
X017973Y014547D01*
X018065Y014540D01*
X018157Y014529D01*
X018248Y014514D01*
X018339Y014496D01*
X018429Y014473D01*
X018517Y014447D01*
X018605Y014417D01*
X018691Y014383D01*
X018775Y014346D01*
X018858Y014304D01*
X018939Y014260D01*
X019019Y014212D01*
X019096Y014161D01*
X019170Y014106D01*
X019243Y014048D01*
X019313Y013988D01*
X019380Y013924D01*
X019444Y013858D01*
X019506Y013788D01*
X019564Y013717D01*
X019619Y013643D01*
X019671Y013566D01*
X019720Y013487D01*
X019766Y013407D01*
X019808Y013324D01*
X019846Y013240D01*
X019881Y013154D01*
X019912Y013067D01*
X019939Y012979D01*
X019962Y012889D01*
X019982Y012799D01*
X019998Y012708D01*
X020010Y012616D01*
X020018Y012524D01*
X020022Y012431D01*
X020022Y012339D01*
X020018Y012246D01*
X020010Y012154D01*
X019998Y012062D01*
X019982Y011971D01*
X019962Y011881D01*
X019939Y011791D01*
X019912Y011703D01*
X019881Y011616D01*
X019846Y011530D01*
X019808Y011446D01*
X019766Y011363D01*
X019720Y011283D01*
X019671Y011204D01*
X019619Y011127D01*
X019564Y011053D01*
X019506Y010982D01*
X019444Y010912D01*
X019380Y010846D01*
X019313Y010782D01*
X019243Y010722D01*
X019170Y010664D01*
X019096Y010609D01*
X019019Y010558D01*
X018940Y010510D01*
X018858Y010466D01*
X018775Y010424D01*
X018691Y010387D01*
X018605Y010353D01*
X018517Y010323D01*
X018429Y010297D01*
X018339Y010274D01*
X018248Y010256D01*
X018157Y010241D01*
X018065Y010230D01*
X017973Y010223D01*
X017880Y010220D01*
X017788Y010221D01*
X017695Y010226D01*
X017603Y010235D01*
X017511Y010248D01*
X017420Y010264D01*
X017330Y010285D01*
X017241Y010309D01*
X017153Y010338D01*
X017066Y010370D01*
X016981Y010405D01*
X016897Y010445D01*
X016815Y010487D01*
X016735Y010534D01*
X016657Y010583D01*
X016581Y010636D01*
X016507Y010692D01*
X016436Y010752D01*
X016368Y010814D01*
X016302Y010879D01*
X016239Y010947D01*
X016179Y011017D01*
X016122Y011090D01*
X016068Y011165D01*
X016018Y011243D01*
X015971Y011323D01*
X015927Y011404D01*
X015887Y011488D01*
X015850Y011573D01*
X015817Y011659D01*
X015788Y011747D01*
X015763Y011836D01*
X015741Y011926D01*
X015724Y012017D01*
X015710Y012108D01*
X015700Y012200D01*
X015694Y012292D01*
X015692Y012385D01*
X015692Y026558D02*
X015694Y026651D01*
X015700Y026743D01*
X015710Y026835D01*
X015724Y026926D01*
X015741Y027017D01*
X015763Y027107D01*
X015788Y027196D01*
X015817Y027284D01*
X015850Y027370D01*
X015887Y027455D01*
X015927Y027539D01*
X015971Y027620D01*
X016018Y027700D01*
X016068Y027778D01*
X016122Y027853D01*
X016179Y027926D01*
X016239Y027996D01*
X016302Y028064D01*
X016368Y028129D01*
X016436Y028191D01*
X016507Y028251D01*
X016581Y028307D01*
X016657Y028360D01*
X016735Y028409D01*
X016815Y028456D01*
X016897Y028498D01*
X016981Y028538D01*
X017066Y028573D01*
X017153Y028605D01*
X017241Y028634D01*
X017330Y028658D01*
X017420Y028679D01*
X017511Y028695D01*
X017603Y028708D01*
X017695Y028717D01*
X017788Y028722D01*
X017880Y028723D01*
X017973Y028720D01*
X018065Y028713D01*
X018157Y028702D01*
X018248Y028687D01*
X018339Y028669D01*
X018429Y028646D01*
X018517Y028620D01*
X018605Y028590D01*
X018691Y028556D01*
X018775Y028519D01*
X018858Y028477D01*
X018939Y028433D01*
X019019Y028385D01*
X019096Y028334D01*
X019170Y028279D01*
X019243Y028221D01*
X019313Y028161D01*
X019380Y028097D01*
X019444Y028031D01*
X019506Y027961D01*
X019564Y027890D01*
X019619Y027816D01*
X019671Y027739D01*
X019720Y027660D01*
X019766Y027580D01*
X019808Y027497D01*
X019846Y027413D01*
X019881Y027327D01*
X019912Y027240D01*
X019939Y027152D01*
X019962Y027062D01*
X019982Y026972D01*
X019998Y026881D01*
X020010Y026789D01*
X020018Y026697D01*
X020022Y026604D01*
X020022Y026512D01*
X020018Y026419D01*
X020010Y026327D01*
X019998Y026235D01*
X019982Y026144D01*
X019962Y026054D01*
X019939Y025964D01*
X019912Y025876D01*
X019881Y025789D01*
X019846Y025703D01*
X019808Y025619D01*
X019766Y025536D01*
X019720Y025456D01*
X019671Y025377D01*
X019619Y025300D01*
X019564Y025226D01*
X019506Y025155D01*
X019444Y025085D01*
X019380Y025019D01*
X019313Y024955D01*
X019243Y024895D01*
X019170Y024837D01*
X019096Y024782D01*
X019019Y024731D01*
X018940Y024683D01*
X018858Y024639D01*
X018775Y024597D01*
X018691Y024560D01*
X018605Y024526D01*
X018517Y024496D01*
X018429Y024470D01*
X018339Y024447D01*
X018248Y024429D01*
X018157Y024414D01*
X018065Y024403D01*
X017973Y024396D01*
X017880Y024393D01*
X017788Y024394D01*
X017695Y024399D01*
X017603Y024408D01*
X017511Y024421D01*
X017420Y024437D01*
X017330Y024458D01*
X017241Y024482D01*
X017153Y024511D01*
X017066Y024543D01*
X016981Y024578D01*
X016897Y024618D01*
X016815Y024660D01*
X016735Y024707D01*
X016657Y024756D01*
X016581Y024809D01*
X016507Y024865D01*
X016436Y024925D01*
X016368Y024987D01*
X016302Y025052D01*
X016239Y025120D01*
X016179Y025190D01*
X016122Y025263D01*
X016068Y025338D01*
X016018Y025416D01*
X015971Y025496D01*
X015927Y025577D01*
X015887Y025661D01*
X015850Y025746D01*
X015817Y025832D01*
X015788Y025920D01*
X015763Y026009D01*
X015741Y026099D01*
X015724Y026190D01*
X015710Y026281D01*
X015700Y026373D01*
X015694Y026465D01*
X015692Y026558D01*
X030652Y026558D02*
X030654Y026651D01*
X030660Y026743D01*
X030670Y026835D01*
X030684Y026926D01*
X030701Y027017D01*
X030723Y027107D01*
X030748Y027196D01*
X030777Y027284D01*
X030810Y027370D01*
X030847Y027455D01*
X030887Y027539D01*
X030931Y027620D01*
X030978Y027700D01*
X031028Y027778D01*
X031082Y027853D01*
X031139Y027926D01*
X031199Y027996D01*
X031262Y028064D01*
X031328Y028129D01*
X031396Y028191D01*
X031467Y028251D01*
X031541Y028307D01*
X031617Y028360D01*
X031695Y028409D01*
X031775Y028456D01*
X031857Y028498D01*
X031941Y028538D01*
X032026Y028573D01*
X032113Y028605D01*
X032201Y028634D01*
X032290Y028658D01*
X032380Y028679D01*
X032471Y028695D01*
X032563Y028708D01*
X032655Y028717D01*
X032748Y028722D01*
X032840Y028723D01*
X032933Y028720D01*
X033025Y028713D01*
X033117Y028702D01*
X033208Y028687D01*
X033299Y028669D01*
X033389Y028646D01*
X033477Y028620D01*
X033565Y028590D01*
X033651Y028556D01*
X033735Y028519D01*
X033818Y028477D01*
X033899Y028433D01*
X033979Y028385D01*
X034056Y028334D01*
X034130Y028279D01*
X034203Y028221D01*
X034273Y028161D01*
X034340Y028097D01*
X034404Y028031D01*
X034466Y027961D01*
X034524Y027890D01*
X034579Y027816D01*
X034631Y027739D01*
X034680Y027660D01*
X034726Y027580D01*
X034768Y027497D01*
X034806Y027413D01*
X034841Y027327D01*
X034872Y027240D01*
X034899Y027152D01*
X034922Y027062D01*
X034942Y026972D01*
X034958Y026881D01*
X034970Y026789D01*
X034978Y026697D01*
X034982Y026604D01*
X034982Y026512D01*
X034978Y026419D01*
X034970Y026327D01*
X034958Y026235D01*
X034942Y026144D01*
X034922Y026054D01*
X034899Y025964D01*
X034872Y025876D01*
X034841Y025789D01*
X034806Y025703D01*
X034768Y025619D01*
X034726Y025536D01*
X034680Y025456D01*
X034631Y025377D01*
X034579Y025300D01*
X034524Y025226D01*
X034466Y025155D01*
X034404Y025085D01*
X034340Y025019D01*
X034273Y024955D01*
X034203Y024895D01*
X034130Y024837D01*
X034056Y024782D01*
X033979Y024731D01*
X033900Y024683D01*
X033818Y024639D01*
X033735Y024597D01*
X033651Y024560D01*
X033565Y024526D01*
X033477Y024496D01*
X033389Y024470D01*
X033299Y024447D01*
X033208Y024429D01*
X033117Y024414D01*
X033025Y024403D01*
X032933Y024396D01*
X032840Y024393D01*
X032748Y024394D01*
X032655Y024399D01*
X032563Y024408D01*
X032471Y024421D01*
X032380Y024437D01*
X032290Y024458D01*
X032201Y024482D01*
X032113Y024511D01*
X032026Y024543D01*
X031941Y024578D01*
X031857Y024618D01*
X031775Y024660D01*
X031695Y024707D01*
X031617Y024756D01*
X031541Y024809D01*
X031467Y024865D01*
X031396Y024925D01*
X031328Y024987D01*
X031262Y025052D01*
X031199Y025120D01*
X031139Y025190D01*
X031082Y025263D01*
X031028Y025338D01*
X030978Y025416D01*
X030931Y025496D01*
X030887Y025577D01*
X030847Y025661D01*
X030810Y025746D01*
X030777Y025832D01*
X030748Y025920D01*
X030723Y026009D01*
X030701Y026099D01*
X030684Y026190D01*
X030670Y026281D01*
X030660Y026373D01*
X030654Y026465D01*
X030652Y026558D01*
M02*
