G75*
%MOIN*%
%OFA0B0*%
%FSLAX24Y24*%
%IPPOS*%
%LPD*%
%AMOC8*
5,1,8,0,0,1.08239X$1,22.5*
%
%ADD10C,0.0000*%
%ADD11C,0.1450*%
%ADD12R,0.2390X0.2390*%
%ADD13C,0.0600*%
%ADD14C,0.1660*%
%ADD15C,0.1620*%
%ADD16R,0.0740X0.0740*%
%ADD17C,0.0740*%
%ADD18OC8,0.0630*%
%ADD19C,0.0630*%
%ADD20OC8,0.0520*%
%ADD21C,0.0660*%
%ADD22C,0.0650*%
%ADD23C,0.0356*%
%ADD24C,0.0160*%
%ADD25C,0.0120*%
%ADD26C,0.0472*%
%ADD27C,0.0240*%
D10*
X000927Y000574D02*
X000927Y039550D01*
X040297Y039550D01*
X040297Y000574D01*
X000927Y000574D01*
X005612Y001755D02*
X005614Y001805D01*
X005620Y001855D01*
X005630Y001904D01*
X005644Y001952D01*
X005661Y001999D01*
X005682Y002044D01*
X005707Y002088D01*
X005735Y002129D01*
X005767Y002168D01*
X005801Y002205D01*
X005838Y002239D01*
X005878Y002269D01*
X005920Y002296D01*
X005964Y002320D01*
X006010Y002341D01*
X006057Y002357D01*
X006105Y002370D01*
X006155Y002379D01*
X006204Y002384D01*
X006255Y002385D01*
X006305Y002382D01*
X006354Y002375D01*
X006403Y002364D01*
X006451Y002349D01*
X006497Y002331D01*
X006542Y002309D01*
X006585Y002283D01*
X006626Y002254D01*
X006665Y002222D01*
X006701Y002187D01*
X006733Y002149D01*
X006763Y002109D01*
X006790Y002066D01*
X006813Y002022D01*
X006832Y001976D01*
X006848Y001928D01*
X006860Y001879D01*
X006868Y001830D01*
X006872Y001780D01*
X006872Y001730D01*
X006868Y001680D01*
X006860Y001631D01*
X006848Y001582D01*
X006832Y001534D01*
X006813Y001488D01*
X006790Y001444D01*
X006763Y001401D01*
X006733Y001361D01*
X006701Y001323D01*
X006665Y001288D01*
X006626Y001256D01*
X006585Y001227D01*
X006542Y001201D01*
X006497Y001179D01*
X006451Y001161D01*
X006403Y001146D01*
X006354Y001135D01*
X006305Y001128D01*
X006255Y001125D01*
X006204Y001126D01*
X006155Y001131D01*
X006105Y001140D01*
X006057Y001153D01*
X006010Y001169D01*
X005964Y001190D01*
X005920Y001214D01*
X005878Y001241D01*
X005838Y001271D01*
X005801Y001305D01*
X005767Y001342D01*
X005735Y001381D01*
X005707Y001422D01*
X005682Y001466D01*
X005661Y001511D01*
X005644Y001558D01*
X005630Y001606D01*
X005620Y001655D01*
X005614Y001705D01*
X005612Y001755D01*
X007187Y030298D02*
X007189Y030348D01*
X007195Y030398D01*
X007205Y030447D01*
X007219Y030495D01*
X007236Y030542D01*
X007257Y030587D01*
X007282Y030631D01*
X007310Y030672D01*
X007342Y030711D01*
X007376Y030748D01*
X007413Y030782D01*
X007453Y030812D01*
X007495Y030839D01*
X007539Y030863D01*
X007585Y030884D01*
X007632Y030900D01*
X007680Y030913D01*
X007730Y030922D01*
X007779Y030927D01*
X007830Y030928D01*
X007880Y030925D01*
X007929Y030918D01*
X007978Y030907D01*
X008026Y030892D01*
X008072Y030874D01*
X008117Y030852D01*
X008160Y030826D01*
X008201Y030797D01*
X008240Y030765D01*
X008276Y030730D01*
X008308Y030692D01*
X008338Y030652D01*
X008365Y030609D01*
X008388Y030565D01*
X008407Y030519D01*
X008423Y030471D01*
X008435Y030422D01*
X008443Y030373D01*
X008447Y030323D01*
X008447Y030273D01*
X008443Y030223D01*
X008435Y030174D01*
X008423Y030125D01*
X008407Y030077D01*
X008388Y030031D01*
X008365Y029987D01*
X008338Y029944D01*
X008308Y029904D01*
X008276Y029866D01*
X008240Y029831D01*
X008201Y029799D01*
X008160Y029770D01*
X008117Y029744D01*
X008072Y029722D01*
X008026Y029704D01*
X007978Y029689D01*
X007929Y029678D01*
X007880Y029671D01*
X007830Y029668D01*
X007779Y029669D01*
X007730Y029674D01*
X007680Y029683D01*
X007632Y029696D01*
X007585Y029712D01*
X007539Y029733D01*
X007495Y029757D01*
X007453Y029784D01*
X007413Y029814D01*
X007376Y029848D01*
X007342Y029885D01*
X007310Y029924D01*
X007282Y029965D01*
X007257Y030009D01*
X007236Y030054D01*
X007219Y030101D01*
X007205Y030149D01*
X007195Y030198D01*
X007189Y030248D01*
X007187Y030298D01*
X038486Y031873D02*
X038488Y031923D01*
X038494Y031973D01*
X038504Y032022D01*
X038518Y032070D01*
X038535Y032117D01*
X038556Y032162D01*
X038581Y032206D01*
X038609Y032247D01*
X038641Y032286D01*
X038675Y032323D01*
X038712Y032357D01*
X038752Y032387D01*
X038794Y032414D01*
X038838Y032438D01*
X038884Y032459D01*
X038931Y032475D01*
X038979Y032488D01*
X039029Y032497D01*
X039078Y032502D01*
X039129Y032503D01*
X039179Y032500D01*
X039228Y032493D01*
X039277Y032482D01*
X039325Y032467D01*
X039371Y032449D01*
X039416Y032427D01*
X039459Y032401D01*
X039500Y032372D01*
X039539Y032340D01*
X039575Y032305D01*
X039607Y032267D01*
X039637Y032227D01*
X039664Y032184D01*
X039687Y032140D01*
X039706Y032094D01*
X039722Y032046D01*
X039734Y031997D01*
X039742Y031948D01*
X039746Y031898D01*
X039746Y031848D01*
X039742Y031798D01*
X039734Y031749D01*
X039722Y031700D01*
X039706Y031652D01*
X039687Y031606D01*
X039664Y031562D01*
X039637Y031519D01*
X039607Y031479D01*
X039575Y031441D01*
X039539Y031406D01*
X039500Y031374D01*
X039459Y031345D01*
X039416Y031319D01*
X039371Y031297D01*
X039325Y031279D01*
X039277Y031264D01*
X039228Y031253D01*
X039179Y031246D01*
X039129Y031243D01*
X039078Y031244D01*
X039029Y031249D01*
X038979Y031258D01*
X038931Y031271D01*
X038884Y031287D01*
X038838Y031308D01*
X038794Y031332D01*
X038752Y031359D01*
X038712Y031389D01*
X038675Y031423D01*
X038641Y031460D01*
X038609Y031499D01*
X038581Y031540D01*
X038556Y031584D01*
X038535Y031629D01*
X038518Y031676D01*
X038504Y031724D01*
X038494Y031773D01*
X038488Y031823D01*
X038486Y031873D01*
X038290Y001952D02*
X038292Y002002D01*
X038298Y002052D01*
X038308Y002101D01*
X038322Y002149D01*
X038339Y002196D01*
X038360Y002241D01*
X038385Y002285D01*
X038413Y002326D01*
X038445Y002365D01*
X038479Y002402D01*
X038516Y002436D01*
X038556Y002466D01*
X038598Y002493D01*
X038642Y002517D01*
X038688Y002538D01*
X038735Y002554D01*
X038783Y002567D01*
X038833Y002576D01*
X038882Y002581D01*
X038933Y002582D01*
X038983Y002579D01*
X039032Y002572D01*
X039081Y002561D01*
X039129Y002546D01*
X039175Y002528D01*
X039220Y002506D01*
X039263Y002480D01*
X039304Y002451D01*
X039343Y002419D01*
X039379Y002384D01*
X039411Y002346D01*
X039441Y002306D01*
X039468Y002263D01*
X039491Y002219D01*
X039510Y002173D01*
X039526Y002125D01*
X039538Y002076D01*
X039546Y002027D01*
X039550Y001977D01*
X039550Y001927D01*
X039546Y001877D01*
X039538Y001828D01*
X039526Y001779D01*
X039510Y001731D01*
X039491Y001685D01*
X039468Y001641D01*
X039441Y001598D01*
X039411Y001558D01*
X039379Y001520D01*
X039343Y001485D01*
X039304Y001453D01*
X039263Y001424D01*
X039220Y001398D01*
X039175Y001376D01*
X039129Y001358D01*
X039081Y001343D01*
X039032Y001332D01*
X038983Y001325D01*
X038933Y001322D01*
X038882Y001323D01*
X038833Y001328D01*
X038783Y001337D01*
X038735Y001350D01*
X038688Y001366D01*
X038642Y001387D01*
X038598Y001411D01*
X038556Y001438D01*
X038516Y001468D01*
X038479Y001502D01*
X038445Y001539D01*
X038413Y001578D01*
X038385Y001619D01*
X038360Y001663D01*
X038339Y001708D01*
X038322Y001755D01*
X038308Y001803D01*
X038298Y001852D01*
X038292Y001902D01*
X038290Y001952D01*
D11*
X032708Y007275D03*
X029872Y008114D03*
X027909Y010246D03*
X027773Y013192D03*
X028979Y015882D03*
X031341Y017523D03*
X034503Y017462D03*
X036799Y015717D03*
X038090Y013094D03*
X037635Y010244D03*
X035579Y007996D03*
X023129Y013094D03*
X022674Y010244D03*
X020618Y007996D03*
X017747Y007275D03*
X014912Y008114D03*
X012948Y010246D03*
X012812Y013192D03*
X014018Y015882D03*
X016380Y017523D03*
X019542Y017462D03*
X021838Y015717D03*
X017747Y021448D03*
X014912Y022287D03*
X012948Y024419D03*
X012812Y027365D03*
X014018Y030055D03*
X016380Y031697D03*
X019542Y031635D03*
X021838Y029890D03*
X023129Y027267D03*
X022674Y024418D03*
X020618Y022169D03*
X027773Y027365D03*
X028979Y030055D03*
X031341Y031697D03*
X034503Y031635D03*
X036799Y029890D03*
X038090Y027267D03*
X037635Y024418D03*
X035579Y022169D03*
X032708Y021448D03*
X029872Y022287D03*
X027909Y024419D03*
D12*
X004077Y024196D03*
X004077Y029117D03*
X004077Y019274D03*
D13*
X002605Y015566D02*
X002005Y015566D01*
X002005Y014566D02*
X002605Y014566D01*
X002605Y013566D02*
X002005Y013566D01*
X002005Y012566D02*
X002605Y012566D01*
X002605Y011566D02*
X002005Y011566D01*
X004801Y011700D02*
X005401Y011700D01*
X005401Y012700D02*
X004801Y012700D01*
X004801Y013700D02*
X005401Y013700D01*
X025431Y035310D02*
X026031Y035310D01*
X026031Y036310D02*
X025431Y036310D01*
X009801Y036282D02*
X009801Y036882D01*
X008801Y036882D02*
X008801Y036282D01*
X007801Y036282D02*
X007801Y036882D01*
D14*
X003683Y035267D03*
D15*
X002202Y036519D03*
X003673Y038150D03*
D16*
X020794Y037855D03*
D17*
X021794Y037855D03*
X022794Y037855D03*
X004373Y009141D03*
X004373Y007361D03*
X004373Y006188D03*
X004373Y004408D03*
X004373Y003235D03*
X004373Y001455D03*
X001813Y001455D03*
X001813Y003235D03*
X001813Y004408D03*
X001813Y006188D03*
X001813Y007361D03*
X001813Y009141D03*
D18*
X002590Y031676D03*
X023368Y035326D03*
D19*
X023368Y034326D03*
X003990Y031676D03*
D20*
X013707Y034432D03*
X015707Y034432D03*
D21*
X017825Y034432D03*
X021825Y034432D03*
D22*
X015692Y037188D03*
X013722Y037188D03*
D23*
X014904Y031361D03*
X011754Y028723D03*
X010967Y028526D03*
X010967Y029117D03*
X011360Y027345D03*
X011754Y026164D03*
X011360Y023211D03*
X012345Y020456D03*
X014116Y020062D03*
X015101Y019038D03*
X014589Y018841D03*
X014589Y018093D03*
X014353Y017188D03*
X013526Y017897D03*
X012837Y017601D03*
X011951Y017306D03*
X009589Y018684D03*
X008408Y018487D03*
X007620Y018487D03*
X007620Y019274D03*
X008408Y020259D03*
X008605Y017503D03*
X010573Y014747D03*
X010179Y013763D03*
X009983Y011597D03*
X012345Y011597D03*
X013526Y014550D03*
X017660Y015101D03*
X021439Y017306D03*
X025140Y016125D03*
X029116Y020416D03*
X027305Y021243D03*
X024943Y023802D03*
X021006Y024196D03*
X020927Y026400D03*
X021242Y028330D03*
X022896Y028802D03*
X024156Y028526D03*
X025731Y029708D03*
X027778Y028960D03*
X030061Y031086D03*
X029274Y032267D03*
X029864Y034235D03*
X029077Y035416D03*
X028093Y037582D03*
X025731Y038960D03*
X031833Y038960D03*
X034589Y038960D03*
X036164Y038960D03*
X034983Y036597D03*
X033644Y034235D03*
X032423Y033645D03*
X035967Y034038D03*
X036754Y034235D03*
X036360Y032857D03*
X039116Y033645D03*
X038329Y036597D03*
X033801Y029708D03*
X035849Y025180D03*
X038329Y019078D03*
X034904Y015613D03*
X032738Y015456D03*
X037935Y014550D03*
X032738Y009511D03*
X037935Y007267D03*
X039510Y003723D03*
X037542Y002936D03*
X035770Y002149D03*
X036557Y001164D03*
X033801Y002149D03*
X031833Y002149D03*
X028683Y002345D03*
X028290Y001361D03*
X027502Y002542D03*
X026715Y001755D03*
X024549Y001164D03*
X024353Y002345D03*
X023368Y001558D03*
X023171Y002542D03*
X024156Y003920D03*
X019234Y006873D03*
X021400Y009038D03*
X016282Y009432D03*
X012935Y007070D03*
X008408Y002739D03*
X008605Y001755D03*
X007817Y001755D03*
X006439Y003526D03*
X005455Y004314D03*
X003290Y010219D03*
X004077Y012582D03*
X005849Y014550D03*
X004274Y016125D03*
X005455Y021637D03*
X006636Y023999D03*
X002305Y022227D03*
X001715Y026164D03*
X001715Y029904D03*
X006242Y029314D03*
X015809Y019196D03*
X016636Y019550D03*
X018644Y022857D03*
X022778Y030495D03*
X029274Y026164D03*
D24*
X028976Y026568D02*
X037566Y026568D01*
X037600Y026534D02*
X037918Y026402D01*
X038262Y026402D01*
X038580Y026534D01*
X038823Y026777D01*
X038955Y027095D01*
X038955Y027439D01*
X038823Y027757D01*
X038580Y028001D01*
X038262Y028132D01*
X037918Y028132D01*
X037600Y028001D01*
X037356Y027757D01*
X037225Y027439D01*
X037225Y027095D01*
X037356Y026777D01*
X037600Y026534D01*
X037407Y026726D02*
X029134Y026726D01*
X029293Y026885D02*
X037312Y026885D01*
X037246Y027043D02*
X029451Y027043D01*
X029610Y027202D02*
X037225Y027202D01*
X037225Y027360D02*
X029768Y027360D01*
X029927Y027519D02*
X037258Y027519D01*
X037323Y027677D02*
X030085Y027677D01*
X030244Y027836D02*
X037435Y027836D01*
X037593Y027994D02*
X030402Y027994D01*
X030561Y028153D02*
X040117Y028153D01*
X040117Y028311D02*
X030719Y028311D01*
X030878Y028470D02*
X040117Y028470D01*
X040117Y028628D02*
X031036Y028628D01*
X031195Y028787D02*
X040117Y028787D01*
X040117Y028945D02*
X031353Y028945D01*
X031512Y029104D02*
X036436Y029104D01*
X036309Y029157D02*
X036627Y029025D01*
X036971Y029025D01*
X037289Y029157D01*
X037532Y029400D01*
X037664Y029718D01*
X037664Y030062D01*
X037532Y030380D01*
X037289Y030623D01*
X036971Y030755D01*
X036627Y030755D01*
X036309Y030623D01*
X036065Y030380D01*
X035934Y030062D01*
X035934Y029718D01*
X036065Y029400D01*
X036309Y029157D01*
X036203Y029262D02*
X031670Y029262D01*
X031829Y029421D02*
X036057Y029421D01*
X035991Y029579D02*
X031987Y029579D01*
X032146Y029738D02*
X035934Y029738D01*
X035934Y029896D02*
X032304Y029896D01*
X032463Y030055D02*
X035934Y030055D01*
X035996Y030213D02*
X032621Y030213D01*
X032780Y030372D02*
X036062Y030372D01*
X036216Y030530D02*
X032938Y030530D01*
X032900Y030492D02*
X033017Y030609D01*
X033017Y031987D01*
X033766Y032736D01*
X035617Y032736D01*
X035734Y032853D01*
X036325Y033445D01*
X038867Y033445D01*
X038936Y033375D01*
X039053Y033326D01*
X039180Y033326D01*
X039297Y033375D01*
X039386Y033464D01*
X039434Y033581D01*
X039434Y033708D01*
X039386Y033825D01*
X039297Y033914D01*
X039180Y033963D01*
X039053Y033963D01*
X038936Y033914D01*
X038867Y033845D01*
X036223Y033845D01*
X036236Y033858D01*
X036285Y033975D01*
X036285Y034102D01*
X036236Y034218D01*
X036147Y034308D01*
X036030Y034356D01*
X035903Y034356D01*
X035787Y034308D01*
X035697Y034218D01*
X035649Y034102D01*
X035649Y034041D01*
X034112Y034041D01*
X032380Y032309D01*
X032263Y032192D01*
X032263Y030775D01*
X030018Y028530D01*
X026632Y028530D01*
X024152Y026049D01*
X024127Y026049D01*
X024159Y026081D01*
X027505Y029428D01*
X027505Y033365D01*
X028569Y034429D01*
X030175Y034429D01*
X030569Y034035D01*
X033394Y034035D01*
X033464Y033965D01*
X033581Y033917D01*
X033707Y033917D01*
X033824Y033965D01*
X033914Y034055D01*
X033962Y034172D01*
X033962Y034298D01*
X033914Y034415D01*
X033824Y034505D01*
X033707Y034553D01*
X033581Y034553D01*
X033464Y034505D01*
X033394Y034435D01*
X030735Y034435D01*
X030458Y034712D01*
X030341Y034829D01*
X028404Y034829D01*
X027309Y033734D01*
X027309Y033955D01*
X028963Y035610D01*
X029947Y035610D01*
X030064Y035727D01*
X032506Y038169D01*
X034869Y038169D01*
X034986Y038286D01*
X035459Y038760D01*
X035914Y038760D01*
X035983Y038690D01*
X036100Y038641D01*
X036227Y038641D01*
X036344Y038690D01*
X036433Y038779D01*
X036482Y038896D01*
X036482Y039023D01*
X036433Y039140D01*
X036344Y039229D01*
X036227Y039278D01*
X036100Y039278D01*
X035983Y039229D01*
X035914Y039160D01*
X035293Y039160D01*
X034703Y038569D01*
X032513Y038569D01*
X032703Y038760D01*
X034339Y038760D01*
X034409Y038690D01*
X034526Y038641D01*
X034652Y038641D01*
X034769Y038690D01*
X034858Y038779D01*
X034907Y038896D01*
X034907Y039023D01*
X034858Y039140D01*
X034769Y039229D01*
X034652Y039278D01*
X034526Y039278D01*
X034409Y039229D01*
X034339Y039160D01*
X032537Y039160D01*
X029782Y036404D01*
X028969Y036404D01*
X031325Y038760D01*
X031583Y038760D01*
X031653Y038690D01*
X031770Y038641D01*
X031896Y038641D01*
X032013Y038690D01*
X032103Y038779D01*
X032151Y038896D01*
X032151Y039023D01*
X032103Y039140D01*
X032013Y039229D01*
X031896Y039278D01*
X031770Y039278D01*
X031653Y039229D01*
X031583Y039160D01*
X031160Y039160D01*
X026632Y034632D01*
X026515Y034515D01*
X026515Y030184D01*
X026049Y029718D01*
X026049Y029771D01*
X026000Y029888D01*
X025991Y029897D01*
X025991Y034870D01*
X026118Y034870D01*
X026280Y034937D01*
X026404Y035061D01*
X026471Y035222D01*
X026471Y035397D01*
X026404Y035559D01*
X026280Y035683D01*
X026118Y035750D01*
X025343Y035750D01*
X025181Y035683D01*
X025058Y035559D01*
X024991Y035397D01*
X024991Y035222D01*
X025058Y035061D01*
X025181Y034937D01*
X025343Y034870D01*
X025471Y034870D01*
X025471Y029897D01*
X025461Y029888D01*
X025412Y029771D01*
X025412Y029644D01*
X025461Y029527D01*
X025550Y029438D01*
X025667Y029389D01*
X025720Y029389D01*
X025648Y029317D01*
X025420Y029317D01*
X025340Y029397D01*
X025340Y031562D01*
X023490Y033412D01*
X023372Y033530D01*
X014230Y033530D01*
X010845Y030144D01*
X010727Y030027D01*
X010727Y029328D01*
X010697Y029297D01*
X010649Y029180D01*
X010649Y029054D01*
X010697Y028937D01*
X010787Y028847D01*
X010848Y028822D01*
X010787Y028796D01*
X010697Y028707D01*
X010649Y028590D01*
X010649Y028463D01*
X010697Y028346D01*
X010787Y028257D01*
X010903Y028208D01*
X011030Y028208D01*
X011147Y028257D01*
X011236Y028346D01*
X011285Y028463D01*
X011285Y028562D01*
X011436Y028713D01*
X011436Y028660D01*
X011484Y028543D01*
X011574Y028454D01*
X011691Y028405D01*
X011817Y028405D01*
X011934Y028454D01*
X012024Y028543D01*
X012072Y028660D01*
X012072Y028759D01*
X012742Y029428D01*
X012742Y030451D01*
X014947Y032657D01*
X022892Y032657D01*
X024153Y031396D01*
X024153Y029231D01*
X024270Y029114D01*
X024860Y028523D01*
X026035Y028523D01*
X023876Y026364D01*
X022428Y026364D01*
X019120Y029671D01*
X016356Y029671D01*
X016239Y029554D01*
X015805Y029120D01*
X012852Y029120D01*
X012735Y029003D01*
X011396Y027663D01*
X011297Y027663D01*
X011180Y027615D01*
X011091Y027526D01*
X011042Y027409D01*
X011042Y027282D01*
X011091Y027165D01*
X011180Y027076D01*
X011297Y027027D01*
X011424Y027027D01*
X011541Y027076D01*
X011630Y027165D01*
X011679Y027282D01*
X011679Y027381D01*
X012026Y027728D01*
X011947Y027537D01*
X011947Y027193D01*
X012079Y026875D01*
X012322Y026632D01*
X012640Y026500D01*
X012984Y026500D01*
X013302Y026632D01*
X013545Y026875D01*
X013677Y027193D01*
X013677Y027537D01*
X013545Y027855D01*
X013302Y028099D01*
X012984Y028230D01*
X012640Y028230D01*
X012449Y028151D01*
X013018Y028720D01*
X015971Y028720D01*
X016522Y029271D01*
X018955Y029271D01*
X022145Y026081D01*
X022177Y026049D01*
X021317Y026049D01*
X019191Y023923D01*
X015971Y023923D01*
X013530Y026364D01*
X012004Y026364D01*
X011934Y026434D01*
X011817Y026482D01*
X011691Y026482D01*
X011574Y026434D01*
X011484Y026344D01*
X011436Y026228D01*
X011436Y026101D01*
X011484Y025984D01*
X011574Y025895D01*
X011691Y025846D01*
X011744Y025846D01*
X011278Y025380D01*
X011160Y025263D01*
X011160Y023461D01*
X011091Y023392D01*
X011042Y023275D01*
X011042Y023148D01*
X011091Y023031D01*
X011180Y022942D01*
X011297Y022893D01*
X011424Y022893D01*
X011541Y022942D01*
X011630Y023031D01*
X011679Y023148D01*
X011679Y023275D01*
X011630Y023392D01*
X011560Y023461D01*
X011560Y025097D01*
X012231Y025767D01*
X013089Y025767D01*
X015531Y023326D01*
X015648Y023208D01*
X021553Y023208D01*
X021751Y023011D01*
X021868Y022893D01*
X023215Y022893D01*
X024869Y024547D01*
X024986Y024664D01*
X024986Y025530D01*
X025420Y025964D01*
X028372Y025964D01*
X028490Y026081D01*
X032900Y030492D01*
X032900Y030492D01*
X033017Y030689D02*
X036467Y030689D01*
X037130Y030689D02*
X040117Y030689D01*
X040117Y030847D02*
X034861Y030847D01*
X034993Y030902D02*
X035236Y031145D01*
X035368Y031463D01*
X035368Y031807D01*
X035236Y032125D01*
X034993Y032368D01*
X034675Y032500D01*
X034331Y032500D01*
X034013Y032368D01*
X033770Y032125D01*
X033638Y031807D01*
X033638Y031463D01*
X033770Y031145D01*
X034013Y030902D01*
X034331Y030770D01*
X034675Y030770D01*
X034993Y030902D01*
X035097Y031006D02*
X040117Y031006D01*
X040117Y031164D02*
X039522Y031164D01*
X039575Y031186D02*
X039803Y031414D01*
X039926Y031712D01*
X039926Y032034D01*
X039803Y032332D01*
X039575Y032560D01*
X039277Y032683D01*
X038955Y032683D01*
X038658Y032560D01*
X038430Y032332D01*
X038306Y032034D01*
X038306Y031712D01*
X038430Y031414D01*
X038658Y031186D01*
X038955Y031063D01*
X039277Y031063D01*
X039575Y031186D01*
X039712Y031323D02*
X040117Y031323D01*
X040117Y031481D02*
X039831Y031481D01*
X039896Y031640D02*
X040117Y031640D01*
X040117Y031798D02*
X039926Y031798D01*
X039926Y031957D02*
X040117Y031957D01*
X040117Y032115D02*
X039893Y032115D01*
X039827Y032274D02*
X040117Y032274D01*
X040117Y032432D02*
X039702Y032432D01*
X039500Y032591D02*
X040117Y032591D01*
X040117Y032749D02*
X035630Y032749D01*
X035788Y032908D02*
X040117Y032908D01*
X040117Y033066D02*
X035947Y033066D01*
X036105Y033225D02*
X040117Y033225D01*
X040117Y033383D02*
X039305Y033383D01*
X039418Y033542D02*
X040117Y033542D01*
X040117Y033700D02*
X039434Y033700D01*
X039352Y033859D02*
X040117Y033859D01*
X040117Y034017D02*
X036285Y034017D01*
X036254Y034176D02*
X040117Y034176D01*
X040117Y034334D02*
X036083Y034334D01*
X035850Y034334D02*
X033947Y034334D01*
X033962Y034176D02*
X035679Y034176D01*
X036237Y033859D02*
X038881Y033859D01*
X038928Y033383D02*
X036264Y033383D01*
X035088Y032274D02*
X038406Y032274D01*
X038340Y032115D02*
X035240Y032115D01*
X035306Y031957D02*
X038306Y031957D01*
X038306Y031798D02*
X035368Y031798D01*
X035368Y031640D02*
X038336Y031640D01*
X038402Y031481D02*
X035368Y031481D01*
X035310Y031323D02*
X038521Y031323D01*
X038711Y031164D02*
X035244Y031164D01*
X034145Y030847D02*
X033017Y030847D01*
X033017Y031006D02*
X033909Y031006D01*
X033762Y031164D02*
X033017Y031164D01*
X033017Y031323D02*
X033696Y031323D01*
X033638Y031481D02*
X033017Y031481D01*
X033017Y031640D02*
X033638Y031640D01*
X033638Y031798D02*
X033017Y031798D01*
X033017Y031957D02*
X033700Y031957D01*
X033766Y032115D02*
X033145Y032115D01*
X033304Y032274D02*
X033918Y032274D01*
X034167Y032432D02*
X033462Y032432D01*
X033621Y032591D02*
X038733Y032591D01*
X038530Y032432D02*
X034839Y032432D01*
X033613Y033542D02*
X027682Y033542D01*
X027841Y033700D02*
X033771Y033700D01*
X033930Y033859D02*
X027999Y033859D01*
X028158Y034017D02*
X033412Y034017D01*
X033876Y034017D02*
X034088Y034017D01*
X033836Y034493D02*
X040117Y034493D01*
X040117Y034651D02*
X030519Y034651D01*
X030677Y034493D02*
X033452Y034493D01*
X033454Y033383D02*
X027524Y033383D01*
X027505Y033225D02*
X033296Y033225D01*
X033137Y033066D02*
X027505Y033066D01*
X027505Y032908D02*
X032979Y032908D01*
X032820Y032749D02*
X027505Y032749D01*
X027505Y032591D02*
X032662Y032591D01*
X032503Y032432D02*
X031825Y032432D01*
X031831Y032430D02*
X031513Y032562D01*
X031169Y032562D01*
X030851Y032430D01*
X030608Y032187D01*
X030476Y031869D01*
X030476Y031525D01*
X030608Y031207D01*
X030851Y030963D01*
X031169Y030832D01*
X031513Y030832D01*
X031831Y030963D01*
X032074Y031207D01*
X032206Y031525D01*
X032206Y031869D01*
X032074Y032187D01*
X031831Y032430D01*
X031987Y032274D02*
X032345Y032274D01*
X032263Y032115D02*
X032104Y032115D01*
X032169Y031957D02*
X032263Y031957D01*
X032263Y031798D02*
X032206Y031798D01*
X032206Y031640D02*
X032263Y031640D01*
X032263Y031481D02*
X032188Y031481D01*
X032122Y031323D02*
X032263Y031323D01*
X032263Y031164D02*
X032032Y031164D01*
X031873Y031006D02*
X032263Y031006D01*
X032263Y030847D02*
X031550Y030847D01*
X031131Y030847D02*
X029326Y030847D01*
X029469Y030788D02*
X029151Y030920D01*
X028807Y030920D01*
X028489Y030788D01*
X028245Y030545D01*
X028114Y030227D01*
X028114Y029883D01*
X028245Y029565D01*
X028489Y029322D01*
X028807Y029190D01*
X029151Y029190D01*
X029469Y029322D01*
X029712Y029565D01*
X029844Y029883D01*
X029844Y030227D01*
X029712Y030545D01*
X029469Y030788D01*
X029568Y030689D02*
X032177Y030689D01*
X032018Y030530D02*
X029718Y030530D01*
X029784Y030372D02*
X031860Y030372D01*
X031701Y030213D02*
X029844Y030213D01*
X029844Y030055D02*
X031543Y030055D01*
X031384Y029896D02*
X029844Y029896D01*
X029784Y029738D02*
X031226Y029738D01*
X031067Y029579D02*
X029718Y029579D01*
X029568Y029421D02*
X030909Y029421D01*
X030750Y029262D02*
X029325Y029262D01*
X028632Y029262D02*
X027340Y029262D01*
X027498Y029421D02*
X028389Y029421D01*
X028239Y029579D02*
X027505Y029579D01*
X027505Y029738D02*
X028174Y029738D01*
X028114Y029896D02*
X027505Y029896D01*
X027505Y030055D02*
X028114Y030055D01*
X028114Y030213D02*
X027505Y030213D01*
X027505Y030372D02*
X028174Y030372D01*
X028239Y030530D02*
X027505Y030530D01*
X027505Y030689D02*
X028389Y030689D01*
X028631Y030847D02*
X027505Y030847D01*
X027505Y031006D02*
X030808Y031006D01*
X030650Y031164D02*
X027505Y031164D01*
X027505Y031323D02*
X030559Y031323D01*
X030494Y031481D02*
X027505Y031481D01*
X027505Y031640D02*
X030476Y031640D01*
X030476Y031798D02*
X027505Y031798D01*
X027505Y031957D02*
X030512Y031957D01*
X030578Y032115D02*
X027505Y032115D01*
X027505Y032274D02*
X030695Y032274D01*
X030856Y032432D02*
X027505Y032432D01*
X026515Y032432D02*
X025991Y032432D01*
X025991Y032274D02*
X026515Y032274D01*
X026515Y032115D02*
X025991Y032115D01*
X025991Y031957D02*
X026515Y031957D01*
X026515Y031798D02*
X025991Y031798D01*
X025991Y031640D02*
X026515Y031640D01*
X026515Y031481D02*
X025991Y031481D01*
X025991Y031323D02*
X026515Y031323D01*
X026515Y031164D02*
X025991Y031164D01*
X025991Y031006D02*
X026515Y031006D01*
X026515Y030847D02*
X025991Y030847D01*
X025991Y030689D02*
X026515Y030689D01*
X026515Y030530D02*
X025991Y030530D01*
X025991Y030372D02*
X026515Y030372D01*
X026515Y030213D02*
X025991Y030213D01*
X025991Y030055D02*
X026385Y030055D01*
X026227Y029896D02*
X025992Y029896D01*
X026049Y029738D02*
X026068Y029738D01*
X025592Y029421D02*
X025340Y029421D01*
X025340Y029579D02*
X025439Y029579D01*
X025412Y029738D02*
X025340Y029738D01*
X025340Y029896D02*
X025469Y029896D01*
X025471Y030055D02*
X025340Y030055D01*
X025340Y030213D02*
X025471Y030213D01*
X025471Y030372D02*
X025340Y030372D01*
X025340Y030530D02*
X025471Y030530D01*
X025471Y030689D02*
X025340Y030689D01*
X025340Y030847D02*
X025471Y030847D01*
X025471Y031006D02*
X025340Y031006D01*
X025340Y031164D02*
X025471Y031164D01*
X025471Y031323D02*
X025340Y031323D01*
X025340Y031481D02*
X025471Y031481D01*
X025471Y031640D02*
X025262Y031640D01*
X025104Y031798D02*
X025471Y031798D01*
X025471Y031957D02*
X024945Y031957D01*
X024787Y032115D02*
X025471Y032115D01*
X025471Y032274D02*
X024628Y032274D01*
X024470Y032432D02*
X025471Y032432D01*
X025471Y032591D02*
X024311Y032591D01*
X024153Y032749D02*
X025471Y032749D01*
X025471Y032908D02*
X023994Y032908D01*
X023836Y033066D02*
X025471Y033066D01*
X025471Y033225D02*
X023677Y033225D01*
X023519Y033383D02*
X025471Y033383D01*
X025471Y033542D02*
X012211Y033542D01*
X012211Y033700D02*
X025471Y033700D01*
X025471Y033859D02*
X012211Y033859D01*
X012211Y034017D02*
X015499Y034017D01*
X015525Y033992D02*
X015707Y033992D01*
X015889Y033992D01*
X016147Y034250D01*
X016147Y034432D01*
X016147Y034614D01*
X015889Y034872D01*
X015707Y034872D01*
X015707Y034432D01*
X016147Y034432D01*
X015707Y034432D01*
X015707Y034432D01*
X015707Y034432D01*
X015707Y033992D01*
X015707Y034432D01*
X015707Y034432D01*
X015707Y034872D01*
X015525Y034872D01*
X015267Y034614D01*
X015267Y034432D01*
X015707Y034432D01*
X015707Y034432D01*
X015267Y034432D01*
X015267Y034250D01*
X015525Y033992D01*
X015707Y034017D02*
X015707Y034017D01*
X015707Y034176D02*
X015707Y034176D01*
X015707Y034334D02*
X015707Y034334D01*
X015707Y034493D02*
X015707Y034493D01*
X015707Y034651D02*
X015707Y034651D01*
X015707Y034810D02*
X015707Y034810D01*
X015951Y034810D02*
X017538Y034810D01*
X017559Y034830D02*
X017427Y034698D01*
X017355Y034525D01*
X017355Y034338D01*
X017427Y034166D01*
X017559Y034034D01*
X017732Y033962D01*
X017919Y033962D01*
X018091Y034034D01*
X018223Y034166D01*
X018295Y034338D01*
X018295Y034525D01*
X018223Y034698D01*
X018091Y034830D01*
X017919Y034902D01*
X017732Y034902D01*
X017559Y034830D01*
X017407Y034651D02*
X016110Y034651D01*
X016147Y034493D02*
X017355Y034493D01*
X017357Y034334D02*
X016147Y034334D01*
X016073Y034176D02*
X017422Y034176D01*
X017598Y034017D02*
X015914Y034017D01*
X015341Y034176D02*
X014016Y034176D01*
X014107Y034266D02*
X013873Y034032D01*
X013541Y034032D01*
X013307Y034266D01*
X013307Y034598D01*
X013541Y034832D01*
X013873Y034832D01*
X014107Y034598D01*
X014107Y034266D01*
X014107Y034334D02*
X015267Y034334D01*
X015267Y034493D02*
X014107Y034493D01*
X014053Y034651D02*
X015304Y034651D01*
X015462Y034810D02*
X013895Y034810D01*
X013519Y034810D02*
X012211Y034810D01*
X012211Y034968D02*
X023026Y034968D01*
X023163Y034831D02*
X022873Y035121D01*
X022873Y035326D01*
X023368Y035326D01*
X023368Y035821D01*
X023163Y035821D01*
X022873Y035531D01*
X022873Y035326D01*
X023368Y035326D01*
X023368Y035326D01*
X023368Y035326D01*
X023368Y035821D01*
X023573Y035821D01*
X023863Y035531D01*
X023863Y035326D01*
X023368Y035326D01*
X023368Y035326D01*
X023368Y034831D01*
X023163Y034831D01*
X023278Y034781D02*
X023111Y034711D01*
X022983Y034583D01*
X022913Y034416D01*
X022913Y034235D01*
X022983Y034068D01*
X023111Y033940D01*
X023278Y033871D01*
X023459Y033871D01*
X023626Y033940D01*
X023754Y034068D01*
X023823Y034235D01*
X023823Y034416D01*
X023754Y034583D01*
X023626Y034711D01*
X023459Y034781D01*
X023278Y034781D01*
X023368Y034831D02*
X023368Y035326D01*
X023368Y035326D01*
X023863Y035326D01*
X023863Y035121D01*
X023573Y034831D01*
X023368Y034831D01*
X023368Y034968D02*
X023368Y034968D01*
X023368Y035127D02*
X023368Y035127D01*
X023368Y035285D02*
X023368Y035285D01*
X023368Y035444D02*
X023368Y035444D01*
X023368Y035602D02*
X023368Y035602D01*
X023368Y035761D02*
X023368Y035761D01*
X023103Y035761D02*
X012860Y035761D01*
X013019Y035919D02*
X025152Y035919D01*
X025179Y035899D02*
X025246Y035865D01*
X025318Y035842D01*
X025393Y035830D01*
X025711Y035830D01*
X025711Y036290D01*
X025751Y036290D01*
X025751Y036330D01*
X026511Y036330D01*
X026511Y036348D01*
X026499Y036422D01*
X026475Y036494D01*
X026441Y036561D01*
X026397Y036623D01*
X026343Y036676D01*
X026282Y036720D01*
X026215Y036755D01*
X026143Y036778D01*
X026068Y036790D01*
X025751Y036790D01*
X025751Y036330D01*
X025711Y036330D01*
X025711Y036790D01*
X025393Y036790D01*
X025318Y036778D01*
X025246Y036755D01*
X025179Y036720D01*
X025118Y036676D01*
X025064Y036623D01*
X025020Y036561D01*
X024986Y036494D01*
X024962Y036422D01*
X024951Y036348D01*
X024951Y036330D01*
X025711Y036330D01*
X025711Y036290D01*
X024951Y036290D01*
X024951Y036272D01*
X024962Y036198D01*
X024986Y036126D01*
X025020Y036058D01*
X025064Y035997D01*
X025118Y035944D01*
X025179Y035899D01*
X025010Y036078D02*
X016879Y036078D01*
X016889Y036082D02*
X016994Y036187D01*
X017052Y036326D01*
X017052Y036475D01*
X016994Y036614D01*
X016889Y036719D01*
X016750Y036777D01*
X016601Y036777D01*
X016462Y036719D01*
X016403Y036660D01*
X013080Y036660D01*
X012985Y036621D01*
X012912Y036548D01*
X011731Y035367D01*
X011691Y035271D01*
X011691Y032571D01*
X011056Y031936D01*
X010090Y031936D01*
X009965Y032061D01*
X009965Y032145D01*
X009908Y032283D01*
X009802Y032389D01*
X009664Y032446D01*
X009514Y032446D01*
X009376Y032389D01*
X009270Y032283D01*
X009213Y032145D01*
X009213Y031995D01*
X009270Y031857D01*
X009376Y031751D01*
X009514Y031694D01*
X009597Y031694D01*
X009762Y031529D01*
X009835Y031456D01*
X009931Y031416D01*
X011215Y031416D01*
X011311Y031456D01*
X012098Y032243D01*
X012171Y032316D01*
X012211Y032412D01*
X012211Y035112D01*
X013240Y036140D01*
X016403Y036140D01*
X016462Y036082D01*
X016601Y036024D01*
X016750Y036024D01*
X016889Y036082D01*
X017015Y036236D02*
X024956Y036236D01*
X024958Y036395D02*
X017052Y036395D01*
X017019Y036553D02*
X025016Y036553D01*
X025167Y036712D02*
X016896Y036712D01*
X016455Y036712D02*
X010281Y036712D01*
X010281Y036602D02*
X010281Y036919D01*
X010270Y036994D01*
X010246Y037066D01*
X010212Y037133D01*
X010168Y037194D01*
X010114Y037248D01*
X010053Y037292D01*
X009986Y037326D01*
X009914Y037350D01*
X009839Y037362D01*
X009821Y037362D01*
X009821Y036602D01*
X009781Y036602D01*
X009781Y037362D01*
X009764Y037362D01*
X009689Y037350D01*
X009617Y037326D01*
X009550Y037292D01*
X009489Y037248D01*
X009435Y037194D01*
X009391Y037133D01*
X009357Y037066D01*
X009333Y036994D01*
X009321Y036919D01*
X009321Y036602D01*
X009781Y036602D01*
X009781Y036562D01*
X009321Y036562D01*
X009321Y036244D01*
X009333Y036169D01*
X009357Y036097D01*
X009391Y036030D01*
X009435Y035969D01*
X009489Y035915D01*
X009550Y035871D01*
X009617Y035837D01*
X009689Y035813D01*
X009764Y035802D01*
X009781Y035802D01*
X009781Y036562D01*
X009821Y036562D01*
X009821Y035802D01*
X009839Y035802D01*
X009914Y035813D01*
X009986Y035837D01*
X010053Y035871D01*
X010114Y035915D01*
X010168Y035969D01*
X010212Y036030D01*
X010246Y036097D01*
X010270Y036169D01*
X010281Y036244D01*
X010281Y036562D01*
X009821Y036562D01*
X009821Y036602D01*
X010281Y036602D01*
X010281Y036553D02*
X012917Y036553D01*
X012759Y036395D02*
X010281Y036395D01*
X010280Y036236D02*
X012600Y036236D01*
X012442Y036078D02*
X010236Y036078D01*
X010118Y035919D02*
X012283Y035919D01*
X012125Y035761D02*
X004529Y035761D01*
X004506Y035817D02*
X004233Y036090D01*
X003876Y036237D01*
X003490Y036237D01*
X003134Y036090D01*
X003048Y036004D01*
X003070Y036039D01*
X003118Y036139D01*
X003155Y036244D01*
X003180Y036352D01*
X003190Y036439D01*
X002282Y036439D01*
X002282Y036599D01*
X002122Y036599D01*
X002122Y037506D01*
X002036Y037496D01*
X001928Y037471D01*
X001823Y037435D01*
X001723Y037386D01*
X001629Y037327D01*
X001542Y037258D01*
X001463Y037179D01*
X001394Y037092D01*
X001335Y036998D01*
X001286Y036898D01*
X001250Y036793D01*
X001225Y036685D01*
X001215Y036599D01*
X002122Y036599D01*
X002122Y036439D01*
X001215Y036439D01*
X001225Y036352D01*
X001250Y036244D01*
X001286Y036139D01*
X001335Y036039D01*
X001394Y035945D01*
X001463Y035858D01*
X001542Y035779D01*
X001629Y035710D01*
X001723Y035651D01*
X001823Y035603D01*
X001928Y035566D01*
X002036Y035541D01*
X002122Y035531D01*
X002122Y036439D01*
X002282Y036439D01*
X002282Y035531D01*
X002368Y035541D01*
X002477Y035566D01*
X002582Y035603D01*
X002682Y035651D01*
X002776Y035710D01*
X002837Y035758D01*
X002713Y035460D01*
X002713Y035075D01*
X002861Y034718D01*
X003134Y034445D01*
X003490Y034298D01*
X003876Y034298D01*
X004233Y034445D01*
X004506Y034718D01*
X004653Y035075D01*
X004653Y035460D01*
X004506Y035817D01*
X004403Y035919D02*
X007541Y035919D01*
X007552Y035909D02*
X007714Y035842D01*
X007889Y035842D01*
X008051Y035909D01*
X008174Y036032D01*
X008241Y036194D01*
X008241Y036969D01*
X008174Y037131D01*
X008051Y037255D01*
X007889Y037322D01*
X007714Y037322D01*
X007552Y037255D01*
X007428Y037131D01*
X007361Y036969D01*
X007361Y036194D01*
X007428Y036032D01*
X007552Y035909D01*
X007410Y036078D02*
X004245Y036078D01*
X003879Y036236D02*
X007361Y036236D01*
X007361Y036395D02*
X003185Y036395D01*
X003152Y036236D02*
X003488Y036236D01*
X003122Y036078D02*
X003089Y036078D01*
X003190Y036599D02*
X003180Y036685D01*
X003155Y036793D01*
X003118Y036898D01*
X003070Y036998D01*
X003011Y037092D01*
X002942Y037179D01*
X002863Y037258D01*
X002776Y037327D01*
X002682Y037386D01*
X002582Y037435D01*
X002477Y037471D01*
X002368Y037496D01*
X002282Y037506D01*
X002282Y036599D01*
X003190Y036599D01*
X003174Y036712D02*
X007361Y036712D01*
X007361Y036870D02*
X003128Y036870D01*
X003051Y037029D02*
X007386Y037029D01*
X007485Y037187D02*
X003906Y037187D01*
X003948Y037197D02*
X004053Y037234D01*
X004153Y037282D01*
X004247Y037341D01*
X004334Y037410D01*
X004413Y037489D01*
X004482Y037576D01*
X004541Y037670D01*
X004589Y037770D01*
X004626Y037875D01*
X004651Y037984D01*
X004661Y038070D01*
X003753Y038070D01*
X003753Y038230D01*
X003593Y038230D01*
X003593Y039137D01*
X003507Y039127D01*
X003399Y039102D01*
X003294Y039066D01*
X003194Y039018D01*
X003100Y038958D01*
X003013Y038889D01*
X002934Y038810D01*
X002865Y038723D01*
X002805Y038629D01*
X002757Y038529D01*
X002720Y038424D01*
X002696Y038316D01*
X002686Y038230D01*
X003593Y038230D01*
X003593Y038070D01*
X002686Y038070D01*
X002696Y037984D01*
X002720Y037875D01*
X002757Y037770D01*
X002805Y037670D01*
X002865Y037576D01*
X002934Y037489D01*
X003013Y037410D01*
X003100Y037341D01*
X003194Y037282D01*
X003294Y037234D01*
X003399Y037197D01*
X003507Y037172D01*
X003593Y037162D01*
X003593Y038070D01*
X003753Y038070D01*
X003753Y037162D01*
X003839Y037172D01*
X003948Y037197D01*
X003753Y037187D02*
X003593Y037187D01*
X003441Y037187D02*
X002934Y037187D01*
X003094Y037346D02*
X002747Y037346D01*
X002922Y037504D02*
X002296Y037504D01*
X002282Y037504D02*
X002122Y037504D01*
X002108Y037504D02*
X001107Y037504D01*
X001107Y037346D02*
X001658Y037346D01*
X001471Y037187D02*
X001107Y037187D01*
X001107Y037029D02*
X001354Y037029D01*
X001277Y036870D02*
X001107Y036870D01*
X001107Y036712D02*
X001231Y036712D01*
X001107Y036553D02*
X002122Y036553D01*
X002122Y036395D02*
X002282Y036395D01*
X002282Y036553D02*
X007361Y036553D01*
X008061Y035919D02*
X008541Y035919D01*
X008552Y035909D02*
X008714Y035842D01*
X008889Y035842D01*
X009051Y035909D01*
X009174Y036032D01*
X009241Y036194D01*
X009241Y036969D01*
X009174Y037131D01*
X009051Y037255D01*
X008889Y037322D01*
X008714Y037322D01*
X008552Y037255D01*
X008428Y037131D01*
X008361Y036969D01*
X008361Y036194D01*
X008428Y036032D01*
X008552Y035909D01*
X008410Y036078D02*
X008193Y036078D01*
X008241Y036236D02*
X008361Y036236D01*
X008361Y036395D02*
X008241Y036395D01*
X008241Y036553D02*
X008361Y036553D01*
X008361Y036712D02*
X008241Y036712D01*
X008241Y036870D02*
X008361Y036870D01*
X008386Y037029D02*
X008217Y037029D01*
X008118Y037187D02*
X008485Y037187D01*
X009118Y037187D02*
X009430Y037187D01*
X009345Y037029D02*
X009217Y037029D01*
X009241Y036870D02*
X009321Y036870D01*
X009321Y036712D02*
X009241Y036712D01*
X009241Y036553D02*
X009321Y036553D01*
X009321Y036395D02*
X009241Y036395D01*
X009241Y036236D02*
X009323Y036236D01*
X009367Y036078D02*
X009193Y036078D01*
X009061Y035919D02*
X009485Y035919D01*
X009781Y035919D02*
X009821Y035919D01*
X009821Y036078D02*
X009781Y036078D01*
X009781Y036236D02*
X009821Y036236D01*
X009821Y036395D02*
X009781Y036395D01*
X009781Y036553D02*
X009821Y036553D01*
X009821Y036712D02*
X009781Y036712D01*
X009781Y036870D02*
X009821Y036870D01*
X009821Y037029D02*
X009781Y037029D01*
X009781Y037187D02*
X009821Y037187D01*
X009821Y037346D02*
X009781Y037346D01*
X009677Y037346D02*
X004253Y037346D01*
X004425Y037504D02*
X013381Y037504D01*
X013328Y037451D02*
X013257Y037280D01*
X013257Y037095D01*
X013328Y036924D01*
X013459Y036794D01*
X013629Y036723D01*
X013814Y036723D01*
X013985Y036794D01*
X014116Y036924D01*
X014187Y037095D01*
X014187Y037280D01*
X014116Y037451D01*
X013985Y037582D01*
X013814Y037653D01*
X013629Y037653D01*
X013459Y037582D01*
X013328Y037451D01*
X013284Y037346D02*
X009926Y037346D01*
X010173Y037187D02*
X013257Y037187D01*
X013285Y037029D02*
X010258Y037029D01*
X010281Y036870D02*
X013382Y036870D01*
X014062Y036870D02*
X015352Y036870D01*
X015298Y036924D02*
X015429Y036794D01*
X015599Y036723D01*
X015784Y036723D01*
X015955Y036794D01*
X016086Y036924D01*
X016157Y037095D01*
X016157Y037280D01*
X016086Y037451D01*
X015955Y037582D01*
X015784Y037653D01*
X015599Y037653D01*
X015429Y037582D01*
X015298Y037451D01*
X015227Y037280D01*
X015227Y037095D01*
X015298Y036924D01*
X015255Y037029D02*
X014159Y037029D01*
X014187Y037187D02*
X015227Y037187D01*
X015254Y037346D02*
X014160Y037346D01*
X014063Y037504D02*
X015351Y037504D01*
X016033Y037504D02*
X020284Y037504D01*
X020284Y037427D02*
X020366Y037345D01*
X021222Y037345D01*
X021304Y037427D01*
X021304Y037706D01*
X021361Y037566D01*
X021505Y037423D01*
X021692Y037345D01*
X021895Y037345D01*
X022082Y037423D01*
X022226Y037566D01*
X022294Y037730D01*
X022361Y037566D01*
X022505Y037423D01*
X022692Y037345D01*
X022895Y037345D01*
X023082Y037423D01*
X023226Y037566D01*
X023304Y037754D01*
X023304Y037957D01*
X023226Y038144D01*
X023082Y038288D01*
X022895Y038365D01*
X022692Y038365D01*
X022505Y038288D01*
X022361Y038144D01*
X022294Y037981D01*
X022226Y038144D01*
X022082Y038288D01*
X021895Y038365D01*
X021692Y038365D01*
X021505Y038288D01*
X021361Y038144D01*
X021304Y038005D01*
X021304Y038283D01*
X021222Y038365D01*
X020366Y038365D01*
X020284Y038283D01*
X020284Y037427D01*
X020365Y037346D02*
X016130Y037346D01*
X016157Y037187D02*
X029187Y037187D01*
X029029Y037029D02*
X016129Y037029D01*
X016032Y036870D02*
X028870Y036870D01*
X028712Y036712D02*
X026294Y036712D01*
X026445Y036553D02*
X028553Y036553D01*
X028395Y036395D02*
X026503Y036395D01*
X026511Y036290D02*
X025751Y036290D01*
X025751Y035830D01*
X026068Y035830D01*
X026143Y035842D01*
X026215Y035865D01*
X026282Y035899D01*
X026343Y035944D01*
X026397Y035997D01*
X026441Y036058D01*
X026475Y036126D01*
X026499Y036198D01*
X026511Y036272D01*
X026511Y036290D01*
X026505Y036236D02*
X028236Y036236D01*
X028078Y036078D02*
X026451Y036078D01*
X026309Y035919D02*
X027919Y035919D01*
X027761Y035761D02*
X023633Y035761D01*
X023792Y035602D02*
X025101Y035602D01*
X025010Y035444D02*
X023863Y035444D01*
X023863Y035285D02*
X024991Y035285D01*
X025030Y035127D02*
X023863Y035127D01*
X023711Y034968D02*
X025150Y034968D01*
X025471Y034810D02*
X022112Y034810D01*
X022091Y034830D02*
X021919Y034902D01*
X021732Y034902D01*
X021559Y034830D01*
X021427Y034698D01*
X021355Y034525D01*
X021355Y034338D01*
X021427Y034166D01*
X021559Y034034D01*
X021732Y033962D01*
X021919Y033962D01*
X022091Y034034D01*
X022223Y034166D01*
X022295Y034338D01*
X022295Y034525D01*
X022223Y034698D01*
X022091Y034830D01*
X022243Y034651D02*
X023050Y034651D01*
X022945Y034493D02*
X022295Y034493D01*
X022293Y034334D02*
X022913Y034334D01*
X022938Y034176D02*
X022228Y034176D01*
X022052Y034017D02*
X023033Y034017D01*
X023703Y034017D02*
X025471Y034017D01*
X025471Y034176D02*
X023799Y034176D01*
X023823Y034334D02*
X025471Y034334D01*
X025471Y034493D02*
X023792Y034493D01*
X023686Y034651D02*
X025471Y034651D01*
X025991Y034651D02*
X026651Y034651D01*
X026515Y034493D02*
X025991Y034493D01*
X025991Y034334D02*
X026515Y034334D01*
X026515Y034176D02*
X025991Y034176D01*
X025991Y034017D02*
X026515Y034017D01*
X026515Y033859D02*
X025991Y033859D01*
X025991Y033700D02*
X026515Y033700D01*
X026515Y033542D02*
X025991Y033542D01*
X025991Y033383D02*
X026515Y033383D01*
X026515Y033225D02*
X025991Y033225D01*
X025991Y033066D02*
X026515Y033066D01*
X026515Y032908D02*
X025991Y032908D01*
X025991Y032749D02*
X026515Y032749D01*
X026515Y032591D02*
X025991Y032591D01*
X027309Y033859D02*
X027434Y033859D01*
X027370Y034017D02*
X027592Y034017D01*
X027529Y034176D02*
X027751Y034176D01*
X027687Y034334D02*
X027909Y034334D01*
X027846Y034493D02*
X028068Y034493D01*
X028004Y034651D02*
X028226Y034651D01*
X028163Y034810D02*
X028385Y034810D01*
X028321Y034968D02*
X040117Y034968D01*
X040117Y034810D02*
X030360Y034810D01*
X030270Y034334D02*
X028475Y034334D01*
X028316Y034176D02*
X030428Y034176D01*
X030098Y035761D02*
X040117Y035761D01*
X040117Y035919D02*
X030257Y035919D01*
X030415Y036078D02*
X040117Y036078D01*
X040117Y036236D02*
X030574Y036236D01*
X030732Y036395D02*
X040117Y036395D01*
X040117Y036553D02*
X030891Y036553D01*
X031049Y036712D02*
X040117Y036712D01*
X040117Y036870D02*
X031208Y036870D01*
X031366Y037029D02*
X040117Y037029D01*
X040117Y037187D02*
X031525Y037187D01*
X031683Y037346D02*
X040117Y037346D01*
X040117Y037504D02*
X031842Y037504D01*
X032000Y037663D02*
X040117Y037663D01*
X040117Y037821D02*
X032159Y037821D01*
X032317Y037980D02*
X040117Y037980D01*
X040117Y038138D02*
X032476Y038138D01*
X032557Y038614D02*
X034748Y038614D01*
X034851Y038772D02*
X034906Y038772D01*
X034907Y038931D02*
X035065Y038931D01*
X035223Y039089D02*
X034879Y039089D01*
X034724Y039248D02*
X036028Y039248D01*
X036299Y039248D02*
X040117Y039248D01*
X040117Y039370D02*
X001107Y039370D01*
X001107Y000754D01*
X040117Y000754D01*
X040117Y039370D01*
X040117Y039089D02*
X036454Y039089D01*
X036482Y038931D02*
X040117Y038931D01*
X040117Y038772D02*
X036426Y038772D01*
X035313Y038614D02*
X040117Y038614D01*
X040117Y038455D02*
X035155Y038455D01*
X034996Y038297D02*
X040117Y038297D01*
X040117Y035602D02*
X028955Y035602D01*
X028797Y035444D02*
X040117Y035444D01*
X040117Y035285D02*
X028638Y035285D01*
X028480Y035127D02*
X040117Y035127D01*
X040117Y030530D02*
X037382Y030530D01*
X037535Y030372D02*
X040117Y030372D01*
X040117Y030213D02*
X037601Y030213D01*
X037664Y030055D02*
X040117Y030055D01*
X040117Y029896D02*
X037664Y029896D01*
X037664Y029738D02*
X040117Y029738D01*
X040117Y029579D02*
X037606Y029579D01*
X037541Y029421D02*
X040117Y029421D01*
X040117Y029262D02*
X037394Y029262D01*
X037161Y029104D02*
X040117Y029104D01*
X040117Y027994D02*
X038586Y027994D01*
X038744Y027836D02*
X040117Y027836D01*
X040117Y027677D02*
X038856Y027677D01*
X038922Y027519D02*
X040117Y027519D01*
X040117Y027360D02*
X038955Y027360D01*
X038955Y027202D02*
X040117Y027202D01*
X040117Y027043D02*
X038933Y027043D01*
X038868Y026885D02*
X040117Y026885D01*
X040117Y026726D02*
X038772Y026726D01*
X038613Y026568D02*
X040117Y026568D01*
X040117Y026409D02*
X038279Y026409D01*
X037901Y026409D02*
X028817Y026409D01*
X028659Y026251D02*
X040117Y026251D01*
X040117Y026092D02*
X028500Y026092D01*
X028207Y026364D02*
X025254Y026364D01*
X024586Y025696D01*
X024586Y024830D01*
X023049Y023293D01*
X022034Y023293D01*
X021836Y023491D01*
X021719Y023608D01*
X019442Y023608D01*
X021483Y025649D01*
X024152Y025649D01*
X024317Y025649D01*
X026798Y028130D01*
X027358Y028130D01*
X027283Y028099D01*
X027039Y027855D01*
X026908Y027537D01*
X026908Y027193D01*
X027039Y026875D01*
X027283Y026632D01*
X027600Y026500D01*
X027945Y026500D01*
X028263Y026632D01*
X028506Y026875D01*
X028638Y027193D01*
X028638Y027537D01*
X028506Y027855D01*
X028263Y028099D01*
X028188Y028130D01*
X029972Y028130D01*
X028207Y026364D01*
X028252Y026409D02*
X025077Y026409D01*
X025140Y026251D02*
X024919Y026251D01*
X024982Y026092D02*
X024760Y026092D01*
X024823Y025934D02*
X024602Y025934D01*
X024665Y025775D02*
X024443Y025775D01*
X024586Y025617D02*
X021450Y025617D01*
X021292Y025458D02*
X024586Y025458D01*
X024586Y025300D02*
X021133Y025300D01*
X020975Y025141D02*
X022175Y025141D01*
X022184Y025151D02*
X021941Y024908D01*
X021809Y024590D01*
X021809Y024246D01*
X021941Y023928D01*
X022184Y023684D01*
X022502Y023553D01*
X022846Y023553D01*
X023164Y023684D01*
X023407Y023928D01*
X023539Y024246D01*
X023539Y024590D01*
X023407Y024908D01*
X023164Y025151D01*
X022846Y025283D01*
X022502Y025283D01*
X022184Y025151D01*
X022016Y024983D02*
X020816Y024983D01*
X020658Y024824D02*
X021906Y024824D01*
X021841Y024666D02*
X020499Y024666D01*
X020341Y024507D02*
X021809Y024507D01*
X021809Y024349D02*
X020182Y024349D01*
X020024Y024190D02*
X021832Y024190D01*
X021898Y024032D02*
X019865Y024032D01*
X019707Y023873D02*
X021995Y023873D01*
X022154Y023715D02*
X019548Y023715D01*
X019299Y024032D02*
X015862Y024032D01*
X015704Y024190D02*
X019458Y024190D01*
X019616Y024349D02*
X015545Y024349D01*
X015387Y024507D02*
X019775Y024507D01*
X019933Y024666D02*
X015228Y024666D01*
X015070Y024824D02*
X020092Y024824D01*
X020250Y024983D02*
X014911Y024983D01*
X014753Y025141D02*
X020409Y025141D01*
X020567Y025300D02*
X014594Y025300D01*
X014436Y025458D02*
X020726Y025458D01*
X020884Y025617D02*
X014277Y025617D01*
X014119Y025775D02*
X021043Y025775D01*
X021201Y025934D02*
X013960Y025934D01*
X013802Y026092D02*
X022134Y026092D01*
X021975Y026251D02*
X013643Y026251D01*
X013396Y026726D02*
X021500Y026726D01*
X021658Y026568D02*
X013147Y026568D01*
X013549Y026885D02*
X021341Y026885D01*
X021183Y027043D02*
X013615Y027043D01*
X013677Y027202D02*
X021024Y027202D01*
X020866Y027360D02*
X013677Y027360D01*
X013677Y027519D02*
X020707Y027519D01*
X020549Y027677D02*
X013619Y027677D01*
X013553Y027836D02*
X020390Y027836D01*
X020232Y027994D02*
X013406Y027994D01*
X013171Y028153D02*
X020073Y028153D01*
X019915Y028311D02*
X012609Y028311D01*
X012453Y028153D02*
X012451Y028153D01*
X012202Y028470D02*
X011950Y028470D01*
X012044Y028311D02*
X011201Y028311D01*
X011285Y028470D02*
X011558Y028470D01*
X011449Y028628D02*
X011351Y028628D01*
X010777Y028787D02*
X005412Y028787D01*
X005412Y028945D02*
X010694Y028945D01*
X010649Y029104D02*
X005412Y029104D01*
X005412Y029262D02*
X010683Y029262D01*
X010727Y029421D02*
X005412Y029421D01*
X005412Y029579D02*
X007436Y029579D01*
X007358Y029611D02*
X007656Y029488D01*
X007978Y029488D01*
X008276Y029611D01*
X008504Y029839D01*
X008627Y030137D01*
X008627Y030459D01*
X008504Y030757D01*
X008276Y030985D01*
X007978Y031108D01*
X007656Y031108D01*
X007358Y030985D01*
X007131Y030757D01*
X007007Y030459D01*
X007007Y030137D01*
X007131Y029839D01*
X007358Y029611D01*
X007232Y029738D02*
X005412Y029738D01*
X005412Y029896D02*
X007107Y029896D01*
X007041Y030055D02*
X005412Y030055D01*
X005412Y030213D02*
X007007Y030213D01*
X007007Y030372D02*
X005410Y030372D01*
X005412Y030370D02*
X005330Y030452D01*
X002824Y030452D01*
X002742Y030370D01*
X002742Y027864D01*
X002824Y027782D01*
X005129Y027782D01*
X005846Y027066D01*
X005846Y023097D01*
X005255Y022507D01*
X005255Y021887D01*
X005185Y021817D01*
X005137Y021700D01*
X005137Y021573D01*
X005185Y021456D01*
X005275Y021367D01*
X005392Y021319D01*
X005518Y021319D01*
X005635Y021367D01*
X005725Y021456D01*
X005773Y021573D01*
X005773Y021700D01*
X005725Y021817D01*
X005655Y021887D01*
X005655Y022341D01*
X006128Y022815D01*
X006246Y022932D01*
X006246Y027231D01*
X005412Y028065D01*
X005412Y030370D01*
X004375Y031418D02*
X004445Y031586D01*
X004445Y031767D01*
X004375Y031934D01*
X004247Y032062D01*
X004080Y032131D01*
X003899Y032131D01*
X003732Y032062D01*
X003604Y031934D01*
X003535Y031767D01*
X003535Y031586D01*
X003604Y031418D01*
X003732Y031290D01*
X003899Y031221D01*
X004080Y031221D01*
X004247Y031290D01*
X004375Y031418D01*
X004401Y031481D02*
X006506Y031481D01*
X006514Y031463D02*
X006620Y031357D01*
X006758Y031300D01*
X006908Y031300D01*
X007046Y031357D01*
X007152Y031463D01*
X007209Y031601D01*
X007209Y031751D01*
X007152Y031889D01*
X007046Y031995D01*
X006908Y032052D01*
X006824Y032052D01*
X006699Y032177D01*
X006699Y033766D01*
X006758Y033825D01*
X006815Y033963D01*
X006815Y034113D01*
X006758Y034251D01*
X006652Y034357D01*
X006514Y034414D01*
X006364Y034414D01*
X006226Y034357D01*
X006120Y034251D01*
X006063Y034113D01*
X006063Y033963D01*
X006120Y033825D01*
X006179Y033766D01*
X006179Y032018D01*
X006219Y031922D01*
X006457Y031685D01*
X006457Y031601D01*
X006514Y031463D01*
X006457Y031640D02*
X004445Y031640D01*
X004431Y031798D02*
X006343Y031798D01*
X006205Y031957D02*
X004352Y031957D01*
X004118Y032115D02*
X006179Y032115D01*
X006179Y032274D02*
X001107Y032274D01*
X001107Y032432D02*
X006179Y032432D01*
X006179Y032591D02*
X001107Y032591D01*
X001107Y032749D02*
X006179Y032749D01*
X006179Y032908D02*
X001107Y032908D01*
X001107Y033066D02*
X006179Y033066D01*
X006179Y033225D02*
X001107Y033225D01*
X001107Y033383D02*
X006179Y033383D01*
X006179Y033542D02*
X001107Y033542D01*
X001107Y033700D02*
X006179Y033700D01*
X006106Y033859D02*
X001107Y033859D01*
X001107Y034017D02*
X006063Y034017D01*
X006089Y034176D02*
X001107Y034176D01*
X001107Y034334D02*
X003402Y034334D01*
X003086Y034493D02*
X001107Y034493D01*
X001107Y034651D02*
X002928Y034651D01*
X002823Y034810D02*
X001107Y034810D01*
X001107Y034968D02*
X002757Y034968D01*
X002713Y035127D02*
X001107Y035127D01*
X001107Y035285D02*
X002713Y035285D01*
X002713Y035444D02*
X001107Y035444D01*
X001107Y035602D02*
X001824Y035602D01*
X002122Y035602D02*
X002282Y035602D01*
X002282Y035761D02*
X002122Y035761D01*
X002122Y035919D02*
X002282Y035919D01*
X002282Y036078D02*
X002122Y036078D01*
X002122Y036236D02*
X002282Y036236D01*
X002581Y035602D02*
X002772Y035602D01*
X002282Y036712D02*
X002122Y036712D01*
X002122Y036870D02*
X002282Y036870D01*
X002282Y037029D02*
X002122Y037029D01*
X002122Y037187D02*
X002282Y037187D01*
X002282Y037346D02*
X002122Y037346D01*
X002810Y037663D02*
X001107Y037663D01*
X001107Y037821D02*
X002739Y037821D01*
X002697Y037980D02*
X001107Y037980D01*
X001107Y038138D02*
X003593Y038138D01*
X003593Y037980D02*
X003753Y037980D01*
X003753Y038138D02*
X020284Y038138D01*
X020284Y037980D02*
X004650Y037980D01*
X004607Y037821D02*
X020284Y037821D01*
X020284Y037663D02*
X004537Y037663D01*
X004661Y038230D02*
X004651Y038316D01*
X004626Y038424D01*
X004589Y038529D01*
X004541Y038629D01*
X004482Y038723D01*
X004413Y038810D01*
X004334Y038889D01*
X004247Y038958D01*
X004153Y039018D01*
X004053Y039066D01*
X003948Y039102D01*
X003839Y039127D01*
X003753Y039137D01*
X003753Y038230D01*
X004661Y038230D01*
X004653Y038297D02*
X020297Y038297D01*
X021222Y037346D02*
X021691Y037346D01*
X021896Y037346D02*
X022691Y037346D01*
X022896Y037346D02*
X029346Y037346D01*
X029504Y037504D02*
X023164Y037504D01*
X023266Y037663D02*
X029663Y037663D01*
X029821Y037821D02*
X023304Y037821D01*
X023294Y037980D02*
X029980Y037980D01*
X030138Y038138D02*
X023228Y038138D01*
X023060Y038297D02*
X030297Y038297D01*
X030455Y038455D02*
X004615Y038455D01*
X004549Y038614D02*
X030614Y038614D01*
X030772Y038772D02*
X004443Y038772D01*
X004282Y038931D02*
X030931Y038931D01*
X031089Y039089D02*
X003986Y039089D01*
X003753Y039089D02*
X003593Y039089D01*
X003593Y038931D02*
X003753Y038931D01*
X003753Y038772D02*
X003593Y038772D01*
X003593Y038614D02*
X003753Y038614D01*
X003753Y038455D02*
X003593Y038455D01*
X003593Y038297D02*
X003753Y038297D01*
X003753Y037821D02*
X003593Y037821D01*
X003593Y037663D02*
X003753Y037663D01*
X003753Y037504D02*
X003593Y037504D01*
X003593Y037346D02*
X003753Y037346D01*
X002694Y038297D02*
X001107Y038297D01*
X001107Y038455D02*
X002731Y038455D01*
X002798Y038614D02*
X001107Y038614D01*
X001107Y038772D02*
X002904Y038772D01*
X003065Y038931D02*
X001107Y038931D01*
X001107Y039089D02*
X003361Y039089D01*
X001107Y039248D02*
X031698Y039248D01*
X031968Y039248D02*
X034453Y039248D01*
X032467Y039089D02*
X032123Y039089D01*
X032151Y038931D02*
X032309Y038931D01*
X032150Y038772D02*
X032096Y038772D01*
X031992Y038614D02*
X031179Y038614D01*
X031021Y038455D02*
X031833Y038455D01*
X031675Y038297D02*
X030862Y038297D01*
X030704Y038138D02*
X031516Y038138D01*
X031358Y037980D02*
X030545Y037980D01*
X030387Y037821D02*
X031199Y037821D01*
X031041Y037663D02*
X030228Y037663D01*
X030070Y037504D02*
X030882Y037504D01*
X030724Y037346D02*
X029911Y037346D01*
X029753Y037187D02*
X030565Y037187D01*
X030407Y037029D02*
X029594Y037029D01*
X029436Y036870D02*
X030248Y036870D01*
X030090Y036712D02*
X029277Y036712D01*
X029119Y036553D02*
X029931Y036553D01*
X027602Y035602D02*
X026360Y035602D01*
X026451Y035444D02*
X027444Y035444D01*
X027285Y035285D02*
X026471Y035285D01*
X026431Y035127D02*
X027127Y035127D01*
X026968Y034968D02*
X026311Y034968D01*
X025991Y034810D02*
X026810Y034810D01*
X025751Y035919D02*
X025711Y035919D01*
X025711Y036078D02*
X025751Y036078D01*
X025751Y036236D02*
X025711Y036236D01*
X025711Y036395D02*
X025751Y036395D01*
X025751Y036553D02*
X025711Y036553D01*
X025711Y036712D02*
X025751Y036712D01*
X022945Y035602D02*
X012702Y035602D01*
X012543Y035444D02*
X022873Y035444D01*
X022873Y035285D02*
X012385Y035285D01*
X012226Y035127D02*
X022873Y035127D01*
X021538Y034810D02*
X018112Y034810D01*
X018243Y034651D02*
X021407Y034651D01*
X021355Y034493D02*
X018295Y034493D01*
X018293Y034334D02*
X021357Y034334D01*
X021422Y034176D02*
X018228Y034176D01*
X018052Y034017D02*
X021598Y034017D01*
X022958Y032591D02*
X014881Y032591D01*
X014722Y032432D02*
X015896Y032432D01*
X015890Y032430D02*
X015647Y032187D01*
X015515Y031869D01*
X015515Y031525D01*
X015647Y031207D01*
X015890Y030963D01*
X016208Y030832D01*
X016552Y030832D01*
X016870Y030963D01*
X017113Y031207D01*
X017245Y031525D01*
X017245Y031869D01*
X017113Y032187D01*
X016870Y032430D01*
X016552Y032562D01*
X016208Y032562D01*
X015890Y032430D01*
X015734Y032274D02*
X014564Y032274D01*
X014405Y032115D02*
X015617Y032115D01*
X015552Y031957D02*
X014247Y031957D01*
X014088Y031798D02*
X015515Y031798D01*
X015515Y031640D02*
X013930Y031640D01*
X013771Y031481D02*
X015533Y031481D01*
X015599Y031323D02*
X013613Y031323D01*
X013454Y031164D02*
X015689Y031164D01*
X015848Y031006D02*
X013296Y031006D01*
X013137Y030847D02*
X013671Y030847D01*
X013528Y030788D02*
X013285Y030545D01*
X013153Y030227D01*
X013153Y029883D01*
X013285Y029565D01*
X013528Y029322D01*
X013846Y029190D01*
X014190Y029190D01*
X014508Y029322D01*
X014751Y029565D01*
X014883Y029883D01*
X014883Y030227D01*
X014751Y030545D01*
X014508Y030788D01*
X014190Y030920D01*
X013846Y030920D01*
X013528Y030788D01*
X013429Y030689D02*
X012979Y030689D01*
X012820Y030530D02*
X013279Y030530D01*
X013213Y030372D02*
X012742Y030372D01*
X012742Y030213D02*
X013153Y030213D01*
X013153Y030055D02*
X012742Y030055D01*
X012742Y029896D02*
X013153Y029896D01*
X013213Y029738D02*
X012742Y029738D01*
X012742Y029579D02*
X013279Y029579D01*
X013429Y029421D02*
X012734Y029421D01*
X012576Y029262D02*
X013671Y029262D01*
X014365Y029262D02*
X015947Y029262D01*
X016106Y029421D02*
X014607Y029421D01*
X014757Y029579D02*
X016264Y029579D01*
X016513Y029262D02*
X018964Y029262D01*
X019122Y029104D02*
X016354Y029104D01*
X016196Y028945D02*
X019281Y028945D01*
X019439Y028787D02*
X016037Y028787D01*
X014823Y029738D02*
X020973Y029738D01*
X020973Y029718D02*
X021105Y029400D01*
X021348Y029157D01*
X021666Y029025D01*
X022010Y029025D01*
X022328Y029157D01*
X022571Y029400D01*
X022703Y029718D01*
X022703Y030062D01*
X022571Y030380D01*
X022328Y030623D01*
X022010Y030755D01*
X021666Y030755D01*
X021348Y030623D01*
X021105Y030380D01*
X020973Y030062D01*
X020973Y029718D01*
X021030Y029579D02*
X019213Y029579D01*
X019371Y029421D02*
X021096Y029421D01*
X021242Y029262D02*
X019530Y029262D01*
X019688Y029104D02*
X021476Y029104D01*
X021306Y028648D02*
X021179Y028648D01*
X021062Y028599D01*
X020973Y028510D01*
X020924Y028393D01*
X020924Y028266D01*
X020973Y028149D01*
X021062Y028060D01*
X021179Y028011D01*
X021306Y028011D01*
X021423Y028060D01*
X021472Y028110D01*
X022515Y028110D01*
X022889Y028484D01*
X022959Y028484D01*
X023076Y028532D01*
X023166Y028622D01*
X023214Y028739D01*
X023214Y028865D01*
X023166Y028982D01*
X023076Y029072D01*
X022959Y029120D01*
X022833Y029120D01*
X022716Y029072D01*
X022626Y028982D01*
X022578Y028865D01*
X022578Y028795D01*
X022332Y028550D01*
X021472Y028550D01*
X021423Y028599D01*
X021306Y028648D01*
X021353Y028628D02*
X022411Y028628D01*
X022569Y028787D02*
X020005Y028787D01*
X019847Y028945D02*
X022611Y028945D01*
X022793Y029104D02*
X022201Y029104D01*
X022434Y029262D02*
X024153Y029262D01*
X024153Y029421D02*
X022580Y029421D01*
X022646Y029579D02*
X024153Y029579D01*
X024153Y029738D02*
X022703Y029738D01*
X022703Y029896D02*
X024153Y029896D01*
X024153Y030055D02*
X022703Y030055D01*
X022640Y030213D02*
X024153Y030213D01*
X024153Y030372D02*
X022575Y030372D01*
X022421Y030530D02*
X024153Y030530D01*
X024153Y030689D02*
X022170Y030689D01*
X021506Y030689D02*
X014607Y030689D01*
X014757Y030530D02*
X021255Y030530D01*
X021101Y030372D02*
X014823Y030372D01*
X014883Y030213D02*
X021036Y030213D01*
X020973Y030055D02*
X014883Y030055D01*
X014883Y029896D02*
X020973Y029896D01*
X020032Y030902D02*
X020276Y031145D01*
X020407Y031463D01*
X020407Y031807D01*
X020276Y032125D01*
X020032Y032368D01*
X019714Y032500D01*
X019370Y032500D01*
X019052Y032368D01*
X018809Y032125D01*
X018677Y031807D01*
X018677Y031463D01*
X018809Y031145D01*
X019052Y030902D01*
X019370Y030770D01*
X019714Y030770D01*
X020032Y030902D01*
X019901Y030847D02*
X024153Y030847D01*
X024153Y031006D02*
X020136Y031006D01*
X020284Y031164D02*
X024153Y031164D01*
X024153Y031323D02*
X020349Y031323D01*
X020407Y031481D02*
X024068Y031481D01*
X023909Y031640D02*
X020407Y031640D01*
X020407Y031798D02*
X023751Y031798D01*
X023592Y031957D02*
X020345Y031957D01*
X020280Y032115D02*
X023434Y032115D01*
X023275Y032274D02*
X020127Y032274D01*
X019878Y032432D02*
X023117Y032432D01*
X022999Y029104D02*
X024280Y029104D01*
X024438Y028945D02*
X023181Y028945D01*
X023214Y028787D02*
X024597Y028787D01*
X024755Y028628D02*
X023168Y028628D01*
X022896Y028802D02*
X022423Y028330D01*
X021242Y028330D01*
X021132Y028628D02*
X020164Y028628D01*
X020322Y028470D02*
X020956Y028470D01*
X020924Y028311D02*
X020481Y028311D01*
X020639Y028153D02*
X020971Y028153D01*
X020798Y027994D02*
X022633Y027994D01*
X022639Y028001D02*
X022396Y027757D01*
X022264Y027439D01*
X022264Y027095D01*
X022396Y026777D01*
X022639Y026534D01*
X022957Y026402D01*
X023301Y026402D01*
X023619Y026534D01*
X023862Y026777D01*
X023994Y027095D01*
X023994Y027439D01*
X023862Y027757D01*
X023619Y028001D01*
X023301Y028132D01*
X022957Y028132D01*
X022639Y028001D01*
X022558Y028153D02*
X025665Y028153D01*
X025823Y028311D02*
X022716Y028311D01*
X022875Y028470D02*
X025982Y028470D01*
X026230Y028153D02*
X026255Y028153D01*
X026389Y028311D02*
X026414Y028311D01*
X026547Y028470D02*
X026572Y028470D01*
X026706Y028628D02*
X030116Y028628D01*
X030275Y028787D02*
X026864Y028787D01*
X027023Y028945D02*
X030433Y028945D01*
X030592Y029104D02*
X027181Y029104D01*
X027178Y027994D02*
X026662Y027994D01*
X026504Y027836D02*
X027031Y027836D01*
X026966Y027677D02*
X026345Y027677D01*
X026187Y027519D02*
X026908Y027519D01*
X026908Y027360D02*
X026028Y027360D01*
X025870Y027202D02*
X026908Y027202D01*
X026970Y027043D02*
X025711Y027043D01*
X025553Y026885D02*
X027035Y026885D01*
X027188Y026726D02*
X025394Y026726D01*
X025236Y026568D02*
X027437Y026568D01*
X028108Y026568D02*
X028410Y026568D01*
X028357Y026726D02*
X028569Y026726D01*
X028510Y026885D02*
X028727Y026885D01*
X028575Y027043D02*
X028886Y027043D01*
X029044Y027202D02*
X028638Y027202D01*
X028638Y027360D02*
X029203Y027360D01*
X029361Y027519D02*
X028638Y027519D01*
X028580Y027677D02*
X029520Y027677D01*
X029678Y027836D02*
X028514Y027836D01*
X028367Y027994D02*
X029837Y027994D01*
X028399Y025153D02*
X028081Y025284D01*
X027737Y025284D01*
X027419Y025153D01*
X027176Y024909D01*
X027044Y024591D01*
X027044Y024247D01*
X027176Y023929D01*
X027419Y023686D01*
X027737Y023554D01*
X028081Y023554D01*
X028399Y023686D01*
X028642Y023929D01*
X028774Y024247D01*
X028774Y024591D01*
X028642Y024909D01*
X028399Y025153D01*
X028410Y025141D02*
X037135Y025141D01*
X037145Y025151D02*
X036902Y024908D01*
X036770Y024590D01*
X036770Y024246D01*
X036902Y023928D01*
X037145Y023684D01*
X037463Y023553D01*
X037807Y023553D01*
X038125Y023684D01*
X038368Y023928D01*
X038500Y024246D01*
X038500Y024590D01*
X038368Y024908D01*
X038125Y025151D01*
X037807Y025283D01*
X037463Y025283D01*
X037145Y025151D01*
X036977Y024983D02*
X028569Y024983D01*
X028677Y024824D02*
X036867Y024824D01*
X036801Y024666D02*
X028743Y024666D01*
X028774Y024507D02*
X036770Y024507D01*
X036770Y024349D02*
X028774Y024349D01*
X028750Y024190D02*
X036793Y024190D01*
X036858Y024032D02*
X028685Y024032D01*
X028586Y023873D02*
X036956Y023873D01*
X037114Y023715D02*
X028428Y023715D01*
X028085Y023556D02*
X037454Y023556D01*
X037816Y023556D02*
X040117Y023556D01*
X040117Y023398D02*
X023719Y023398D01*
X023561Y023239D02*
X040117Y023239D01*
X040117Y023081D02*
X030216Y023081D01*
X030362Y023020D02*
X030044Y023152D01*
X029700Y023152D01*
X029382Y023020D01*
X029139Y022777D01*
X029007Y022459D01*
X029007Y022115D01*
X029139Y021797D01*
X029382Y021553D01*
X029700Y021422D01*
X030044Y021422D01*
X030362Y021553D01*
X030605Y021797D01*
X030737Y022115D01*
X030737Y022459D01*
X030605Y022777D01*
X030362Y023020D01*
X030460Y022922D02*
X035137Y022922D01*
X035089Y022902D02*
X034845Y022659D01*
X034714Y022341D01*
X034714Y021997D01*
X034845Y021679D01*
X035089Y021435D01*
X035406Y021304D01*
X035751Y021304D01*
X036068Y021435D01*
X036312Y021679D01*
X036444Y021997D01*
X036444Y022341D01*
X036312Y022659D01*
X036068Y022902D01*
X035751Y023034D01*
X035406Y023034D01*
X035089Y022902D01*
X034950Y022764D02*
X030611Y022764D01*
X030677Y022605D02*
X034823Y022605D01*
X034757Y022447D02*
X030737Y022447D01*
X030737Y022288D02*
X032477Y022288D01*
X032536Y022313D02*
X032218Y022181D01*
X031975Y021938D01*
X031843Y021620D01*
X031843Y021276D01*
X031975Y020958D01*
X032218Y020715D01*
X032536Y020583D01*
X032880Y020583D01*
X033198Y020715D01*
X033441Y020958D01*
X033573Y021276D01*
X033573Y021620D01*
X033441Y021938D01*
X033198Y022181D01*
X032880Y022313D01*
X032536Y022313D01*
X032939Y022288D02*
X034714Y022288D01*
X034714Y022130D02*
X033249Y022130D01*
X033408Y021971D02*
X034724Y021971D01*
X034790Y021813D02*
X033493Y021813D01*
X033559Y021654D02*
X034870Y021654D01*
X035028Y021496D02*
X033573Y021496D01*
X033573Y021337D02*
X035326Y021337D01*
X035831Y021337D02*
X040117Y021337D01*
X040117Y021179D02*
X033533Y021179D01*
X033467Y021020D02*
X040117Y021020D01*
X040117Y020862D02*
X033345Y020862D01*
X033171Y020703D02*
X040117Y020703D01*
X040117Y020545D02*
X005395Y020545D01*
X005412Y020527D02*
X005330Y020609D01*
X002824Y020609D01*
X002742Y020527D01*
X002742Y018022D01*
X002824Y017940D01*
X005330Y017940D01*
X005412Y018022D01*
X005412Y020527D01*
X005412Y020386D02*
X040117Y020386D01*
X040117Y020228D02*
X035493Y020228D01*
X035459Y020262D02*
X014366Y020262D01*
X014297Y020332D01*
X014180Y020380D01*
X014053Y020380D01*
X013936Y020332D01*
X013847Y020242D01*
X013798Y020125D01*
X013798Y019999D01*
X013847Y019882D01*
X013936Y019792D01*
X014053Y019744D01*
X014180Y019744D01*
X014297Y019792D01*
X014366Y019862D01*
X016558Y019862D01*
X016456Y019820D01*
X016366Y019730D01*
X016318Y019613D01*
X016318Y019487D01*
X016356Y019396D01*
X016059Y019396D01*
X015989Y019465D01*
X015873Y019514D01*
X015746Y019514D01*
X015629Y019465D01*
X015540Y019376D01*
X015491Y019259D01*
X015491Y019132D01*
X015529Y019041D01*
X015420Y019041D01*
X015419Y019042D01*
X015419Y019102D01*
X015370Y019218D01*
X015281Y019308D01*
X015164Y019356D01*
X015037Y019356D01*
X014920Y019308D01*
X014831Y019218D01*
X014783Y019102D01*
X014783Y019098D01*
X014769Y019111D01*
X014652Y019160D01*
X014526Y019160D01*
X014409Y019111D01*
X014319Y019022D01*
X014271Y018905D01*
X014271Y018778D01*
X014319Y018661D01*
X014409Y018572D01*
X014526Y018523D01*
X014585Y018523D01*
X014586Y018522D01*
X014703Y018405D01*
X016868Y018405D01*
X017853Y017420D01*
X017853Y016593D01*
X018004Y016443D01*
X015892Y016443D01*
X015301Y017034D01*
X015301Y017496D01*
X015306Y017571D01*
X015301Y017577D01*
X015301Y017586D01*
X015247Y017639D01*
X014907Y018032D01*
X014907Y018157D01*
X014858Y018274D01*
X014769Y018363D01*
X014652Y018411D01*
X014526Y018411D01*
X014409Y018363D01*
X014319Y018274D01*
X014271Y018157D01*
X014271Y018030D01*
X014319Y017913D01*
X014409Y017824D01*
X014526Y017775D01*
X014600Y017775D01*
X014901Y017428D01*
X014901Y016945D01*
X014671Y017163D01*
X014671Y017251D01*
X014622Y017368D01*
X014533Y017458D01*
X014416Y017506D01*
X014289Y017506D01*
X014172Y017458D01*
X014083Y017368D01*
X014034Y017251D01*
X014034Y017125D01*
X014083Y017008D01*
X014172Y016918D01*
X014289Y016870D01*
X014398Y016870D01*
X015631Y015706D01*
X015687Y015649D01*
X015690Y015649D01*
X015693Y015647D01*
X015773Y015649D01*
X019112Y015649D01*
X020806Y013955D01*
X020806Y012459D01*
X021868Y011397D01*
X024860Y011397D01*
X024901Y011357D01*
X024901Y010530D01*
X027302Y008129D01*
X027302Y002792D01*
X027233Y002722D01*
X027184Y002605D01*
X027184Y002479D01*
X027233Y002362D01*
X027322Y002273D01*
X027439Y002224D01*
X027565Y002224D01*
X027682Y002273D01*
X027772Y002362D01*
X027820Y002479D01*
X027820Y002605D01*
X027772Y002722D01*
X027702Y002792D01*
X027702Y008240D01*
X028483Y007459D01*
X028483Y002595D01*
X028414Y002526D01*
X028365Y002409D01*
X028365Y002282D01*
X028414Y002165D01*
X028503Y002076D01*
X028620Y002027D01*
X028747Y002027D01*
X028864Y002076D01*
X028953Y002165D01*
X029001Y002282D01*
X029001Y002409D01*
X028953Y002526D01*
X028883Y002595D01*
X028883Y007625D01*
X025616Y010893D01*
X025616Y011680D01*
X025498Y011797D01*
X025183Y012112D01*
X022191Y012112D01*
X021521Y012783D01*
X021521Y014153D01*
X024663Y014153D01*
X027105Y011711D01*
X027223Y011594D01*
X029624Y011594D01*
X029783Y011436D01*
X029783Y010097D01*
X031121Y008759D01*
X031121Y002577D01*
X031515Y002184D01*
X031515Y002085D01*
X031563Y001968D01*
X031653Y001879D01*
X031770Y001830D01*
X031896Y001830D01*
X032013Y001879D01*
X032103Y001968D01*
X032151Y002085D01*
X032151Y002212D01*
X032103Y002329D01*
X032013Y002418D01*
X031896Y002467D01*
X031798Y002467D01*
X031521Y002743D01*
X031521Y008924D01*
X031404Y009041D01*
X030183Y010263D01*
X030183Y011601D01*
X030065Y011719D01*
X029790Y011994D01*
X027388Y011994D01*
X024946Y014436D01*
X024829Y014553D01*
X021640Y014553D01*
X019710Y016483D01*
X019596Y016597D01*
X019714Y016597D01*
X020032Y016729D01*
X020276Y016972D01*
X020407Y017290D01*
X020407Y017634D01*
X020276Y017952D01*
X020032Y018195D01*
X019714Y018327D01*
X019370Y018327D01*
X019052Y018195D01*
X018809Y017952D01*
X018677Y017634D01*
X018677Y017290D01*
X018809Y016972D01*
X019052Y016729D01*
X019362Y016600D01*
X018412Y016600D01*
X018253Y016759D01*
X018253Y017586D01*
X018136Y017703D01*
X017198Y018641D01*
X028806Y018641D01*
X029120Y018956D01*
X031671Y018956D01*
X032814Y017814D01*
X032814Y016475D01*
X035688Y013601D01*
X035688Y010420D01*
X033995Y008727D01*
X033995Y002625D01*
X033837Y002467D01*
X033738Y002467D01*
X033621Y002418D01*
X033532Y002329D01*
X033483Y002212D01*
X033483Y002085D01*
X033532Y001968D01*
X033621Y001879D01*
X033738Y001830D01*
X033865Y001830D01*
X033982Y001879D01*
X034071Y001968D01*
X034120Y002085D01*
X034120Y002184D01*
X034395Y002459D01*
X034395Y008562D01*
X035971Y010137D01*
X036088Y010255D01*
X036088Y013767D01*
X033214Y016641D01*
X033214Y017979D01*
X031922Y019271D01*
X034545Y019271D01*
X035452Y018365D01*
X035452Y014900D01*
X036318Y014034D01*
X036318Y009310D01*
X036435Y009193D01*
X036790Y008837D01*
X036790Y007034D01*
X036357Y006601D01*
X036357Y003019D01*
X035805Y002467D01*
X035707Y002467D01*
X035590Y002418D01*
X035500Y002329D01*
X035452Y002212D01*
X035452Y002085D01*
X035500Y001968D01*
X035590Y001879D01*
X035707Y001830D01*
X035833Y001830D01*
X035950Y001879D01*
X036040Y001968D01*
X036088Y002085D01*
X036088Y002184D01*
X036757Y002853D01*
X036757Y006436D01*
X037073Y006752D01*
X037190Y006869D01*
X037190Y009003D01*
X036718Y009475D01*
X036718Y014200D01*
X035852Y015066D01*
X035852Y018531D01*
X035735Y018648D01*
X035735Y018648D01*
X034828Y019554D01*
X034828Y019554D01*
X034796Y019586D01*
X034978Y019586D01*
X039074Y015491D01*
X039074Y008058D01*
X038523Y007507D01*
X038523Y004200D01*
X037577Y003254D01*
X037478Y003254D01*
X037361Y003206D01*
X037272Y003116D01*
X037223Y002999D01*
X037223Y002873D01*
X037272Y002756D01*
X037361Y002666D01*
X037478Y002618D01*
X037605Y002618D01*
X037722Y002666D01*
X037811Y002756D01*
X037860Y002873D01*
X037860Y002971D01*
X038806Y003917D01*
X038923Y004034D01*
X038923Y007341D01*
X039357Y007775D01*
X039468Y007886D01*
X039468Y004041D01*
X039447Y004041D01*
X039330Y003993D01*
X039240Y003904D01*
X039192Y003787D01*
X039192Y003660D01*
X039240Y003543D01*
X039330Y003454D01*
X039447Y003405D01*
X039573Y003405D01*
X039690Y003454D01*
X039780Y003543D01*
X039828Y003660D01*
X039828Y003759D01*
X039868Y003798D01*
X039868Y015853D01*
X039750Y015971D01*
X035459Y020262D01*
X035652Y020069D02*
X040117Y020069D01*
X040117Y019911D02*
X035810Y019911D01*
X035969Y019752D02*
X040117Y019752D01*
X040117Y019594D02*
X036127Y019594D01*
X036286Y019435D02*
X040117Y019435D01*
X040117Y019277D02*
X036444Y019277D01*
X036603Y019118D02*
X040117Y019118D01*
X040117Y018960D02*
X036761Y018960D01*
X036920Y018801D02*
X040117Y018801D01*
X040117Y018643D02*
X037078Y018643D01*
X037237Y018484D02*
X040117Y018484D01*
X040117Y018326D02*
X037395Y018326D01*
X037554Y018167D02*
X040117Y018167D01*
X040117Y018009D02*
X037712Y018009D01*
X037871Y017850D02*
X040117Y017850D01*
X040117Y017692D02*
X038029Y017692D01*
X038188Y017533D02*
X040117Y017533D01*
X040117Y017375D02*
X038346Y017375D01*
X038505Y017216D02*
X040117Y017216D01*
X040117Y017058D02*
X038663Y017058D01*
X038822Y016899D02*
X040117Y016899D01*
X040117Y016741D02*
X038980Y016741D01*
X039139Y016582D02*
X040117Y016582D01*
X040117Y016424D02*
X039297Y016424D01*
X039456Y016265D02*
X040117Y016265D01*
X040117Y016107D02*
X039614Y016107D01*
X039773Y015948D02*
X040117Y015948D01*
X040117Y015790D02*
X039868Y015790D01*
X039868Y015631D02*
X040117Y015631D01*
X040117Y015473D02*
X039868Y015473D01*
X039868Y015314D02*
X040117Y015314D01*
X040117Y015156D02*
X039868Y015156D01*
X039868Y014997D02*
X040117Y014997D01*
X040117Y014839D02*
X039868Y014839D01*
X039868Y014680D02*
X040117Y014680D01*
X040117Y014522D02*
X039868Y014522D01*
X039868Y014363D02*
X040117Y014363D01*
X040117Y014205D02*
X039868Y014205D01*
X039868Y014046D02*
X040117Y014046D01*
X040117Y013888D02*
X039868Y013888D01*
X039868Y013729D02*
X040117Y013729D01*
X040117Y013571D02*
X039868Y013571D01*
X039868Y013412D02*
X040117Y013412D01*
X040117Y013254D02*
X039868Y013254D01*
X039868Y013095D02*
X040117Y013095D01*
X040117Y012937D02*
X039868Y012937D01*
X039868Y012778D02*
X040117Y012778D01*
X040117Y012620D02*
X039868Y012620D01*
X039868Y012461D02*
X040117Y012461D01*
X040117Y012303D02*
X039868Y012303D01*
X039868Y012144D02*
X040117Y012144D01*
X040117Y011986D02*
X039868Y011986D01*
X039868Y011827D02*
X040117Y011827D01*
X040117Y011669D02*
X039868Y011669D01*
X039868Y011510D02*
X040117Y011510D01*
X040117Y011352D02*
X039868Y011352D01*
X039868Y011193D02*
X040117Y011193D01*
X040117Y011035D02*
X039868Y011035D01*
X039868Y010876D02*
X040117Y010876D01*
X040117Y010718D02*
X039868Y010718D01*
X039868Y010559D02*
X040117Y010559D01*
X040117Y010401D02*
X039868Y010401D01*
X039868Y010242D02*
X040117Y010242D01*
X040117Y010084D02*
X039868Y010084D01*
X039868Y009925D02*
X040117Y009925D01*
X040117Y009767D02*
X039868Y009767D01*
X039868Y009608D02*
X040117Y009608D01*
X040117Y009450D02*
X039868Y009450D01*
X039868Y009291D02*
X040117Y009291D01*
X040117Y009133D02*
X039868Y009133D01*
X039868Y008974D02*
X040117Y008974D01*
X040117Y008816D02*
X039868Y008816D01*
X039868Y008657D02*
X040117Y008657D01*
X040117Y008499D02*
X039868Y008499D01*
X039868Y008340D02*
X040117Y008340D01*
X040117Y008182D02*
X039868Y008182D01*
X039868Y008023D02*
X040117Y008023D01*
X040117Y007865D02*
X039868Y007865D01*
X039868Y007706D02*
X040117Y007706D01*
X040117Y007548D02*
X039868Y007548D01*
X039868Y007389D02*
X040117Y007389D01*
X040117Y007231D02*
X039868Y007231D01*
X039868Y007072D02*
X040117Y007072D01*
X040117Y006914D02*
X039868Y006914D01*
X039868Y006755D02*
X040117Y006755D01*
X040117Y006597D02*
X039868Y006597D01*
X039868Y006438D02*
X040117Y006438D01*
X040117Y006280D02*
X039868Y006280D01*
X039868Y006121D02*
X040117Y006121D01*
X040117Y005963D02*
X039868Y005963D01*
X039868Y005804D02*
X040117Y005804D01*
X040117Y005646D02*
X039868Y005646D01*
X039868Y005487D02*
X040117Y005487D01*
X040117Y005329D02*
X039868Y005329D01*
X039868Y005170D02*
X040117Y005170D01*
X040117Y005012D02*
X039868Y005012D01*
X039868Y004853D02*
X040117Y004853D01*
X040117Y004695D02*
X039868Y004695D01*
X039868Y004536D02*
X040117Y004536D01*
X040117Y004378D02*
X039868Y004378D01*
X039868Y004219D02*
X040117Y004219D01*
X040117Y004061D02*
X039868Y004061D01*
X039868Y003902D02*
X040117Y003902D01*
X040117Y003744D02*
X039828Y003744D01*
X039797Y003585D02*
X040117Y003585D01*
X040117Y003427D02*
X039625Y003427D01*
X039395Y003427D02*
X038315Y003427D01*
X038474Y003585D02*
X039223Y003585D01*
X039192Y003744D02*
X038632Y003744D01*
X038791Y003902D02*
X039240Y003902D01*
X039468Y004061D02*
X038923Y004061D01*
X038923Y004219D02*
X039468Y004219D01*
X039468Y004378D02*
X038923Y004378D01*
X038923Y004536D02*
X039468Y004536D01*
X039468Y004695D02*
X038923Y004695D01*
X038923Y004853D02*
X039468Y004853D01*
X039468Y005012D02*
X038923Y005012D01*
X038923Y005170D02*
X039468Y005170D01*
X039468Y005329D02*
X038923Y005329D01*
X038923Y005487D02*
X039468Y005487D01*
X039468Y005646D02*
X038923Y005646D01*
X038923Y005804D02*
X039468Y005804D01*
X039468Y005963D02*
X038923Y005963D01*
X038923Y006121D02*
X039468Y006121D01*
X039468Y006280D02*
X038923Y006280D01*
X038923Y006438D02*
X039468Y006438D01*
X039468Y006597D02*
X038923Y006597D01*
X038923Y006755D02*
X039468Y006755D01*
X039468Y006914D02*
X038923Y006914D01*
X038923Y007072D02*
X039468Y007072D01*
X039468Y007231D02*
X038923Y007231D01*
X038971Y007389D02*
X039468Y007389D01*
X039468Y007548D02*
X039129Y007548D01*
X039288Y007706D02*
X039468Y007706D01*
X039468Y007865D02*
X039446Y007865D01*
X039039Y008023D02*
X037190Y008023D01*
X037190Y007865D02*
X038880Y007865D01*
X038722Y007706D02*
X037190Y007706D01*
X037190Y007548D02*
X038563Y007548D01*
X038523Y007389D02*
X037190Y007389D01*
X037190Y007231D02*
X038523Y007231D01*
X038523Y007072D02*
X037190Y007072D01*
X037190Y006914D02*
X038523Y006914D01*
X038523Y006755D02*
X037077Y006755D01*
X036918Y006597D02*
X038523Y006597D01*
X038523Y006438D02*
X036760Y006438D01*
X036757Y006280D02*
X038523Y006280D01*
X038523Y006121D02*
X036757Y006121D01*
X036757Y005963D02*
X038523Y005963D01*
X038523Y005804D02*
X036757Y005804D01*
X036757Y005646D02*
X038523Y005646D01*
X038523Y005487D02*
X036757Y005487D01*
X036757Y005329D02*
X038523Y005329D01*
X038523Y005170D02*
X036757Y005170D01*
X036757Y005012D02*
X038523Y005012D01*
X038523Y004853D02*
X036757Y004853D01*
X036757Y004695D02*
X038523Y004695D01*
X038523Y004536D02*
X036757Y004536D01*
X036757Y004378D02*
X038523Y004378D01*
X038523Y004219D02*
X036757Y004219D01*
X036757Y004061D02*
X038384Y004061D01*
X038225Y003902D02*
X036757Y003902D01*
X036757Y003744D02*
X038067Y003744D01*
X037908Y003585D02*
X036757Y003585D01*
X036757Y003427D02*
X037750Y003427D01*
X037591Y003268D02*
X036757Y003268D01*
X036757Y003110D02*
X037269Y003110D01*
X037223Y002951D02*
X036757Y002951D01*
X036697Y002793D02*
X037257Y002793D01*
X037439Y002634D02*
X036538Y002634D01*
X036380Y002476D02*
X038298Y002476D01*
X038233Y002410D02*
X038110Y002113D01*
X038110Y001791D01*
X038233Y001493D01*
X038461Y001265D01*
X038758Y001142D01*
X039081Y001142D01*
X039378Y001265D01*
X039606Y001493D01*
X039729Y001791D01*
X039729Y002113D01*
X039606Y002410D01*
X039378Y002638D01*
X039081Y002762D01*
X038758Y002762D01*
X038461Y002638D01*
X038233Y002410D01*
X038194Y002317D02*
X036221Y002317D01*
X036088Y002159D02*
X038129Y002159D01*
X038110Y002000D02*
X036053Y002000D01*
X035860Y001842D02*
X038110Y001842D01*
X038154Y001683D02*
X023661Y001683D01*
X023638Y001738D02*
X023549Y001828D01*
X023432Y001876D01*
X023305Y001876D01*
X023188Y001828D01*
X023118Y001758D01*
X023064Y001758D01*
X023254Y001949D01*
X024239Y001949D01*
X024317Y002027D01*
X024416Y002027D01*
X024533Y002076D01*
X024622Y002165D01*
X024671Y002282D01*
X024671Y002409D01*
X024622Y002526D01*
X024533Y002615D01*
X024416Y002663D01*
X024289Y002663D01*
X024172Y002615D01*
X024083Y002526D01*
X024034Y002409D01*
X024034Y002349D01*
X023428Y002349D01*
X023441Y002362D01*
X023490Y002479D01*
X023490Y002605D01*
X023441Y002722D01*
X023352Y002812D01*
X023235Y002860D01*
X023108Y002860D01*
X022991Y002812D01*
X022922Y002742D01*
X012821Y002742D01*
X010183Y005381D01*
X010183Y011347D01*
X010252Y011417D01*
X010301Y011534D01*
X010301Y011661D01*
X010252Y011778D01*
X010163Y011867D01*
X010046Y011915D01*
X009919Y011915D01*
X009802Y011867D01*
X009713Y011778D01*
X009664Y011661D01*
X009664Y011534D01*
X009713Y011417D01*
X009783Y011347D01*
X009783Y005215D01*
X009900Y005098D01*
X012656Y002342D01*
X022922Y002342D01*
X022991Y002273D01*
X023006Y002266D01*
X022695Y001955D01*
X009475Y001955D01*
X008726Y002704D01*
X008726Y002802D01*
X008677Y002919D01*
X008588Y003009D01*
X008471Y003057D01*
X008344Y003057D01*
X008228Y003009D01*
X008138Y002919D01*
X008090Y002802D01*
X008090Y002676D01*
X008138Y002559D01*
X008228Y002469D01*
X008344Y002421D01*
X008443Y002421D01*
X009106Y001758D01*
X008923Y001758D01*
X008923Y001818D01*
X008874Y001935D01*
X008785Y002024D01*
X008668Y002073D01*
X008541Y002073D01*
X008424Y002024D01*
X008335Y001935D01*
X008286Y001818D01*
X008286Y001692D01*
X008335Y001575D01*
X008424Y001485D01*
X008541Y001437D01*
X008640Y001437D01*
X008712Y001364D01*
X008491Y001364D01*
X008135Y001720D01*
X008135Y001818D01*
X008087Y001935D01*
X007997Y002024D01*
X007880Y002073D01*
X007754Y002073D01*
X007637Y002024D01*
X007547Y001935D01*
X007499Y001818D01*
X007499Y001692D01*
X007547Y001575D01*
X007637Y001485D01*
X007754Y001437D01*
X007852Y001437D01*
X008325Y000964D01*
X024300Y000964D01*
X024369Y000895D01*
X024486Y000846D01*
X024613Y000846D01*
X024730Y000895D01*
X024819Y000984D01*
X024868Y001101D01*
X024868Y001228D01*
X024819Y001344D01*
X024730Y001434D01*
X024613Y001482D01*
X024486Y001482D01*
X024369Y001434D01*
X024300Y001364D01*
X023625Y001364D01*
X023638Y001378D01*
X023686Y001495D01*
X023686Y001621D01*
X023638Y001738D01*
X023515Y001842D02*
X031742Y001842D01*
X031923Y001842D02*
X033711Y001842D01*
X033892Y001842D02*
X035679Y001842D01*
X035487Y002000D02*
X034084Y002000D01*
X034120Y002159D02*
X035452Y002159D01*
X035495Y002317D02*
X034253Y002317D01*
X034395Y002476D02*
X035814Y002476D01*
X035973Y002634D02*
X034395Y002634D01*
X034395Y002793D02*
X036131Y002793D01*
X036290Y002951D02*
X034395Y002951D01*
X034395Y003110D02*
X036357Y003110D01*
X036357Y003268D02*
X034395Y003268D01*
X034395Y003427D02*
X036357Y003427D01*
X036357Y003585D02*
X034395Y003585D01*
X034395Y003744D02*
X036357Y003744D01*
X036357Y003902D02*
X034395Y003902D01*
X034395Y004061D02*
X036357Y004061D01*
X036357Y004219D02*
X034395Y004219D01*
X034395Y004378D02*
X036357Y004378D01*
X036357Y004536D02*
X034395Y004536D01*
X034395Y004695D02*
X036357Y004695D01*
X036357Y004853D02*
X034395Y004853D01*
X034395Y005012D02*
X036357Y005012D01*
X036357Y005170D02*
X034395Y005170D01*
X034395Y005329D02*
X036357Y005329D01*
X036357Y005487D02*
X034395Y005487D01*
X034395Y005646D02*
X036357Y005646D01*
X036357Y005804D02*
X034395Y005804D01*
X034395Y005963D02*
X036357Y005963D01*
X036357Y006121D02*
X034395Y006121D01*
X034395Y006280D02*
X036357Y006280D01*
X036357Y006438D02*
X034395Y006438D01*
X034395Y006597D02*
X036357Y006597D01*
X036511Y006755D02*
X034395Y006755D01*
X034395Y006914D02*
X036670Y006914D01*
X036790Y007072D02*
X034395Y007072D01*
X034395Y007231D02*
X035165Y007231D01*
X035089Y007262D02*
X035406Y007131D01*
X035751Y007131D01*
X036068Y007262D01*
X036312Y007506D01*
X036444Y007823D01*
X036444Y008168D01*
X036312Y008486D01*
X036068Y008729D01*
X035751Y008861D01*
X035406Y008861D01*
X035089Y008729D01*
X034845Y008486D01*
X034714Y008168D01*
X034714Y007823D01*
X034845Y007506D01*
X035089Y007262D01*
X034962Y007389D02*
X034395Y007389D01*
X034395Y007548D02*
X034828Y007548D01*
X034762Y007706D02*
X034395Y007706D01*
X034395Y007865D02*
X034714Y007865D01*
X034714Y008023D02*
X034395Y008023D01*
X034395Y008182D02*
X034719Y008182D01*
X034785Y008340D02*
X034395Y008340D01*
X034395Y008499D02*
X034858Y008499D01*
X035017Y008657D02*
X034491Y008657D01*
X034649Y008816D02*
X035298Y008816D01*
X034966Y009133D02*
X036495Y009133D01*
X036336Y009291D02*
X035125Y009291D01*
X035283Y009450D02*
X036318Y009450D01*
X036318Y009608D02*
X035442Y009608D01*
X035600Y009767D02*
X036318Y009767D01*
X036318Y009925D02*
X035759Y009925D01*
X035917Y010084D02*
X036318Y010084D01*
X036318Y010242D02*
X036076Y010242D01*
X036088Y010401D02*
X036318Y010401D01*
X036318Y010559D02*
X036088Y010559D01*
X036088Y010718D02*
X036318Y010718D01*
X036318Y010876D02*
X036088Y010876D01*
X036088Y011035D02*
X036318Y011035D01*
X036318Y011193D02*
X036088Y011193D01*
X036088Y011352D02*
X036318Y011352D01*
X036318Y011510D02*
X036088Y011510D01*
X036088Y011669D02*
X036318Y011669D01*
X036318Y011827D02*
X036088Y011827D01*
X036088Y011986D02*
X036318Y011986D01*
X036318Y012144D02*
X036088Y012144D01*
X036088Y012303D02*
X036318Y012303D01*
X036318Y012461D02*
X036088Y012461D01*
X036088Y012620D02*
X036318Y012620D01*
X036318Y012778D02*
X036088Y012778D01*
X036088Y012937D02*
X036318Y012937D01*
X036318Y013095D02*
X036088Y013095D01*
X036088Y013254D02*
X036318Y013254D01*
X036318Y013412D02*
X036088Y013412D01*
X036088Y013571D02*
X036318Y013571D01*
X036318Y013729D02*
X036088Y013729D01*
X035967Y013888D02*
X036318Y013888D01*
X036306Y014046D02*
X035809Y014046D01*
X035650Y014205D02*
X036147Y014205D01*
X035989Y014363D02*
X035492Y014363D01*
X035333Y014522D02*
X035830Y014522D01*
X035672Y014680D02*
X035175Y014680D01*
X035016Y014839D02*
X035513Y014839D01*
X035452Y014997D02*
X034858Y014997D01*
X034699Y015156D02*
X035452Y015156D01*
X035452Y015314D02*
X034541Y015314D01*
X034382Y015473D02*
X035452Y015473D01*
X035452Y015631D02*
X034224Y015631D01*
X034065Y015790D02*
X035452Y015790D01*
X035452Y015948D02*
X033907Y015948D01*
X033748Y016107D02*
X035452Y016107D01*
X035452Y016265D02*
X033590Y016265D01*
X033431Y016424D02*
X035452Y016424D01*
X035452Y016582D02*
X033273Y016582D01*
X033214Y016741D02*
X034001Y016741D01*
X034013Y016729D02*
X034331Y016597D01*
X034675Y016597D01*
X034993Y016729D01*
X035236Y016972D01*
X035368Y017290D01*
X035368Y017634D01*
X035236Y017952D01*
X034993Y018195D01*
X034675Y018327D01*
X034331Y018327D01*
X034013Y018195D01*
X033770Y017952D01*
X033638Y017634D01*
X033638Y017290D01*
X033770Y016972D01*
X034013Y016729D01*
X033842Y016899D02*
X033214Y016899D01*
X033214Y017058D02*
X033734Y017058D01*
X033668Y017216D02*
X033214Y017216D01*
X033214Y017375D02*
X033638Y017375D01*
X033638Y017533D02*
X033214Y017533D01*
X033214Y017692D02*
X033662Y017692D01*
X033728Y017850D02*
X033214Y017850D01*
X033185Y018009D02*
X033826Y018009D01*
X033985Y018167D02*
X033026Y018167D01*
X032868Y018326D02*
X034328Y018326D01*
X034678Y018326D02*
X035452Y018326D01*
X035452Y018167D02*
X035021Y018167D01*
X035179Y018009D02*
X035452Y018009D01*
X035452Y017850D02*
X035278Y017850D01*
X035344Y017692D02*
X035452Y017692D01*
X035452Y017533D02*
X035368Y017533D01*
X035368Y017375D02*
X035452Y017375D01*
X035452Y017216D02*
X035337Y017216D01*
X035272Y017058D02*
X035452Y017058D01*
X035452Y016899D02*
X035164Y016899D01*
X035005Y016741D02*
X035452Y016741D01*
X035852Y016741D02*
X037824Y016741D01*
X037665Y016899D02*
X035852Y016899D01*
X035852Y017058D02*
X037507Y017058D01*
X037348Y017216D02*
X035852Y017216D01*
X035852Y017375D02*
X037190Y017375D01*
X037031Y017533D02*
X035852Y017533D01*
X035852Y017692D02*
X036873Y017692D01*
X036714Y017850D02*
X035852Y017850D01*
X035852Y018009D02*
X036556Y018009D01*
X036397Y018167D02*
X035852Y018167D01*
X035852Y018326D02*
X036239Y018326D01*
X036080Y018484D02*
X035852Y018484D01*
X035922Y018643D02*
X035740Y018643D01*
X035763Y018801D02*
X035581Y018801D01*
X035605Y018960D02*
X035423Y018960D01*
X035446Y019118D02*
X035264Y019118D01*
X035288Y019277D02*
X035106Y019277D01*
X035129Y019435D02*
X034947Y019435D01*
X034698Y019118D02*
X032075Y019118D01*
X032234Y018960D02*
X034857Y018960D01*
X035015Y018801D02*
X032392Y018801D01*
X032551Y018643D02*
X035174Y018643D01*
X035332Y018484D02*
X032709Y018484D01*
X032460Y018167D02*
X031920Y018167D01*
X031831Y018257D02*
X032074Y018013D01*
X032206Y017695D01*
X032206Y017351D01*
X032074Y017033D01*
X031831Y016790D01*
X031513Y016658D01*
X031169Y016658D01*
X030851Y016790D01*
X030608Y017033D01*
X030476Y017351D01*
X030476Y017695D01*
X030608Y018013D01*
X030851Y018257D01*
X031169Y018388D01*
X031513Y018388D01*
X031831Y018257D01*
X031664Y018326D02*
X032302Y018326D01*
X032143Y018484D02*
X017355Y018484D01*
X017513Y018326D02*
X019367Y018326D01*
X019717Y018326D02*
X031017Y018326D01*
X030761Y018167D02*
X020060Y018167D01*
X020219Y018009D02*
X030606Y018009D01*
X030540Y017850D02*
X020318Y017850D01*
X020383Y017692D02*
X030476Y017692D01*
X030476Y017533D02*
X020407Y017533D01*
X020407Y017375D02*
X030476Y017375D01*
X030532Y017216D02*
X020377Y017216D01*
X020311Y017058D02*
X030597Y017058D01*
X030742Y016899D02*
X020203Y016899D01*
X020044Y016741D02*
X028792Y016741D01*
X028807Y016747D02*
X028489Y016615D01*
X028245Y016372D01*
X028114Y016054D01*
X028114Y015710D01*
X028245Y015392D01*
X028489Y015148D01*
X028807Y015017D01*
X029151Y015017D01*
X029469Y015148D01*
X029712Y015392D01*
X029844Y015710D01*
X029844Y016054D01*
X029712Y016372D01*
X029469Y016615D01*
X029151Y016747D01*
X028807Y016747D01*
X029165Y016741D02*
X030970Y016741D01*
X031712Y016741D02*
X032814Y016741D01*
X032814Y016899D02*
X031940Y016899D01*
X032084Y017058D02*
X032814Y017058D01*
X032814Y017216D02*
X032150Y017216D01*
X032206Y017375D02*
X032814Y017375D01*
X032814Y017533D02*
X032206Y017533D01*
X032206Y017692D02*
X032814Y017692D01*
X032777Y017850D02*
X032142Y017850D01*
X032076Y018009D02*
X032619Y018009D01*
X031985Y018643D02*
X028807Y018643D01*
X028965Y018801D02*
X031826Y018801D01*
X032245Y020703D02*
X018210Y020703D01*
X018237Y020715D02*
X018481Y020958D01*
X018612Y021276D01*
X018612Y021620D01*
X018481Y021938D01*
X018237Y022181D01*
X017919Y022313D01*
X017575Y022313D01*
X017257Y022181D01*
X017014Y021938D01*
X016882Y021620D01*
X016882Y021276D01*
X017014Y020958D01*
X017257Y020715D01*
X017575Y020583D01*
X017919Y020583D01*
X018237Y020715D01*
X018385Y020862D02*
X032071Y020862D01*
X031949Y021020D02*
X018507Y021020D01*
X018572Y021179D02*
X031883Y021179D01*
X031843Y021337D02*
X020871Y021337D01*
X020790Y021304D02*
X021108Y021435D01*
X021351Y021679D01*
X021483Y021997D01*
X021483Y022341D01*
X021351Y022659D01*
X021108Y022902D01*
X020790Y023034D01*
X020446Y023034D01*
X020128Y022902D01*
X019885Y022659D01*
X019753Y022341D01*
X019753Y021997D01*
X019885Y021679D01*
X020128Y021435D01*
X020446Y021304D01*
X020790Y021304D01*
X021168Y021496D02*
X029522Y021496D01*
X029281Y021654D02*
X021327Y021654D01*
X021407Y021813D02*
X029132Y021813D01*
X029067Y021971D02*
X021472Y021971D01*
X021483Y022130D02*
X029007Y022130D01*
X029007Y022288D02*
X021483Y022288D01*
X021439Y022447D02*
X029007Y022447D01*
X029068Y022605D02*
X021373Y022605D01*
X021246Y022764D02*
X029133Y022764D01*
X029284Y022922D02*
X023244Y022922D01*
X023402Y023081D02*
X029529Y023081D01*
X030737Y022130D02*
X032167Y022130D01*
X032008Y021971D02*
X030678Y021971D01*
X030612Y021813D02*
X031923Y021813D01*
X031857Y021654D02*
X030463Y021654D01*
X030223Y021496D02*
X031843Y021496D01*
X027732Y023556D02*
X023878Y023556D01*
X024036Y023715D02*
X027390Y023715D01*
X027232Y023873D02*
X024195Y023873D01*
X024353Y024032D02*
X027133Y024032D01*
X027067Y024190D02*
X024512Y024190D01*
X024670Y024349D02*
X027044Y024349D01*
X027044Y024507D02*
X024829Y024507D01*
X024986Y024666D02*
X027075Y024666D01*
X027140Y024824D02*
X024986Y024824D01*
X024986Y024983D02*
X027249Y024983D01*
X027407Y025141D02*
X024986Y025141D01*
X024986Y025300D02*
X040117Y025300D01*
X040117Y025458D02*
X024986Y025458D01*
X025072Y025617D02*
X040117Y025617D01*
X040117Y025775D02*
X025231Y025775D01*
X025389Y025934D02*
X040117Y025934D01*
X040117Y025141D02*
X038134Y025141D01*
X038293Y024983D02*
X040117Y024983D01*
X040117Y024824D02*
X038403Y024824D01*
X038468Y024666D02*
X040117Y024666D01*
X040117Y024507D02*
X038500Y024507D01*
X038500Y024349D02*
X040117Y024349D01*
X040117Y024190D02*
X038477Y024190D01*
X038411Y024032D02*
X040117Y024032D01*
X040117Y023873D02*
X038314Y023873D01*
X038155Y023715D02*
X040117Y023715D01*
X040117Y022922D02*
X036020Y022922D01*
X036207Y022764D02*
X040117Y022764D01*
X040117Y022605D02*
X036334Y022605D01*
X036400Y022447D02*
X040117Y022447D01*
X040117Y022288D02*
X036444Y022288D01*
X036444Y022130D02*
X040117Y022130D01*
X040117Y021971D02*
X036433Y021971D01*
X036367Y021813D02*
X040117Y021813D01*
X040117Y021654D02*
X036287Y021654D01*
X036129Y021496D02*
X040117Y021496D01*
X037982Y016582D02*
X035852Y016582D01*
X035852Y016424D02*
X036283Y016424D01*
X036309Y016450D02*
X036065Y016207D01*
X035934Y015889D01*
X035934Y015545D01*
X036065Y015227D01*
X036309Y014983D01*
X036627Y014852D01*
X036971Y014852D01*
X037289Y014983D01*
X037532Y015227D01*
X037664Y015545D01*
X037664Y015889D01*
X037532Y016207D01*
X037289Y016450D01*
X036971Y016582D01*
X036627Y016582D01*
X036309Y016450D01*
X036124Y016265D02*
X035852Y016265D01*
X035852Y016107D02*
X036024Y016107D01*
X035958Y015948D02*
X035852Y015948D01*
X035852Y015790D02*
X035934Y015790D01*
X035934Y015631D02*
X035852Y015631D01*
X035852Y015473D02*
X035963Y015473D01*
X036029Y015314D02*
X035852Y015314D01*
X035852Y015156D02*
X036136Y015156D01*
X036295Y014997D02*
X035921Y014997D01*
X036079Y014839D02*
X039074Y014839D01*
X039074Y014997D02*
X037303Y014997D01*
X037461Y015156D02*
X039074Y015156D01*
X039074Y015314D02*
X037568Y015314D01*
X037634Y015473D02*
X039074Y015473D01*
X038933Y015631D02*
X037664Y015631D01*
X037664Y015790D02*
X038775Y015790D01*
X038616Y015948D02*
X037639Y015948D01*
X037573Y016107D02*
X038458Y016107D01*
X038299Y016265D02*
X037473Y016265D01*
X037315Y016424D02*
X038141Y016424D01*
X039074Y014680D02*
X036238Y014680D01*
X036396Y014522D02*
X039074Y014522D01*
X039074Y014363D02*
X036555Y014363D01*
X036713Y014205D02*
X039074Y014205D01*
X039074Y014046D02*
X036718Y014046D01*
X036718Y013888D02*
X037746Y013888D01*
X037600Y013827D02*
X037918Y013959D01*
X038262Y013959D01*
X038580Y013827D01*
X038823Y013584D01*
X038955Y013266D01*
X038955Y012922D01*
X038823Y012604D01*
X038580Y012361D01*
X038262Y012229D01*
X037918Y012229D01*
X037600Y012361D01*
X037356Y012604D01*
X037225Y012922D01*
X037225Y013266D01*
X037356Y013584D01*
X037600Y013827D01*
X037502Y013729D02*
X036718Y013729D01*
X036718Y013571D02*
X037351Y013571D01*
X037285Y013412D02*
X036718Y013412D01*
X036718Y013254D02*
X037225Y013254D01*
X037225Y013095D02*
X036718Y013095D01*
X036718Y012937D02*
X037225Y012937D01*
X037284Y012778D02*
X036718Y012778D01*
X036718Y012620D02*
X037350Y012620D01*
X037499Y012461D02*
X036718Y012461D01*
X036718Y012303D02*
X037740Y012303D01*
X038440Y012303D02*
X039074Y012303D01*
X039074Y012461D02*
X038680Y012461D01*
X038829Y012620D02*
X039074Y012620D01*
X039074Y012778D02*
X038895Y012778D01*
X038955Y012937D02*
X039074Y012937D01*
X039074Y013095D02*
X038955Y013095D01*
X038955Y013254D02*
X039074Y013254D01*
X039074Y013412D02*
X038894Y013412D01*
X038828Y013571D02*
X039074Y013571D01*
X039074Y013729D02*
X038678Y013729D01*
X038434Y013888D02*
X039074Y013888D01*
X039074Y012144D02*
X036718Y012144D01*
X036718Y011986D02*
X039074Y011986D01*
X039074Y011827D02*
X036718Y011827D01*
X036718Y011669D02*
X039074Y011669D01*
X039074Y011510D02*
X036718Y011510D01*
X036718Y011352D02*
X039074Y011352D01*
X039074Y011193D02*
X036718Y011193D01*
X036718Y011035D02*
X037283Y011035D01*
X037145Y010978D02*
X037463Y011109D01*
X037807Y011109D01*
X038125Y010978D01*
X038368Y010734D01*
X038500Y010416D01*
X038500Y010072D01*
X038368Y009754D01*
X038125Y009511D01*
X037807Y009379D01*
X037463Y009379D01*
X037145Y009511D01*
X036902Y009754D01*
X036770Y010072D01*
X036770Y010416D01*
X036902Y010734D01*
X037145Y010978D01*
X037043Y010876D02*
X036718Y010876D01*
X036718Y010718D02*
X036895Y010718D01*
X036829Y010559D02*
X036718Y010559D01*
X036718Y010401D02*
X036770Y010401D01*
X036770Y010242D02*
X036718Y010242D01*
X036718Y010084D02*
X036770Y010084D01*
X036718Y009925D02*
X036831Y009925D01*
X036896Y009767D02*
X036718Y009767D01*
X036718Y009608D02*
X037048Y009608D01*
X037293Y009450D02*
X036744Y009450D01*
X036902Y009291D02*
X039074Y009291D01*
X039074Y009133D02*
X037061Y009133D01*
X037190Y008974D02*
X039074Y008974D01*
X039074Y008816D02*
X037190Y008816D01*
X037190Y008657D02*
X039074Y008657D01*
X039074Y008499D02*
X037190Y008499D01*
X037190Y008340D02*
X039074Y008340D01*
X039074Y008182D02*
X037190Y008182D01*
X036790Y008182D02*
X036438Y008182D01*
X036444Y008023D02*
X036790Y008023D01*
X036790Y007865D02*
X036444Y007865D01*
X036395Y007706D02*
X036790Y007706D01*
X036790Y007548D02*
X036329Y007548D01*
X036195Y007389D02*
X036790Y007389D01*
X036790Y007231D02*
X035992Y007231D01*
X036372Y008340D02*
X036790Y008340D01*
X036790Y008499D02*
X036299Y008499D01*
X036140Y008657D02*
X036790Y008657D01*
X036790Y008816D02*
X035859Y008816D01*
X036653Y008974D02*
X034808Y008974D01*
X034559Y009291D02*
X031154Y009291D01*
X031313Y009133D02*
X034400Y009133D01*
X034242Y008974D02*
X031471Y008974D01*
X031521Y008816D02*
X034083Y008816D01*
X033995Y008657D02*
X031521Y008657D01*
X031521Y008499D02*
X033995Y008499D01*
X033995Y008340D02*
X031521Y008340D01*
X031521Y008182D02*
X033995Y008182D01*
X033995Y008023D02*
X033161Y008023D01*
X033198Y008008D02*
X032880Y008140D01*
X032536Y008140D01*
X032218Y008008D01*
X031975Y007765D01*
X031843Y007447D01*
X031843Y007103D01*
X031975Y006785D01*
X032218Y006541D01*
X032536Y006410D01*
X032880Y006410D01*
X033198Y006541D01*
X033441Y006785D01*
X033573Y007103D01*
X033573Y007447D01*
X033441Y007765D01*
X033198Y008008D01*
X033341Y007865D02*
X033995Y007865D01*
X033995Y007706D02*
X033465Y007706D01*
X033531Y007548D02*
X033995Y007548D01*
X033995Y007389D02*
X033573Y007389D01*
X033573Y007231D02*
X033995Y007231D01*
X033995Y007072D02*
X033560Y007072D01*
X033495Y006914D02*
X033995Y006914D01*
X033995Y006755D02*
X033412Y006755D01*
X033253Y006597D02*
X033995Y006597D01*
X033995Y006438D02*
X032949Y006438D01*
X032467Y006438D02*
X031521Y006438D01*
X031521Y006280D02*
X033995Y006280D01*
X033995Y006121D02*
X031521Y006121D01*
X031521Y005963D02*
X033995Y005963D01*
X033995Y005804D02*
X031521Y005804D01*
X031521Y005646D02*
X033995Y005646D01*
X033995Y005487D02*
X031521Y005487D01*
X031521Y005329D02*
X033995Y005329D01*
X033995Y005170D02*
X031521Y005170D01*
X031521Y005012D02*
X033995Y005012D01*
X033995Y004853D02*
X031521Y004853D01*
X031521Y004695D02*
X033995Y004695D01*
X033995Y004536D02*
X031521Y004536D01*
X031521Y004378D02*
X033995Y004378D01*
X033995Y004219D02*
X031521Y004219D01*
X031521Y004061D02*
X033995Y004061D01*
X033995Y003902D02*
X031521Y003902D01*
X031521Y003744D02*
X033995Y003744D01*
X033995Y003585D02*
X031521Y003585D01*
X031521Y003427D02*
X033995Y003427D01*
X033995Y003268D02*
X031521Y003268D01*
X031521Y003110D02*
X033995Y003110D01*
X033995Y002951D02*
X031521Y002951D01*
X031521Y002793D02*
X033995Y002793D01*
X033995Y002634D02*
X031630Y002634D01*
X031789Y002476D02*
X033846Y002476D01*
X033527Y002317D02*
X032107Y002317D01*
X032151Y002159D02*
X033483Y002159D01*
X033519Y002000D02*
X032116Y002000D01*
X031550Y002000D02*
X024290Y002000D01*
X024616Y002159D02*
X028420Y002159D01*
X028365Y002317D02*
X027727Y002317D01*
X027819Y002476D02*
X028393Y002476D01*
X028483Y002634D02*
X027808Y002634D01*
X027702Y002793D02*
X028483Y002793D01*
X028483Y002951D02*
X027702Y002951D01*
X027702Y003110D02*
X028483Y003110D01*
X028483Y003268D02*
X027702Y003268D01*
X027702Y003427D02*
X028483Y003427D01*
X028483Y003585D02*
X027702Y003585D01*
X027702Y003744D02*
X028483Y003744D01*
X028483Y003902D02*
X027702Y003902D01*
X027702Y004061D02*
X028483Y004061D01*
X028483Y004219D02*
X027702Y004219D01*
X027702Y004378D02*
X028483Y004378D01*
X028483Y004536D02*
X027702Y004536D01*
X027702Y004695D02*
X028483Y004695D01*
X028483Y004853D02*
X027702Y004853D01*
X027702Y005012D02*
X028483Y005012D01*
X028483Y005170D02*
X027702Y005170D01*
X027702Y005329D02*
X028483Y005329D01*
X028483Y005487D02*
X027702Y005487D01*
X027702Y005646D02*
X028483Y005646D01*
X028483Y005804D02*
X027702Y005804D01*
X027702Y005963D02*
X028483Y005963D01*
X028483Y006121D02*
X027702Y006121D01*
X027702Y006280D02*
X028483Y006280D01*
X028483Y006438D02*
X027702Y006438D01*
X027702Y006597D02*
X028483Y006597D01*
X028483Y006755D02*
X027702Y006755D01*
X027702Y006914D02*
X028483Y006914D01*
X028483Y007072D02*
X027702Y007072D01*
X027702Y007231D02*
X028483Y007231D01*
X028483Y007389D02*
X027702Y007389D01*
X027702Y007548D02*
X028395Y007548D01*
X028236Y007706D02*
X027702Y007706D01*
X027702Y007865D02*
X028078Y007865D01*
X027919Y008023D02*
X027702Y008023D01*
X027702Y008182D02*
X027761Y008182D01*
X028010Y008499D02*
X029095Y008499D01*
X029139Y008604D02*
X029007Y008286D01*
X029007Y007942D01*
X029139Y007624D01*
X029382Y007380D01*
X029700Y007249D01*
X030044Y007249D01*
X030362Y007380D01*
X030605Y007624D01*
X030737Y007942D01*
X030737Y008286D01*
X030605Y008604D01*
X030362Y008847D01*
X030044Y008979D01*
X029700Y008979D01*
X029382Y008847D01*
X029139Y008604D01*
X029193Y008657D02*
X027851Y008657D01*
X027693Y008816D02*
X029351Y008816D01*
X029690Y008974D02*
X027534Y008974D01*
X027376Y009133D02*
X030747Y009133D01*
X030588Y009291D02*
X027217Y009291D01*
X027059Y009450D02*
X027571Y009450D01*
X027419Y009513D02*
X027737Y009381D01*
X028081Y009381D01*
X028399Y009513D01*
X028642Y009756D01*
X028774Y010074D01*
X028774Y010418D01*
X028642Y010736D01*
X028399Y010979D01*
X028081Y011111D01*
X027737Y011111D01*
X027419Y010979D01*
X027176Y010736D01*
X027044Y010418D01*
X027044Y010074D01*
X027176Y009756D01*
X027419Y009513D01*
X027323Y009608D02*
X026900Y009608D01*
X026742Y009767D02*
X027171Y009767D01*
X027106Y009925D02*
X026583Y009925D01*
X026425Y010084D02*
X027044Y010084D01*
X027044Y010242D02*
X026266Y010242D01*
X026108Y010401D02*
X027044Y010401D01*
X027102Y010559D02*
X025949Y010559D01*
X025791Y010718D02*
X027168Y010718D01*
X027316Y010876D02*
X025632Y010876D01*
X025616Y011035D02*
X027552Y011035D01*
X028265Y011035D02*
X029783Y011035D01*
X029783Y011193D02*
X025616Y011193D01*
X025616Y011352D02*
X029783Y011352D01*
X029708Y011510D02*
X025616Y011510D01*
X025616Y011669D02*
X027148Y011669D01*
X026989Y011827D02*
X025469Y011827D01*
X025310Y011986D02*
X026831Y011986D01*
X026672Y012144D02*
X022159Y012144D01*
X022001Y012303D02*
X022779Y012303D01*
X022639Y012361D02*
X022957Y012229D01*
X023301Y012229D01*
X023619Y012361D01*
X023862Y012604D01*
X023994Y012922D01*
X023994Y013266D01*
X023862Y013584D01*
X023619Y013827D01*
X023301Y013959D01*
X022957Y013959D01*
X022639Y013827D01*
X022396Y013584D01*
X022264Y013266D01*
X022264Y012922D01*
X022396Y012604D01*
X022639Y012361D01*
X022539Y012461D02*
X021842Y012461D01*
X021684Y012620D02*
X022389Y012620D01*
X022324Y012778D02*
X021525Y012778D01*
X021521Y012937D02*
X022264Y012937D01*
X022264Y013095D02*
X021521Y013095D01*
X021521Y013254D02*
X022264Y013254D01*
X022325Y013412D02*
X021521Y013412D01*
X021521Y013571D02*
X022390Y013571D01*
X022541Y013729D02*
X021521Y013729D01*
X021521Y013888D02*
X022785Y013888D01*
X023473Y013888D02*
X024929Y013888D01*
X024770Y014046D02*
X021521Y014046D01*
X021513Y014680D02*
X034609Y014680D01*
X034767Y014522D02*
X024861Y014522D01*
X024946Y014436D02*
X024946Y014436D01*
X025019Y014363D02*
X034926Y014363D01*
X035084Y014205D02*
X025178Y014205D01*
X025336Y014046D02*
X027574Y014046D01*
X027600Y014057D02*
X027283Y013925D01*
X027039Y013682D01*
X026908Y013364D01*
X026908Y013020D01*
X027039Y012702D01*
X027283Y012459D01*
X027600Y012327D01*
X027945Y012327D01*
X028263Y012459D01*
X028506Y012702D01*
X028638Y013020D01*
X028638Y013364D01*
X028506Y013682D01*
X028263Y013925D01*
X027945Y014057D01*
X027600Y014057D01*
X027971Y014046D02*
X035243Y014046D01*
X035401Y013888D02*
X028300Y013888D01*
X028459Y013729D02*
X035560Y013729D01*
X035688Y013571D02*
X028552Y013571D01*
X028618Y013412D02*
X035688Y013412D01*
X035688Y013254D02*
X028638Y013254D01*
X028638Y013095D02*
X035688Y013095D01*
X035688Y012937D02*
X028603Y012937D01*
X028537Y012778D02*
X035688Y012778D01*
X035688Y012620D02*
X028424Y012620D01*
X028265Y012461D02*
X035688Y012461D01*
X035688Y012303D02*
X027080Y012303D01*
X027238Y012144D02*
X035688Y012144D01*
X035688Y011986D02*
X029798Y011986D01*
X029957Y011827D02*
X035688Y011827D01*
X035688Y011669D02*
X030115Y011669D01*
X030183Y011510D02*
X035688Y011510D01*
X035688Y011352D02*
X030183Y011352D01*
X030183Y011193D02*
X035688Y011193D01*
X035688Y011035D02*
X030183Y011035D01*
X030183Y010876D02*
X035688Y010876D01*
X035688Y010718D02*
X030183Y010718D01*
X030183Y010559D02*
X035688Y010559D01*
X035668Y010401D02*
X030183Y010401D01*
X030203Y010242D02*
X035510Y010242D01*
X035351Y010084D02*
X030362Y010084D01*
X030520Y009925D02*
X035193Y009925D01*
X035034Y009767D02*
X030679Y009767D01*
X030837Y009608D02*
X034876Y009608D01*
X034717Y009450D02*
X030996Y009450D01*
X030905Y008974D02*
X030055Y008974D01*
X030393Y008816D02*
X031064Y008816D01*
X031121Y008657D02*
X030552Y008657D01*
X030649Y008499D02*
X031121Y008499D01*
X031121Y008340D02*
X030715Y008340D01*
X030737Y008182D02*
X031121Y008182D01*
X031121Y008023D02*
X030737Y008023D01*
X030705Y007865D02*
X031121Y007865D01*
X031121Y007706D02*
X030640Y007706D01*
X030530Y007548D02*
X031121Y007548D01*
X031121Y007389D02*
X030371Y007389D01*
X031121Y007231D02*
X028883Y007231D01*
X028883Y007389D02*
X029373Y007389D01*
X029215Y007548D02*
X028883Y007548D01*
X028802Y007706D02*
X029105Y007706D01*
X029039Y007865D02*
X028644Y007865D01*
X028485Y008023D02*
X029007Y008023D01*
X029007Y008182D02*
X028327Y008182D01*
X028168Y008340D02*
X029030Y008340D01*
X028247Y009450D02*
X030430Y009450D01*
X030271Y009608D02*
X028494Y009608D01*
X028647Y009767D02*
X030113Y009767D01*
X029954Y009925D02*
X028712Y009925D01*
X028774Y010084D02*
X029796Y010084D01*
X029783Y010242D02*
X028774Y010242D01*
X028774Y010401D02*
X029783Y010401D01*
X029783Y010559D02*
X028715Y010559D01*
X028650Y010718D02*
X029783Y010718D01*
X029783Y010876D02*
X028502Y010876D01*
X027280Y012461D02*
X026921Y012461D01*
X026763Y012620D02*
X027122Y012620D01*
X027008Y012778D02*
X026604Y012778D01*
X026446Y012937D02*
X026942Y012937D01*
X026908Y013095D02*
X026287Y013095D01*
X026129Y013254D02*
X026908Y013254D01*
X026928Y013412D02*
X025970Y013412D01*
X025812Y013571D02*
X026993Y013571D01*
X027086Y013729D02*
X025653Y013729D01*
X025495Y013888D02*
X027245Y013888D01*
X026038Y012778D02*
X023935Y012778D01*
X023994Y012937D02*
X025880Y012937D01*
X025721Y013095D02*
X023994Y013095D01*
X023994Y013254D02*
X025563Y013254D01*
X025404Y013412D02*
X023934Y013412D01*
X023868Y013571D02*
X025246Y013571D01*
X025087Y013729D02*
X023717Y013729D01*
X023869Y012620D02*
X026197Y012620D01*
X026355Y012461D02*
X023720Y012461D01*
X023479Y012303D02*
X026514Y012303D01*
X024901Y011352D02*
X010187Y011352D01*
X010183Y011193D02*
X024901Y011193D01*
X024901Y011035D02*
X023026Y011035D01*
X023164Y010978D02*
X022846Y011109D01*
X022502Y011109D01*
X022184Y010978D01*
X021941Y010734D01*
X021809Y010416D01*
X021809Y010072D01*
X021941Y009754D01*
X022184Y009511D01*
X022502Y009379D01*
X022846Y009379D01*
X023164Y009511D01*
X023407Y009754D01*
X023539Y010072D01*
X023539Y010416D01*
X023407Y010734D01*
X023164Y010978D01*
X023266Y010876D02*
X024901Y010876D01*
X024901Y010718D02*
X023414Y010718D01*
X023480Y010559D02*
X024901Y010559D01*
X025030Y010401D02*
X023539Y010401D01*
X023539Y010242D02*
X025189Y010242D01*
X025347Y010084D02*
X023539Y010084D01*
X023478Y009925D02*
X025506Y009925D01*
X025664Y009767D02*
X023413Y009767D01*
X023261Y009608D02*
X025823Y009608D01*
X025981Y009450D02*
X023016Y009450D01*
X022332Y009450D02*
X013286Y009450D01*
X013438Y009513D02*
X013120Y009381D01*
X012776Y009381D01*
X012458Y009513D01*
X012215Y009756D01*
X012083Y010074D01*
X012083Y010418D01*
X012215Y010736D01*
X012458Y010979D01*
X012776Y011111D01*
X013120Y011111D01*
X013438Y010979D01*
X013682Y010736D01*
X013813Y010418D01*
X013813Y010074D01*
X013682Y009756D01*
X013438Y009513D01*
X013534Y009608D02*
X022087Y009608D01*
X021936Y009767D02*
X013686Y009767D01*
X013752Y009925D02*
X021870Y009925D01*
X021809Y010084D02*
X013813Y010084D01*
X013813Y010242D02*
X021809Y010242D01*
X021809Y010401D02*
X013813Y010401D01*
X013755Y010559D02*
X021868Y010559D01*
X021934Y010718D02*
X013689Y010718D01*
X013541Y010876D02*
X022083Y010876D01*
X022322Y011035D02*
X013305Y011035D01*
X012592Y011035D02*
X010183Y011035D01*
X010183Y010876D02*
X012355Y010876D01*
X012207Y010718D02*
X010183Y010718D01*
X010183Y010559D02*
X012142Y010559D01*
X012083Y010401D02*
X010183Y010401D01*
X010183Y010242D02*
X012083Y010242D01*
X012083Y010084D02*
X010183Y010084D01*
X010183Y009925D02*
X012145Y009925D01*
X012211Y009767D02*
X010183Y009767D01*
X010183Y009608D02*
X012363Y009608D01*
X012611Y009450D02*
X010183Y009450D01*
X010183Y009291D02*
X026140Y009291D01*
X026298Y009133D02*
X010183Y009133D01*
X010183Y008974D02*
X014729Y008974D01*
X014739Y008979D02*
X014422Y008847D01*
X014178Y008604D01*
X014047Y008286D01*
X014047Y007942D01*
X014178Y007624D01*
X014422Y007380D01*
X014739Y007249D01*
X015084Y007249D01*
X015402Y007380D01*
X015645Y007624D01*
X015777Y007942D01*
X015777Y008286D01*
X015645Y008604D01*
X015402Y008847D01*
X015084Y008979D01*
X014739Y008979D01*
X015094Y008974D02*
X026457Y008974D01*
X026615Y008816D02*
X020898Y008816D01*
X020790Y008861D02*
X021108Y008729D01*
X021351Y008486D01*
X021483Y008168D01*
X021483Y007823D01*
X021351Y007506D01*
X021108Y007262D01*
X020790Y007131D01*
X020446Y007131D01*
X020128Y007262D01*
X019885Y007506D01*
X019753Y007823D01*
X019753Y008168D01*
X019885Y008486D01*
X020128Y008729D01*
X020446Y008861D01*
X020790Y008861D01*
X021179Y008657D02*
X026774Y008657D01*
X026932Y008499D02*
X021338Y008499D01*
X021411Y008340D02*
X027091Y008340D01*
X027249Y008182D02*
X021477Y008182D01*
X021483Y008023D02*
X027302Y008023D01*
X027302Y007865D02*
X021483Y007865D01*
X021434Y007706D02*
X027302Y007706D01*
X027302Y007548D02*
X021369Y007548D01*
X021235Y007389D02*
X027302Y007389D01*
X027302Y007231D02*
X021032Y007231D01*
X020204Y007231D02*
X018612Y007231D01*
X018612Y007103D02*
X018481Y006785D01*
X018237Y006541D01*
X017919Y006410D01*
X017575Y006410D01*
X017257Y006541D01*
X017014Y006785D01*
X016882Y007103D01*
X016882Y007447D01*
X017014Y007765D01*
X017257Y008008D01*
X017575Y008140D01*
X017919Y008140D01*
X018237Y008008D01*
X018481Y007765D01*
X018612Y007447D01*
X018612Y007103D01*
X018600Y007072D02*
X027302Y007072D01*
X027302Y006914D02*
X018534Y006914D01*
X018451Y006755D02*
X027302Y006755D01*
X027302Y006597D02*
X018293Y006597D01*
X017989Y006438D02*
X027302Y006438D01*
X027302Y006280D02*
X010183Y006280D01*
X010183Y006438D02*
X017506Y006438D01*
X017202Y006597D02*
X010183Y006597D01*
X010183Y006755D02*
X017043Y006755D01*
X016961Y006914D02*
X010183Y006914D01*
X010183Y007072D02*
X016895Y007072D01*
X016882Y007231D02*
X010183Y007231D01*
X010183Y007389D02*
X014413Y007389D01*
X014254Y007548D02*
X010183Y007548D01*
X010183Y007706D02*
X014144Y007706D01*
X014078Y007865D02*
X010183Y007865D01*
X010183Y008023D02*
X014047Y008023D01*
X014047Y008182D02*
X010183Y008182D01*
X010183Y008340D02*
X014069Y008340D01*
X014135Y008499D02*
X010183Y008499D01*
X010183Y008657D02*
X014232Y008657D01*
X014390Y008816D02*
X010183Y008816D01*
X009783Y008816D02*
X006049Y008816D01*
X006049Y008974D02*
X009783Y008974D01*
X009783Y009133D02*
X006049Y009133D01*
X006049Y009291D02*
X009783Y009291D01*
X009783Y009450D02*
X006049Y009450D01*
X006049Y009608D02*
X009783Y009608D01*
X009783Y009767D02*
X006049Y009767D01*
X006049Y009925D02*
X009783Y009925D01*
X009783Y010084D02*
X006193Y010084D01*
X006049Y009940D02*
X008097Y011988D01*
X011246Y011988D01*
X011837Y012578D01*
X011954Y012696D01*
X011954Y013002D01*
X012079Y012702D01*
X012322Y012459D01*
X012640Y012327D01*
X012984Y012327D01*
X013302Y012459D01*
X013545Y012702D01*
X013677Y013020D01*
X013677Y013364D01*
X013545Y013682D01*
X013302Y013925D01*
X012984Y014057D01*
X012640Y014057D01*
X012322Y013925D01*
X012079Y013682D01*
X011954Y013382D01*
X011954Y016042D01*
X012664Y016752D01*
X013136Y016752D01*
X013609Y017224D01*
X013726Y017341D01*
X013726Y017647D01*
X013796Y017716D01*
X013844Y017833D01*
X013844Y017960D01*
X013796Y018077D01*
X013706Y018166D01*
X013589Y018215D01*
X013463Y018215D01*
X013346Y018166D01*
X013256Y018077D01*
X013208Y017960D01*
X013208Y017833D01*
X013256Y017716D01*
X013326Y017647D01*
X013326Y017507D01*
X012971Y017152D01*
X012670Y017152D01*
X012802Y017283D01*
X012900Y017283D01*
X013017Y017332D01*
X013107Y017421D01*
X013155Y017538D01*
X013155Y017665D01*
X013135Y017712D01*
X013135Y017783D01*
X013018Y017900D01*
X012948Y017900D01*
X012900Y017919D01*
X012774Y017919D01*
X012657Y017871D01*
X012567Y017781D01*
X012519Y017665D01*
X012519Y017566D01*
X012269Y017316D01*
X012269Y017369D01*
X012221Y017486D01*
X012131Y017576D01*
X012014Y017624D01*
X011888Y017624D01*
X011771Y017576D01*
X011681Y017486D01*
X011633Y017369D01*
X011633Y017271D01*
X011160Y016798D01*
X011160Y013452D01*
X010884Y013175D01*
X007852Y013175D01*
X005255Y010578D01*
X005255Y007940D01*
X004876Y007561D01*
X004842Y007561D01*
X004805Y007650D01*
X004662Y007793D01*
X004474Y007871D01*
X004271Y007871D01*
X004084Y007793D01*
X003940Y007650D01*
X003863Y007462D01*
X003863Y007259D01*
X003940Y007072D01*
X002245Y007072D01*
X002323Y007259D01*
X002323Y007462D01*
X002245Y007650D01*
X002102Y007793D01*
X001914Y007871D01*
X001711Y007871D01*
X001524Y007793D01*
X001380Y007650D01*
X001303Y007462D01*
X001303Y007259D01*
X001380Y007072D01*
X001107Y007072D01*
X001107Y006914D02*
X001560Y006914D01*
X001524Y006929D02*
X001711Y006851D01*
X001914Y006851D01*
X002102Y006929D01*
X002245Y007072D01*
X002311Y007231D02*
X003875Y007231D01*
X003863Y007389D02*
X002323Y007389D01*
X002287Y007548D02*
X003898Y007548D01*
X003997Y007706D02*
X002189Y007706D01*
X001929Y007865D02*
X004256Y007865D01*
X004489Y007865D02*
X005180Y007865D01*
X005255Y008023D02*
X001107Y008023D01*
X001107Y007865D02*
X001696Y007865D01*
X001437Y007706D02*
X001107Y007706D01*
X001107Y007548D02*
X001338Y007548D01*
X001303Y007389D02*
X001107Y007389D01*
X001107Y007231D02*
X001315Y007231D01*
X001380Y007072D02*
X001524Y006929D01*
X001602Y006698D02*
X001524Y006659D01*
X001454Y006608D01*
X001393Y006546D01*
X001342Y006476D01*
X001303Y006399D01*
X001276Y006317D01*
X001263Y006231D01*
X001263Y006208D01*
X001793Y006208D01*
X001793Y006738D01*
X001769Y006738D01*
X001684Y006725D01*
X001602Y006698D01*
X001444Y006597D02*
X001107Y006597D01*
X001107Y006755D02*
X005452Y006755D01*
X005452Y006597D02*
X004742Y006597D01*
X004731Y006608D02*
X004661Y006659D01*
X004584Y006698D01*
X004502Y006725D01*
X004416Y006738D01*
X004393Y006738D01*
X004393Y006208D01*
X004923Y006208D01*
X004923Y006231D01*
X004909Y006317D01*
X004882Y006399D01*
X004843Y006476D01*
X004792Y006546D01*
X004731Y006608D01*
X004863Y006438D02*
X005452Y006438D01*
X005452Y006280D02*
X004915Y006280D01*
X004923Y006168D02*
X004393Y006168D01*
X004393Y006208D01*
X004353Y006208D01*
X004353Y006738D01*
X004329Y006738D01*
X004244Y006725D01*
X004162Y006698D01*
X004084Y006659D01*
X004014Y006608D01*
X003953Y006546D01*
X003902Y006476D01*
X003863Y006399D01*
X003836Y006317D01*
X003823Y006231D01*
X003823Y006208D01*
X004353Y006208D01*
X004353Y006168D01*
X004393Y006168D01*
X004393Y005638D01*
X004416Y005638D01*
X004502Y005652D01*
X004584Y005678D01*
X004661Y005718D01*
X004731Y005769D01*
X004792Y005830D01*
X004843Y005900D01*
X004882Y005977D01*
X004909Y006059D01*
X004923Y006145D01*
X004923Y006168D01*
X004919Y006121D02*
X005452Y006121D01*
X005452Y005963D02*
X004875Y005963D01*
X004767Y005804D02*
X005452Y005804D01*
X005452Y005646D02*
X004464Y005646D01*
X004393Y005646D02*
X004353Y005646D01*
X004353Y005638D02*
X004353Y006168D01*
X003823Y006168D01*
X003823Y006145D01*
X003836Y006059D01*
X003863Y005977D01*
X003902Y005900D01*
X003953Y005830D01*
X004014Y005769D01*
X004084Y005718D01*
X004162Y005678D01*
X004244Y005652D01*
X004329Y005638D01*
X004353Y005638D01*
X004281Y005646D02*
X001904Y005646D01*
X001942Y005652D02*
X002024Y005678D01*
X002101Y005718D01*
X002171Y005769D01*
X002232Y005830D01*
X002283Y005900D01*
X002322Y005977D01*
X002349Y006059D01*
X002363Y006145D01*
X002363Y006168D01*
X001833Y006168D01*
X001833Y006208D01*
X002363Y006208D01*
X002363Y006231D01*
X002349Y006317D01*
X002322Y006399D01*
X002283Y006476D01*
X002232Y006546D01*
X002171Y006608D01*
X002101Y006659D01*
X002024Y006698D01*
X001942Y006725D01*
X001856Y006738D01*
X001833Y006738D01*
X001833Y006208D01*
X001793Y006208D01*
X001793Y006168D01*
X001833Y006168D01*
X001833Y005638D01*
X001856Y005638D01*
X001942Y005652D01*
X001833Y005646D02*
X001793Y005646D01*
X001793Y005638D02*
X001793Y006168D01*
X001263Y006168D01*
X001263Y006145D01*
X001276Y006059D01*
X001303Y005977D01*
X001342Y005900D01*
X001393Y005830D01*
X001454Y005769D01*
X001524Y005718D01*
X001602Y005678D01*
X001684Y005652D01*
X001769Y005638D01*
X001793Y005638D01*
X001721Y005646D02*
X001107Y005646D01*
X001107Y005804D02*
X001419Y005804D01*
X001310Y005963D02*
X001107Y005963D01*
X001107Y006121D02*
X001266Y006121D01*
X001270Y006280D02*
X001107Y006280D01*
X001107Y006438D02*
X001323Y006438D01*
X001793Y006438D02*
X001833Y006438D01*
X001833Y006280D02*
X001793Y006280D01*
X001793Y006121D02*
X001833Y006121D01*
X001833Y005963D02*
X001793Y005963D01*
X001793Y005804D02*
X001833Y005804D01*
X002207Y005804D02*
X003979Y005804D01*
X003870Y005963D02*
X002315Y005963D01*
X002359Y006121D02*
X003826Y006121D01*
X003830Y006280D02*
X002355Y006280D01*
X002303Y006438D02*
X003883Y006438D01*
X004004Y006597D02*
X002182Y006597D01*
X002066Y006914D02*
X004120Y006914D01*
X004084Y006929D02*
X004271Y006851D01*
X004474Y006851D01*
X004662Y006929D01*
X004805Y007072D01*
X004842Y007161D01*
X005042Y007161D01*
X005452Y007571D01*
X005452Y005184D01*
X004876Y004608D01*
X004842Y004608D01*
X004805Y004697D01*
X004662Y004840D01*
X004474Y004918D01*
X004271Y004918D01*
X004084Y004840D01*
X003940Y004697D01*
X003863Y004510D01*
X003863Y004307D01*
X003940Y004119D01*
X004084Y003976D01*
X004271Y003898D01*
X004474Y003898D01*
X004662Y003976D01*
X004805Y004119D01*
X004842Y004208D01*
X005042Y004208D01*
X005159Y004325D01*
X005649Y004815D01*
X005649Y003216D01*
X004398Y001965D01*
X004271Y001965D01*
X004084Y001888D01*
X003940Y001744D01*
X003863Y001557D01*
X003863Y001354D01*
X003940Y001166D01*
X004084Y001023D01*
X004271Y000945D01*
X004474Y000945D01*
X004662Y001023D01*
X004805Y001166D01*
X004883Y001354D01*
X004883Y001557D01*
X004805Y001744D01*
X004774Y001775D01*
X005932Y002933D01*
X006049Y003050D01*
X006049Y009940D01*
X006351Y010242D02*
X009783Y010242D01*
X009783Y010401D02*
X006510Y010401D01*
X006668Y010559D02*
X009783Y010559D01*
X009783Y010718D02*
X006827Y010718D01*
X006985Y010876D02*
X009783Y010876D01*
X009783Y011035D02*
X007144Y011035D01*
X007302Y011193D02*
X009783Y011193D01*
X009778Y011352D02*
X007461Y011352D01*
X007619Y011510D02*
X009674Y011510D01*
X009668Y011669D02*
X007778Y011669D01*
X007936Y011827D02*
X009763Y011827D01*
X010202Y011827D02*
X021438Y011827D01*
X021280Y011986D02*
X008095Y011986D01*
X007455Y012778D02*
X006092Y012778D01*
X005933Y012620D02*
X007297Y012620D01*
X007138Y012461D02*
X005778Y012461D01*
X005774Y012450D02*
X005794Y012500D01*
X005813Y012500D01*
X006286Y012972D01*
X006403Y013089D01*
X006403Y014743D01*
X006601Y014941D01*
X010097Y014941D01*
X010255Y014782D01*
X010255Y014684D01*
X010303Y014567D01*
X010393Y014477D01*
X010510Y014429D01*
X010636Y014429D01*
X010753Y014477D01*
X010843Y014567D01*
X010891Y014684D01*
X010891Y014810D01*
X010843Y014927D01*
X010753Y015017D01*
X010636Y015065D01*
X010538Y015065D01*
X010262Y015341D01*
X006435Y015341D01*
X006003Y014909D01*
X006003Y013255D01*
X005735Y012987D01*
X005650Y013073D01*
X005488Y013140D01*
X004713Y013140D01*
X004551Y013073D01*
X004428Y012949D01*
X004361Y012787D01*
X004361Y012728D01*
X004347Y012762D01*
X004277Y012831D01*
X004277Y013877D01*
X008491Y018090D01*
X008608Y018207D01*
X008608Y018237D01*
X008677Y018307D01*
X008726Y018424D01*
X008726Y018550D01*
X008677Y018667D01*
X008588Y018757D01*
X008471Y018805D01*
X008344Y018805D01*
X008228Y018757D01*
X008138Y018667D01*
X008090Y018550D01*
X008090Y018424D01*
X008138Y018307D01*
X008140Y018305D01*
X008017Y018183D01*
X008017Y018373D01*
X007938Y018452D01*
X007938Y018550D01*
X007890Y018667D01*
X007801Y018757D01*
X007684Y018805D01*
X007557Y018805D01*
X007440Y018757D01*
X007427Y018743D01*
X007427Y018798D01*
X007585Y018956D01*
X007684Y018956D01*
X007801Y019005D01*
X007890Y019094D01*
X007938Y019211D01*
X007938Y019338D01*
X007890Y019455D01*
X007801Y019544D01*
X007684Y019593D01*
X007557Y019593D01*
X007440Y019544D01*
X007351Y019455D01*
X007302Y019338D01*
X007302Y019239D01*
X007144Y019081D01*
X007027Y018964D01*
X007027Y017979D01*
X003813Y014766D01*
X002999Y014766D01*
X002978Y014815D01*
X002855Y014939D01*
X002693Y015006D01*
X001918Y015006D01*
X001756Y014939D01*
X001632Y014815D01*
X001565Y014653D01*
X001565Y014478D01*
X001632Y014317D01*
X001756Y014193D01*
X001918Y014126D01*
X002693Y014126D01*
X002855Y014193D01*
X002978Y014317D01*
X002999Y014366D01*
X003807Y014366D01*
X003483Y014042D01*
X003483Y011877D01*
X003372Y011766D01*
X002999Y011766D01*
X002978Y011815D01*
X002855Y011939D01*
X002693Y012006D01*
X001918Y012006D01*
X001756Y011939D01*
X001632Y011815D01*
X001565Y011653D01*
X001565Y011478D01*
X001632Y011317D01*
X001756Y011193D01*
X001918Y011126D01*
X002693Y011126D01*
X002855Y011193D01*
X005870Y011193D01*
X005712Y011035D02*
X001107Y011035D01*
X001107Y011193D02*
X001756Y011193D01*
X001618Y011352D02*
X001107Y011352D01*
X001107Y011510D02*
X001565Y011510D01*
X001572Y011669D02*
X001107Y011669D01*
X001107Y011827D02*
X001644Y011827D01*
X001869Y011986D02*
X001107Y011986D01*
X001107Y012144D02*
X001873Y012144D01*
X001918Y012126D02*
X002693Y012126D01*
X002855Y012193D01*
X002978Y012317D01*
X003045Y012478D01*
X003045Y012653D01*
X002978Y012815D01*
X002855Y012939D01*
X002693Y013006D01*
X001918Y013006D01*
X001756Y012939D01*
X001632Y012815D01*
X001565Y012653D01*
X001565Y012478D01*
X001632Y012317D01*
X001756Y012193D01*
X001918Y012126D01*
X001646Y012303D02*
X001107Y012303D01*
X001107Y012461D02*
X001572Y012461D01*
X001565Y012620D02*
X001107Y012620D01*
X001107Y012778D02*
X001617Y012778D01*
X001754Y012937D02*
X001107Y012937D01*
X001107Y013095D02*
X001908Y013095D01*
X001893Y013098D02*
X001968Y013086D01*
X002285Y013086D01*
X002285Y013546D01*
X001525Y013546D01*
X001525Y013528D01*
X001537Y013453D01*
X001561Y013382D01*
X001595Y013314D01*
X001639Y013253D01*
X001693Y013200D01*
X001754Y013155D01*
X001821Y013121D01*
X001893Y013098D01*
X001639Y013254D02*
X001107Y013254D01*
X001107Y013412D02*
X001551Y013412D01*
X001525Y013586D02*
X002285Y013586D01*
X002285Y013546D01*
X002325Y013546D01*
X002325Y013086D01*
X002643Y013086D01*
X002718Y013098D01*
X002790Y013121D01*
X002857Y013155D01*
X002918Y013200D01*
X002971Y013253D01*
X003016Y013314D01*
X003050Y013382D01*
X003074Y013453D01*
X003085Y013528D01*
X003085Y013546D01*
X002325Y013546D01*
X002325Y013586D01*
X002285Y013586D01*
X002285Y014046D01*
X001968Y014046D01*
X001893Y014034D01*
X001821Y014011D01*
X001754Y013976D01*
X001693Y013932D01*
X001639Y013879D01*
X001595Y013817D01*
X001561Y013750D01*
X001537Y013678D01*
X001525Y013604D01*
X001525Y013586D01*
X001554Y013729D02*
X001107Y013729D01*
X001107Y013571D02*
X002285Y013571D01*
X002325Y013571D02*
X003483Y013571D01*
X003483Y013729D02*
X003057Y013729D01*
X003050Y013750D02*
X003016Y013817D01*
X002971Y013879D01*
X002918Y013932D01*
X002857Y013976D01*
X002790Y014011D01*
X002718Y014034D01*
X002643Y014046D01*
X002325Y014046D01*
X002325Y013586D01*
X003085Y013586D01*
X003085Y013604D01*
X003074Y013678D01*
X003050Y013750D01*
X002962Y013888D02*
X003483Y013888D01*
X003487Y014046D02*
X001107Y014046D01*
X001107Y013888D02*
X001648Y013888D01*
X001744Y014205D02*
X001107Y014205D01*
X001107Y014363D02*
X001613Y014363D01*
X001565Y014522D02*
X001107Y014522D01*
X001107Y014680D02*
X001576Y014680D01*
X001656Y014839D02*
X001107Y014839D01*
X001107Y014997D02*
X001897Y014997D01*
X001918Y015126D02*
X002693Y015126D01*
X002855Y015193D01*
X002978Y015317D01*
X003045Y015478D01*
X003045Y015653D01*
X002978Y015815D01*
X002855Y015939D01*
X002693Y016006D01*
X001918Y016006D01*
X001756Y015939D01*
X001632Y015815D01*
X001565Y015653D01*
X001565Y015478D01*
X001632Y015317D01*
X001756Y015193D01*
X001918Y015126D01*
X001846Y015156D02*
X001107Y015156D01*
X001107Y015314D02*
X001635Y015314D01*
X001568Y015473D02*
X001107Y015473D01*
X001107Y015631D02*
X001565Y015631D01*
X001622Y015790D02*
X001107Y015790D01*
X001107Y015948D02*
X001779Y015948D01*
X001107Y016107D02*
X005154Y016107D01*
X005312Y016265D02*
X001107Y016265D01*
X001107Y016424D02*
X005471Y016424D01*
X005629Y016582D02*
X001107Y016582D01*
X001107Y016741D02*
X005788Y016741D01*
X005946Y016899D02*
X001107Y016899D01*
X001107Y017058D02*
X006105Y017058D01*
X006263Y017216D02*
X001107Y017216D01*
X001107Y017375D02*
X006422Y017375D01*
X006580Y017533D02*
X001107Y017533D01*
X001107Y017692D02*
X006739Y017692D01*
X006897Y017850D02*
X001107Y017850D01*
X001107Y018009D02*
X002755Y018009D01*
X002742Y018167D02*
X001107Y018167D01*
X001107Y018326D02*
X002742Y018326D01*
X002742Y018484D02*
X001107Y018484D01*
X001107Y018643D02*
X002742Y018643D01*
X002742Y018801D02*
X001107Y018801D01*
X001107Y018960D02*
X002742Y018960D01*
X002742Y019118D02*
X001107Y019118D01*
X001107Y019277D02*
X002742Y019277D01*
X002742Y019435D02*
X001107Y019435D01*
X001107Y019594D02*
X002742Y019594D01*
X002742Y019752D02*
X001107Y019752D01*
X001107Y019911D02*
X002742Y019911D01*
X002742Y020069D02*
X001107Y020069D01*
X001107Y020228D02*
X002742Y020228D01*
X002742Y020386D02*
X001107Y020386D01*
X001107Y020545D02*
X002759Y020545D01*
X001107Y020703D02*
X017285Y020703D01*
X017110Y020862D02*
X001107Y020862D01*
X001107Y021020D02*
X016988Y021020D01*
X016923Y021179D02*
X001107Y021179D01*
X001107Y021337D02*
X005347Y021337D01*
X005563Y021337D02*
X016882Y021337D01*
X016882Y021496D02*
X015262Y021496D01*
X015402Y021553D02*
X015645Y021797D01*
X015777Y022115D01*
X015777Y022459D01*
X015645Y022777D01*
X015402Y023020D01*
X015084Y023152D01*
X014739Y023152D01*
X014422Y023020D01*
X014178Y022777D01*
X014047Y022459D01*
X014047Y022115D01*
X014178Y021797D01*
X014422Y021553D01*
X014739Y021422D01*
X015084Y021422D01*
X015402Y021553D01*
X015502Y021654D02*
X016897Y021654D01*
X016962Y021813D02*
X015651Y021813D01*
X015717Y021971D02*
X017047Y021971D01*
X017206Y022130D02*
X015777Y022130D01*
X015777Y022288D02*
X017516Y022288D01*
X017979Y022288D02*
X019753Y022288D01*
X019753Y022130D02*
X018289Y022130D01*
X018447Y021971D02*
X019763Y021971D01*
X019829Y021813D02*
X018532Y021813D01*
X018598Y021654D02*
X019909Y021654D01*
X020068Y021496D02*
X018612Y021496D01*
X018612Y021337D02*
X020365Y021337D01*
X019797Y022447D02*
X015777Y022447D01*
X015716Y022605D02*
X019862Y022605D01*
X019990Y022764D02*
X015650Y022764D01*
X015499Y022922D02*
X020177Y022922D01*
X021059Y022922D02*
X021839Y022922D01*
X021681Y023081D02*
X015255Y023081D01*
X015458Y023398D02*
X011624Y023398D01*
X011679Y023239D02*
X015617Y023239D01*
X015300Y023556D02*
X013125Y023556D01*
X013120Y023554D02*
X013438Y023686D01*
X013682Y023929D01*
X013813Y024247D01*
X013813Y024591D01*
X013682Y024909D01*
X013438Y025153D01*
X013120Y025284D01*
X012776Y025284D01*
X012458Y025153D01*
X012215Y024909D01*
X012083Y024591D01*
X012083Y024247D01*
X012215Y023929D01*
X012458Y023686D01*
X012776Y023554D01*
X013120Y023554D01*
X012772Y023556D02*
X011560Y023556D01*
X011560Y023715D02*
X012430Y023715D01*
X012271Y023873D02*
X011560Y023873D01*
X011560Y024032D02*
X012173Y024032D01*
X012107Y024190D02*
X011560Y024190D01*
X011560Y024349D02*
X012083Y024349D01*
X012083Y024507D02*
X011560Y024507D01*
X011560Y024666D02*
X012114Y024666D01*
X012180Y024824D02*
X011560Y024824D01*
X011560Y024983D02*
X012288Y024983D01*
X012447Y025141D02*
X011605Y025141D01*
X011763Y025300D02*
X013556Y025300D01*
X013450Y025141D02*
X013715Y025141D01*
X013608Y024983D02*
X013873Y024983D01*
X013717Y024824D02*
X014032Y024824D01*
X014190Y024666D02*
X013782Y024666D01*
X013813Y024507D02*
X014349Y024507D01*
X014507Y024349D02*
X013813Y024349D01*
X013790Y024190D02*
X014666Y024190D01*
X014824Y024032D02*
X013724Y024032D01*
X013625Y023873D02*
X014983Y023873D01*
X015141Y023715D02*
X013467Y023715D01*
X014173Y022764D02*
X006077Y022764D01*
X005919Y022605D02*
X014107Y022605D01*
X014047Y022447D02*
X005760Y022447D01*
X005655Y022288D02*
X014047Y022288D01*
X014047Y022130D02*
X005655Y022130D01*
X005655Y021971D02*
X014106Y021971D01*
X014172Y021813D02*
X005726Y021813D01*
X005773Y021654D02*
X014321Y021654D01*
X014561Y021496D02*
X005741Y021496D01*
X005169Y021496D02*
X001107Y021496D01*
X001107Y021654D02*
X005137Y021654D01*
X005184Y021813D02*
X001107Y021813D01*
X001107Y021971D02*
X005255Y021971D01*
X005255Y022130D02*
X001107Y022130D01*
X001107Y022288D02*
X005255Y022288D01*
X005255Y022447D02*
X001107Y022447D01*
X001107Y022605D02*
X005353Y022605D01*
X005296Y022821D02*
X005341Y022833D01*
X005382Y022857D01*
X005416Y022890D01*
X005440Y022931D01*
X005452Y022977D01*
X005452Y024116D01*
X004157Y024116D01*
X004157Y024276D01*
X003997Y024276D01*
X003997Y025571D01*
X002858Y025571D01*
X002813Y025558D01*
X002772Y025535D01*
X002738Y025501D01*
X002714Y025460D01*
X002702Y025414D01*
X002702Y024276D01*
X003997Y024276D01*
X003997Y024116D01*
X002702Y024116D01*
X002702Y022977D01*
X002714Y022931D01*
X002738Y022890D01*
X002772Y022857D01*
X002813Y022833D01*
X002858Y022821D01*
X003997Y022821D01*
X003997Y024116D01*
X004157Y024116D01*
X004157Y022821D01*
X005296Y022821D01*
X005434Y022922D02*
X005670Y022922D01*
X005512Y022764D02*
X001107Y022764D01*
X001107Y022922D02*
X002720Y022922D01*
X002702Y023081D02*
X001107Y023081D01*
X001107Y023239D02*
X002702Y023239D01*
X002702Y023398D02*
X001107Y023398D01*
X001107Y023556D02*
X002702Y023556D01*
X002702Y023715D02*
X001107Y023715D01*
X001107Y023873D02*
X002702Y023873D01*
X002702Y024032D02*
X001107Y024032D01*
X001107Y024190D02*
X003997Y024190D01*
X003997Y024032D02*
X004157Y024032D01*
X004157Y024190D02*
X005846Y024190D01*
X005846Y024032D02*
X005452Y024032D01*
X005452Y023873D02*
X005846Y023873D01*
X005846Y023715D02*
X005452Y023715D01*
X005452Y023556D02*
X005846Y023556D01*
X005846Y023398D02*
X005452Y023398D01*
X005452Y023239D02*
X005846Y023239D01*
X005829Y023081D02*
X005452Y023081D01*
X006246Y023081D02*
X011070Y023081D01*
X011042Y023239D02*
X006246Y023239D01*
X006246Y023398D02*
X011097Y023398D01*
X011160Y023556D02*
X006246Y023556D01*
X006246Y023715D02*
X011160Y023715D01*
X011160Y023873D02*
X006246Y023873D01*
X006246Y024032D02*
X011160Y024032D01*
X011160Y024190D02*
X006246Y024190D01*
X006246Y024349D02*
X011160Y024349D01*
X011160Y024507D02*
X006246Y024507D01*
X006246Y024666D02*
X011160Y024666D01*
X011160Y024824D02*
X006246Y024824D01*
X006246Y024983D02*
X011160Y024983D01*
X011160Y025141D02*
X006246Y025141D01*
X006246Y025300D02*
X011197Y025300D01*
X011356Y025458D02*
X006246Y025458D01*
X006246Y025617D02*
X011514Y025617D01*
X011673Y025775D02*
X006246Y025775D01*
X006246Y025934D02*
X011535Y025934D01*
X011440Y026092D02*
X006246Y026092D01*
X006246Y026251D02*
X011446Y026251D01*
X011549Y026409D02*
X006246Y026409D01*
X006246Y026568D02*
X012477Y026568D01*
X012228Y026726D02*
X006246Y026726D01*
X006246Y026885D02*
X012075Y026885D01*
X012009Y027043D02*
X011462Y027043D01*
X011259Y027043D02*
X006246Y027043D01*
X006246Y027202D02*
X011076Y027202D01*
X011042Y027360D02*
X006117Y027360D01*
X005958Y027519D02*
X011088Y027519D01*
X011410Y027677D02*
X005800Y027677D01*
X005641Y027836D02*
X011568Y027836D01*
X011727Y027994D02*
X005483Y027994D01*
X005412Y028153D02*
X011885Y028153D01*
X011975Y027677D02*
X012005Y027677D01*
X011947Y027519D02*
X011817Y027519D01*
X011947Y027360D02*
X011679Y027360D01*
X011645Y027202D02*
X011947Y027202D01*
X011959Y026409D02*
X021817Y026409D01*
X022066Y026726D02*
X022447Y026726D01*
X022351Y026885D02*
X021907Y026885D01*
X021749Y027043D02*
X022286Y027043D01*
X022264Y027202D02*
X021590Y027202D01*
X021432Y027360D02*
X022264Y027360D01*
X022297Y027519D02*
X021273Y027519D01*
X021115Y027677D02*
X022363Y027677D01*
X022474Y027836D02*
X020956Y027836D01*
X019756Y028470D02*
X012768Y028470D01*
X012926Y028628D02*
X019598Y028628D01*
X019184Y030847D02*
X016590Y030847D01*
X016913Y031006D02*
X018948Y031006D01*
X018801Y031164D02*
X017071Y031164D01*
X017162Y031323D02*
X018735Y031323D01*
X018677Y031481D02*
X017227Y031481D01*
X017245Y031640D02*
X018677Y031640D01*
X018677Y031798D02*
X017245Y031798D01*
X017209Y031957D02*
X018739Y031957D01*
X018805Y032115D02*
X017143Y032115D01*
X017026Y032274D02*
X018958Y032274D01*
X019206Y032432D02*
X016865Y032432D01*
X016171Y030847D02*
X014365Y030847D01*
X012975Y032274D02*
X012129Y032274D01*
X012211Y032432D02*
X013133Y032432D01*
X013292Y032591D02*
X012211Y032591D01*
X012211Y032749D02*
X013450Y032749D01*
X013609Y032908D02*
X012211Y032908D01*
X012211Y033066D02*
X013767Y033066D01*
X013926Y033225D02*
X012211Y033225D01*
X012211Y033383D02*
X014084Y033383D01*
X013397Y034176D02*
X012211Y034176D01*
X012211Y034334D02*
X013307Y034334D01*
X013307Y034493D02*
X012211Y034493D01*
X012211Y034651D02*
X013361Y034651D01*
X013177Y036078D02*
X016471Y036078D01*
X012816Y032115D02*
X011971Y032115D01*
X011812Y031957D02*
X012658Y031957D01*
X012499Y031798D02*
X011654Y031798D01*
X011495Y031640D02*
X012341Y031640D01*
X012182Y031481D02*
X011337Y031481D01*
X011077Y031957D02*
X010070Y031957D01*
X009965Y032115D02*
X011235Y032115D01*
X011394Y032274D02*
X009912Y032274D01*
X009697Y032432D02*
X011552Y032432D01*
X011691Y032591D02*
X006699Y032591D01*
X006699Y032749D02*
X011691Y032749D01*
X011691Y032908D02*
X006699Y032908D01*
X006699Y033066D02*
X011691Y033066D01*
X011691Y033225D02*
X006699Y033225D01*
X006699Y033383D02*
X011691Y033383D01*
X011691Y033542D02*
X006699Y033542D01*
X006699Y033700D02*
X011691Y033700D01*
X011691Y033859D02*
X006772Y033859D01*
X006815Y034017D02*
X011691Y034017D01*
X011691Y034176D02*
X006789Y034176D01*
X006675Y034334D02*
X011691Y034334D01*
X011691Y034493D02*
X004280Y034493D01*
X004439Y034651D02*
X011691Y034651D01*
X011691Y034810D02*
X004544Y034810D01*
X004609Y034968D02*
X011691Y034968D01*
X011691Y035127D02*
X004653Y035127D01*
X004653Y035285D02*
X011697Y035285D01*
X011808Y035444D02*
X004653Y035444D01*
X004594Y035602D02*
X011966Y035602D01*
X009481Y032432D02*
X006699Y032432D01*
X006699Y032274D02*
X009266Y032274D01*
X009213Y032115D02*
X006761Y032115D01*
X007084Y031957D02*
X009228Y031957D01*
X009328Y031798D02*
X007190Y031798D01*
X007209Y031640D02*
X009651Y031640D01*
X009810Y031481D02*
X007159Y031481D01*
X006963Y031323D02*
X012024Y031323D01*
X011865Y031164D02*
X001107Y031164D01*
X001107Y031006D02*
X007409Y031006D01*
X007221Y030847D02*
X001107Y030847D01*
X001107Y030689D02*
X007102Y030689D01*
X007037Y030530D02*
X001107Y030530D01*
X001107Y030372D02*
X002744Y030372D01*
X002742Y030213D02*
X001107Y030213D01*
X001107Y030055D02*
X002742Y030055D01*
X002742Y029896D02*
X001107Y029896D01*
X001107Y029738D02*
X002742Y029738D01*
X002742Y029579D02*
X001107Y029579D01*
X001107Y029421D02*
X002742Y029421D01*
X002742Y029262D02*
X001107Y029262D01*
X001107Y029104D02*
X002742Y029104D01*
X002742Y028945D02*
X001107Y028945D01*
X001107Y028787D02*
X002742Y028787D01*
X002742Y028628D02*
X001107Y028628D01*
X001107Y028470D02*
X002742Y028470D01*
X002742Y028311D02*
X001107Y028311D01*
X001107Y028153D02*
X002742Y028153D01*
X002742Y027994D02*
X001107Y027994D01*
X001107Y027836D02*
X002771Y027836D01*
X001107Y027677D02*
X005234Y027677D01*
X005392Y027519D02*
X001107Y027519D01*
X001107Y027360D02*
X005551Y027360D01*
X005709Y027202D02*
X001107Y027202D01*
X001107Y027043D02*
X005846Y027043D01*
X005846Y026885D02*
X001107Y026885D01*
X001107Y026726D02*
X005846Y026726D01*
X005846Y026568D02*
X001107Y026568D01*
X001107Y026409D02*
X005846Y026409D01*
X005846Y026251D02*
X001107Y026251D01*
X001107Y026092D02*
X005846Y026092D01*
X005846Y025934D02*
X001107Y025934D01*
X001107Y025775D02*
X005846Y025775D01*
X005846Y025617D02*
X001107Y025617D01*
X001107Y025458D02*
X002714Y025458D01*
X002702Y025300D02*
X001107Y025300D01*
X001107Y025141D02*
X002702Y025141D01*
X002702Y024983D02*
X001107Y024983D01*
X001107Y024824D02*
X002702Y024824D01*
X002702Y024666D02*
X001107Y024666D01*
X001107Y024507D02*
X002702Y024507D01*
X002702Y024349D02*
X001107Y024349D01*
X003997Y024349D02*
X004157Y024349D01*
X004157Y024276D02*
X004157Y025571D01*
X005296Y025571D01*
X005341Y025558D01*
X005382Y025535D01*
X005416Y025501D01*
X005440Y025460D01*
X005452Y025414D01*
X005452Y024276D01*
X004157Y024276D01*
X004157Y024507D02*
X003997Y024507D01*
X003997Y024666D02*
X004157Y024666D01*
X004157Y024824D02*
X003997Y024824D01*
X003997Y024983D02*
X004157Y024983D01*
X004157Y025141D02*
X003997Y025141D01*
X003997Y025300D02*
X004157Y025300D01*
X004157Y025458D02*
X003997Y025458D01*
X005440Y025458D02*
X005846Y025458D01*
X005846Y025300D02*
X005452Y025300D01*
X005452Y025141D02*
X005846Y025141D01*
X005846Y024983D02*
X005452Y024983D01*
X005452Y024824D02*
X005846Y024824D01*
X005846Y024666D02*
X005452Y024666D01*
X005452Y024507D02*
X005846Y024507D01*
X005846Y024349D02*
X005452Y024349D01*
X004157Y023873D02*
X003997Y023873D01*
X003997Y023715D02*
X004157Y023715D01*
X004157Y023556D02*
X003997Y023556D01*
X003997Y023398D02*
X004157Y023398D01*
X004157Y023239D02*
X003997Y023239D01*
X003997Y023081D02*
X004157Y023081D01*
X004157Y022922D02*
X003997Y022922D01*
X006236Y022922D02*
X011228Y022922D01*
X011493Y022922D02*
X014324Y022922D01*
X014568Y023081D02*
X011651Y023081D01*
X011922Y025458D02*
X013398Y025458D01*
X013239Y025617D02*
X012080Y025617D01*
X010732Y028311D02*
X005412Y028311D01*
X005412Y028470D02*
X010649Y028470D01*
X010665Y028628D02*
X005412Y028628D01*
X004280Y031323D02*
X006703Y031323D01*
X008225Y031006D02*
X011707Y031006D01*
X011548Y030847D02*
X008413Y030847D01*
X008532Y030689D02*
X011390Y030689D01*
X011231Y030530D02*
X008598Y030530D01*
X008627Y030372D02*
X011073Y030372D01*
X010914Y030213D02*
X008627Y030213D01*
X008593Y030055D02*
X010756Y030055D01*
X010727Y029896D02*
X008527Y029896D01*
X008402Y029738D02*
X010727Y029738D01*
X010727Y029579D02*
X008198Y029579D01*
X012059Y028628D02*
X012361Y028628D01*
X012519Y028787D02*
X012100Y028787D01*
X012259Y028945D02*
X012678Y028945D01*
X012836Y029104D02*
X012417Y029104D01*
X006203Y034334D02*
X003965Y034334D01*
X002795Y032171D02*
X002590Y032171D01*
X002590Y031676D01*
X002590Y031676D01*
X003085Y031676D01*
X003085Y031471D01*
X002795Y031181D01*
X002590Y031181D01*
X002590Y031676D01*
X003085Y031676D01*
X003085Y031881D01*
X002795Y032171D01*
X002850Y032115D02*
X003861Y032115D01*
X003627Y031957D02*
X003009Y031957D01*
X003085Y031798D02*
X003548Y031798D01*
X003535Y031640D02*
X003085Y031640D01*
X003085Y031481D02*
X003578Y031481D01*
X003699Y031323D02*
X002936Y031323D01*
X002590Y031323D02*
X002590Y031323D01*
X002590Y031181D02*
X002590Y031676D01*
X002590Y031676D01*
X002590Y031676D01*
X002590Y032171D01*
X002385Y032171D01*
X002095Y031881D01*
X002095Y031676D01*
X002095Y031471D01*
X002385Y031181D01*
X002590Y031181D01*
X002590Y031481D02*
X002590Y031481D01*
X002590Y031640D02*
X002590Y031640D01*
X002590Y031676D02*
X002095Y031676D01*
X002590Y031676D01*
X002590Y031676D01*
X002590Y031798D02*
X002590Y031798D01*
X002590Y031957D02*
X002590Y031957D01*
X002590Y032115D02*
X002590Y032115D01*
X002329Y032115D02*
X001107Y032115D01*
X001107Y031957D02*
X002170Y031957D01*
X002095Y031798D02*
X001107Y031798D01*
X001107Y031640D02*
X002095Y031640D01*
X002095Y031481D02*
X001107Y031481D01*
X001107Y031323D02*
X002243Y031323D01*
X001565Y035761D02*
X001107Y035761D01*
X001107Y035919D02*
X001414Y035919D01*
X001316Y036078D02*
X001107Y036078D01*
X001107Y036236D02*
X001252Y036236D01*
X001220Y036395D02*
X001107Y036395D01*
X005412Y020228D02*
X013841Y020228D01*
X013798Y020069D02*
X005412Y020069D01*
X005412Y019911D02*
X013835Y019911D01*
X014033Y019752D02*
X005412Y019752D01*
X005412Y019594D02*
X016318Y019594D01*
X016339Y019435D02*
X016020Y019435D01*
X015599Y019435D02*
X007898Y019435D01*
X007938Y019277D02*
X014889Y019277D01*
X014789Y019118D02*
X014752Y019118D01*
X014426Y019118D02*
X007900Y019118D01*
X007692Y018960D02*
X014294Y018960D01*
X014271Y018801D02*
X008481Y018801D01*
X008335Y018801D02*
X007693Y018801D01*
X007547Y018801D02*
X007430Y018801D01*
X007181Y019118D02*
X005412Y019118D01*
X005412Y018960D02*
X007027Y018960D01*
X007027Y018801D02*
X005412Y018801D01*
X005412Y018643D02*
X007027Y018643D01*
X007027Y018484D02*
X005412Y018484D01*
X005412Y018326D02*
X007027Y018326D01*
X007027Y018167D02*
X005412Y018167D01*
X005399Y018009D02*
X007027Y018009D01*
X007775Y017375D02*
X011635Y017375D01*
X011578Y017216D02*
X007617Y017216D01*
X007458Y017058D02*
X011420Y017058D01*
X011261Y016899D02*
X007300Y016899D01*
X007141Y016741D02*
X011160Y016741D01*
X011160Y016582D02*
X006983Y016582D01*
X006824Y016424D02*
X011160Y016424D01*
X011160Y016265D02*
X006666Y016265D01*
X006507Y016107D02*
X011160Y016107D01*
X011160Y015948D02*
X006349Y015948D01*
X006190Y015790D02*
X011160Y015790D01*
X011160Y015631D02*
X006032Y015631D01*
X005873Y015473D02*
X011160Y015473D01*
X011160Y015314D02*
X010289Y015314D01*
X010447Y015156D02*
X011160Y015156D01*
X011160Y014997D02*
X010773Y014997D01*
X010879Y014839D02*
X011160Y014839D01*
X011160Y014680D02*
X010890Y014680D01*
X010798Y014522D02*
X011160Y014522D01*
X011160Y014363D02*
X006403Y014363D01*
X006403Y014205D02*
X011160Y014205D01*
X011160Y014046D02*
X006403Y014046D01*
X006403Y013888D02*
X011160Y013888D01*
X011160Y013729D02*
X006403Y013729D01*
X006403Y013571D02*
X011160Y013571D01*
X011121Y013412D02*
X006403Y013412D01*
X006403Y013254D02*
X010962Y013254D01*
X011720Y012461D02*
X012319Y012461D01*
X012161Y012620D02*
X011878Y012620D01*
X011954Y012778D02*
X012047Y012778D01*
X011981Y012937D02*
X011954Y012937D01*
X011954Y013412D02*
X011967Y013412D01*
X011954Y013571D02*
X012033Y013571D01*
X011954Y013729D02*
X012126Y013729D01*
X012284Y013888D02*
X011954Y013888D01*
X011954Y014046D02*
X012614Y014046D01*
X013010Y014046D02*
X020715Y014046D01*
X020806Y013888D02*
X013339Y013888D01*
X013498Y013729D02*
X020806Y013729D01*
X020806Y013571D02*
X013591Y013571D01*
X013657Y013412D02*
X020806Y013412D01*
X020806Y013254D02*
X013677Y013254D01*
X013677Y013095D02*
X020806Y013095D01*
X020806Y012937D02*
X013642Y012937D01*
X013577Y012778D02*
X020806Y012778D01*
X020806Y012620D02*
X013463Y012620D01*
X013304Y012461D02*
X020806Y012461D01*
X020963Y012303D02*
X011561Y012303D01*
X011403Y012144D02*
X021121Y012144D01*
X021597Y011669D02*
X010297Y011669D01*
X010291Y011510D02*
X021755Y011510D01*
X020338Y008816D02*
X015433Y008816D01*
X015591Y008657D02*
X020056Y008657D01*
X019898Y008499D02*
X015688Y008499D01*
X015754Y008340D02*
X019824Y008340D01*
X019759Y008182D02*
X015777Y008182D01*
X015777Y008023D02*
X017294Y008023D01*
X017114Y007865D02*
X015745Y007865D01*
X015679Y007706D02*
X016990Y007706D01*
X016924Y007548D02*
X015569Y007548D01*
X015410Y007389D02*
X016882Y007389D01*
X018200Y008023D02*
X019753Y008023D01*
X019753Y007865D02*
X018381Y007865D01*
X018505Y007706D02*
X019801Y007706D01*
X019867Y007548D02*
X018571Y007548D01*
X018612Y007389D02*
X020001Y007389D01*
X022972Y002793D02*
X012771Y002793D01*
X012612Y002951D02*
X027302Y002951D01*
X027302Y002793D02*
X023371Y002793D01*
X023478Y002634D02*
X024219Y002634D01*
X024062Y002476D02*
X023488Y002476D01*
X022947Y002317D02*
X009112Y002317D01*
X008954Y002476D02*
X012522Y002476D01*
X012364Y002634D02*
X008795Y002634D01*
X008726Y002793D02*
X012205Y002793D01*
X012047Y002951D02*
X008645Y002951D01*
X008221Y002476D02*
X006618Y002476D01*
X006701Y002441D02*
X006403Y002565D01*
X006081Y002565D01*
X005784Y002441D01*
X005556Y002214D01*
X005432Y001916D01*
X005432Y001594D01*
X005556Y001296D01*
X005784Y001068D01*
X006081Y000945D01*
X006403Y000945D01*
X006701Y001068D01*
X006929Y001296D01*
X007052Y001594D01*
X007052Y001916D01*
X006929Y002214D01*
X006701Y002441D01*
X006825Y002317D02*
X008547Y002317D01*
X008705Y002159D02*
X006952Y002159D01*
X007017Y002000D02*
X007613Y002000D01*
X007509Y001842D02*
X007052Y001842D01*
X007052Y001683D02*
X007503Y001683D01*
X007597Y001525D02*
X007024Y001525D01*
X006958Y001366D02*
X007923Y001366D01*
X008081Y001208D02*
X006841Y001208D01*
X006655Y001049D02*
X008240Y001049D01*
X008489Y001366D02*
X008710Y001366D01*
X008385Y001525D02*
X008330Y001525D01*
X008290Y001683D02*
X008172Y001683D01*
X008125Y001842D02*
X008296Y001842D01*
X008400Y002000D02*
X008022Y002000D01*
X008107Y002634D02*
X005633Y002634D01*
X005474Y002476D02*
X005866Y002476D01*
X005659Y002317D02*
X005316Y002317D01*
X005157Y002159D02*
X005533Y002159D01*
X005467Y002000D02*
X004999Y002000D01*
X004840Y001842D02*
X005432Y001842D01*
X005432Y001683D02*
X004830Y001683D01*
X004883Y001525D02*
X005461Y001525D01*
X005527Y001366D02*
X004883Y001366D01*
X004822Y001208D02*
X005644Y001208D01*
X005829Y001049D02*
X004688Y001049D01*
X004058Y001049D02*
X002128Y001049D01*
X002102Y001023D02*
X002245Y001166D01*
X002323Y001354D01*
X002323Y001557D01*
X002245Y001744D01*
X002102Y001888D01*
X001914Y001965D01*
X001711Y001965D01*
X001524Y001888D01*
X001380Y001744D01*
X001303Y001557D01*
X001303Y001354D01*
X001380Y001166D01*
X001524Y001023D01*
X001711Y000945D01*
X001914Y000945D01*
X002102Y001023D01*
X002262Y001208D02*
X003923Y001208D01*
X003863Y001366D02*
X002323Y001366D01*
X002323Y001525D02*
X003863Y001525D01*
X003915Y001683D02*
X002270Y001683D01*
X002148Y001842D02*
X004038Y001842D01*
X004433Y002000D02*
X001107Y002000D01*
X001107Y001842D02*
X001478Y001842D01*
X001355Y001683D02*
X001107Y001683D01*
X001107Y001525D02*
X001303Y001525D01*
X001303Y001366D02*
X001107Y001366D01*
X001107Y001208D02*
X001363Y001208D01*
X001498Y001049D02*
X001107Y001049D01*
X001107Y000891D02*
X024379Y000891D01*
X024720Y000891D02*
X040117Y000891D01*
X040117Y001049D02*
X024846Y001049D01*
X024868Y001208D02*
X038599Y001208D01*
X038360Y001366D02*
X024797Y001366D01*
X024302Y001366D02*
X023626Y001366D01*
X023686Y001525D02*
X038220Y001525D01*
X039240Y001208D02*
X040117Y001208D01*
X040117Y001366D02*
X039479Y001366D01*
X039619Y001525D02*
X040117Y001525D01*
X040117Y001683D02*
X039685Y001683D01*
X039729Y001842D02*
X040117Y001842D01*
X040117Y002000D02*
X039729Y002000D01*
X039710Y002159D02*
X040117Y002159D01*
X040117Y002317D02*
X039645Y002317D01*
X039541Y002476D02*
X040117Y002476D01*
X040117Y002634D02*
X039382Y002634D01*
X040117Y002793D02*
X037827Y002793D01*
X037860Y002951D02*
X040117Y002951D01*
X040117Y003110D02*
X037998Y003110D01*
X038157Y003268D02*
X040117Y003268D01*
X038457Y002634D02*
X037644Y002634D01*
X032163Y006597D02*
X031521Y006597D01*
X031521Y006755D02*
X032004Y006755D01*
X031921Y006914D02*
X031521Y006914D01*
X031521Y007072D02*
X031856Y007072D01*
X031843Y007231D02*
X031521Y007231D01*
X031521Y007389D02*
X031843Y007389D01*
X031885Y007548D02*
X031521Y007548D01*
X031521Y007706D02*
X031951Y007706D01*
X032075Y007865D02*
X031521Y007865D01*
X031521Y008023D02*
X032255Y008023D01*
X031121Y007072D02*
X028883Y007072D01*
X028883Y006914D02*
X031121Y006914D01*
X031121Y006755D02*
X028883Y006755D01*
X028883Y006597D02*
X031121Y006597D01*
X031121Y006438D02*
X028883Y006438D01*
X028883Y006280D02*
X031121Y006280D01*
X031121Y006121D02*
X028883Y006121D01*
X028883Y005963D02*
X031121Y005963D01*
X031121Y005804D02*
X028883Y005804D01*
X028883Y005646D02*
X031121Y005646D01*
X031121Y005487D02*
X028883Y005487D01*
X028883Y005329D02*
X031121Y005329D01*
X031121Y005170D02*
X028883Y005170D01*
X028883Y005012D02*
X031121Y005012D01*
X031121Y004853D02*
X028883Y004853D01*
X028883Y004695D02*
X031121Y004695D01*
X031121Y004536D02*
X028883Y004536D01*
X028883Y004378D02*
X031121Y004378D01*
X031121Y004219D02*
X028883Y004219D01*
X028883Y004061D02*
X031121Y004061D01*
X031121Y003902D02*
X028883Y003902D01*
X028883Y003744D02*
X031121Y003744D01*
X031121Y003585D02*
X028883Y003585D01*
X028883Y003427D02*
X031121Y003427D01*
X031121Y003268D02*
X028883Y003268D01*
X028883Y003110D02*
X031121Y003110D01*
X031121Y002951D02*
X028883Y002951D01*
X028883Y002793D02*
X031121Y002793D01*
X031121Y002634D02*
X028883Y002634D01*
X028974Y002476D02*
X031223Y002476D01*
X031381Y002317D02*
X029001Y002317D01*
X028947Y002159D02*
X031515Y002159D01*
X027277Y002317D02*
X024671Y002317D01*
X024643Y002476D02*
X027185Y002476D01*
X027196Y002634D02*
X024487Y002634D01*
X023222Y001842D02*
X023148Y001842D01*
X022899Y002159D02*
X009271Y002159D01*
X009429Y002000D02*
X022740Y002000D01*
X027302Y003110D02*
X012454Y003110D01*
X012295Y003268D02*
X027302Y003268D01*
X027302Y003427D02*
X012137Y003427D01*
X011978Y003585D02*
X027302Y003585D01*
X027302Y003744D02*
X011820Y003744D01*
X011661Y003902D02*
X027302Y003902D01*
X027302Y004061D02*
X011503Y004061D01*
X011344Y004219D02*
X027302Y004219D01*
X027302Y004378D02*
X011186Y004378D01*
X011027Y004536D02*
X027302Y004536D01*
X027302Y004695D02*
X010869Y004695D01*
X010710Y004853D02*
X027302Y004853D01*
X027302Y005012D02*
X010552Y005012D01*
X010393Y005170D02*
X027302Y005170D01*
X027302Y005329D02*
X010235Y005329D01*
X010183Y005487D02*
X027302Y005487D01*
X027302Y005646D02*
X010183Y005646D01*
X010183Y005804D02*
X027302Y005804D01*
X027302Y005963D02*
X010183Y005963D01*
X010183Y006121D02*
X027302Y006121D01*
X020557Y014205D02*
X011954Y014205D01*
X011954Y014363D02*
X020398Y014363D01*
X020240Y014522D02*
X011954Y014522D01*
X011954Y014680D02*
X020081Y014680D01*
X019923Y014839D02*
X011954Y014839D01*
X011954Y014997D02*
X019764Y014997D01*
X019606Y015156D02*
X014515Y015156D01*
X014508Y015148D02*
X014751Y015392D01*
X014883Y015710D01*
X014883Y016054D01*
X014751Y016372D01*
X014508Y016615D01*
X014190Y016747D01*
X013846Y016747D01*
X013528Y016615D01*
X013285Y016372D01*
X013153Y016054D01*
X013153Y015710D01*
X013285Y015392D01*
X013528Y015148D01*
X013846Y015017D01*
X014190Y015017D01*
X014508Y015148D01*
X014674Y015314D02*
X019447Y015314D01*
X019289Y015473D02*
X014785Y015473D01*
X014851Y015631D02*
X019130Y015631D01*
X019770Y016424D02*
X021322Y016424D01*
X021348Y016450D02*
X021105Y016207D01*
X020973Y015889D01*
X020973Y015545D01*
X021105Y015227D01*
X021348Y014983D01*
X021666Y014852D01*
X022010Y014852D01*
X022328Y014983D01*
X022571Y015227D01*
X022703Y015545D01*
X022703Y015889D01*
X022571Y016207D01*
X022328Y016450D01*
X022010Y016582D01*
X021666Y016582D01*
X021348Y016450D01*
X021163Y016265D02*
X019928Y016265D01*
X020087Y016107D02*
X021063Y016107D01*
X020998Y015948D02*
X020245Y015948D01*
X020404Y015790D02*
X020973Y015790D01*
X020973Y015631D02*
X020562Y015631D01*
X020721Y015473D02*
X021003Y015473D01*
X021068Y015314D02*
X020879Y015314D01*
X021038Y015156D02*
X021176Y015156D01*
X021196Y014997D02*
X021334Y014997D01*
X021355Y014839D02*
X034450Y014839D01*
X034292Y014997D02*
X022342Y014997D01*
X022500Y015156D02*
X028481Y015156D01*
X028323Y015314D02*
X022608Y015314D01*
X022673Y015473D02*
X028212Y015473D01*
X028146Y015631D02*
X022703Y015631D01*
X022703Y015790D02*
X028114Y015790D01*
X028114Y015948D02*
X022678Y015948D01*
X022613Y016107D02*
X028136Y016107D01*
X028201Y016265D02*
X022513Y016265D01*
X022354Y016424D02*
X028297Y016424D01*
X028456Y016582D02*
X019611Y016582D01*
X019040Y016741D02*
X018272Y016741D01*
X018253Y016899D02*
X018882Y016899D01*
X018774Y017058D02*
X018253Y017058D01*
X018253Y017216D02*
X018708Y017216D01*
X018677Y017375D02*
X018253Y017375D01*
X018253Y017533D02*
X018677Y017533D01*
X018701Y017692D02*
X018147Y017692D01*
X017989Y017850D02*
X018767Y017850D01*
X018866Y018009D02*
X017830Y018009D01*
X017672Y018167D02*
X019024Y018167D01*
X017853Y017375D02*
X017245Y017375D01*
X017245Y017351D02*
X017113Y017033D01*
X016870Y016790D01*
X016552Y016658D01*
X016208Y016658D01*
X015890Y016790D01*
X015647Y017033D01*
X015515Y017351D01*
X015515Y017695D01*
X015647Y018013D01*
X015890Y018257D01*
X016208Y018388D01*
X016552Y018388D01*
X016870Y018257D01*
X017113Y018013D01*
X017245Y017695D01*
X017245Y017351D01*
X017189Y017216D02*
X017853Y017216D01*
X017853Y017058D02*
X017124Y017058D01*
X016979Y016899D02*
X017853Y016899D01*
X017853Y016741D02*
X016751Y016741D01*
X016009Y016741D02*
X015594Y016741D01*
X015436Y016899D02*
X015781Y016899D01*
X015637Y017058D02*
X015301Y017058D01*
X015301Y017216D02*
X015571Y017216D01*
X015515Y017375D02*
X015301Y017375D01*
X015303Y017533D02*
X015515Y017533D01*
X015515Y017692D02*
X015202Y017692D01*
X015064Y017850D02*
X015579Y017850D01*
X015645Y018009D02*
X014927Y018009D01*
X014903Y018167D02*
X015801Y018167D01*
X016057Y018326D02*
X014806Y018326D01*
X014624Y018484D02*
X008726Y018484D01*
X008688Y018643D02*
X014338Y018643D01*
X014371Y018326D02*
X008685Y018326D01*
X008568Y018167D02*
X013348Y018167D01*
X013228Y018009D02*
X008409Y018009D01*
X008251Y017850D02*
X012636Y017850D01*
X012530Y017692D02*
X008092Y017692D01*
X007934Y017533D02*
X011728Y017533D01*
X012174Y017533D02*
X012486Y017533D01*
X012327Y017375D02*
X012267Y017375D01*
X012735Y017216D02*
X013035Y017216D01*
X013060Y017375D02*
X013194Y017375D01*
X013153Y017533D02*
X013326Y017533D01*
X013281Y017692D02*
X013144Y017692D01*
X013208Y017850D02*
X013068Y017850D01*
X013704Y018167D02*
X014275Y018167D01*
X014280Y018009D02*
X013824Y018009D01*
X013844Y017850D02*
X014382Y017850D01*
X014672Y017692D02*
X013771Y017692D01*
X013726Y017533D02*
X014810Y017533D01*
X014901Y017375D02*
X014616Y017375D01*
X014671Y017216D02*
X014901Y017216D01*
X014901Y017058D02*
X014782Y017058D01*
X014535Y016741D02*
X014204Y016741D01*
X014218Y016899D02*
X013284Y016899D01*
X013442Y017058D02*
X014062Y017058D01*
X014034Y017216D02*
X013601Y017216D01*
X013726Y017375D02*
X014090Y017375D01*
X013832Y016741D02*
X012653Y016741D01*
X012494Y016582D02*
X013495Y016582D01*
X013337Y016424D02*
X012336Y016424D01*
X012177Y016265D02*
X013241Y016265D01*
X013175Y016107D02*
X012019Y016107D01*
X011954Y015948D02*
X013153Y015948D01*
X013153Y015790D02*
X011954Y015790D01*
X011954Y015631D02*
X013185Y015631D01*
X013251Y015473D02*
X011954Y015473D01*
X011954Y015314D02*
X013362Y015314D01*
X013521Y015156D02*
X011954Y015156D01*
X010348Y014522D02*
X006403Y014522D01*
X006403Y014680D02*
X010256Y014680D01*
X010198Y014839D02*
X006499Y014839D01*
X006250Y015156D02*
X005556Y015156D01*
X005715Y015314D02*
X006409Y015314D01*
X006092Y014997D02*
X005398Y014997D01*
X005239Y014839D02*
X006003Y014839D01*
X006003Y014680D02*
X005081Y014680D01*
X004922Y014522D02*
X006003Y014522D01*
X006003Y014363D02*
X004764Y014363D01*
X004763Y014180D02*
X004688Y014168D01*
X004616Y014145D01*
X004549Y014110D01*
X004488Y014066D01*
X004435Y014012D01*
X004390Y013951D01*
X004356Y013884D01*
X004332Y013812D01*
X004321Y013737D01*
X004321Y013720D01*
X005081Y013720D01*
X005081Y014180D01*
X004763Y014180D01*
X004605Y014205D02*
X006003Y014205D01*
X006003Y014046D02*
X005733Y014046D01*
X005713Y014066D02*
X005767Y014012D01*
X005811Y013951D01*
X005845Y013884D01*
X005869Y013812D01*
X005881Y013737D01*
X005881Y013720D01*
X005121Y013720D01*
X005121Y013680D01*
X005881Y013680D01*
X005881Y013662D01*
X005869Y013587D01*
X005845Y013515D01*
X005811Y013448D01*
X005767Y013387D01*
X005713Y013334D01*
X005652Y013289D01*
X005585Y013255D01*
X005513Y013232D01*
X005438Y013220D01*
X005121Y013220D01*
X005121Y013680D01*
X005081Y013680D01*
X005081Y013220D01*
X004763Y013220D01*
X004688Y013232D01*
X004616Y013255D01*
X004549Y013289D01*
X004488Y013334D01*
X004435Y013387D01*
X004390Y013448D01*
X004356Y013515D01*
X004332Y013587D01*
X004321Y013662D01*
X004321Y013680D01*
X005081Y013680D01*
X005081Y013720D01*
X005121Y013720D01*
X005121Y014180D01*
X005438Y014180D01*
X005513Y014168D01*
X005585Y014145D01*
X005652Y014110D01*
X005713Y014066D01*
X005844Y013888D02*
X006003Y013888D01*
X006003Y013729D02*
X005881Y013729D01*
X005863Y013571D02*
X006003Y013571D01*
X006003Y013412D02*
X005785Y013412D01*
X005581Y013254D02*
X006002Y013254D01*
X005843Y013095D02*
X005595Y013095D01*
X005121Y013254D02*
X005081Y013254D01*
X005081Y013412D02*
X005121Y013412D01*
X005121Y013571D02*
X005081Y013571D01*
X005081Y013729D02*
X005121Y013729D01*
X005121Y013888D02*
X005081Y013888D01*
X005081Y014046D02*
X005121Y014046D01*
X004468Y014046D02*
X004447Y014046D01*
X004358Y013888D02*
X004288Y013888D01*
X004277Y013729D02*
X004321Y013729D01*
X004338Y013571D02*
X004277Y013571D01*
X004277Y013412D02*
X004416Y013412D01*
X004277Y013254D02*
X004620Y013254D01*
X004606Y013095D02*
X004277Y013095D01*
X004277Y012937D02*
X004423Y012937D01*
X004361Y012778D02*
X004330Y012778D01*
X004395Y012529D02*
X004428Y012450D01*
X004551Y012327D01*
X004713Y012260D01*
X005488Y012260D01*
X005650Y012327D01*
X005774Y012450D01*
X005592Y012303D02*
X006980Y012303D01*
X006821Y012144D02*
X003883Y012144D01*
X003883Y011986D02*
X004464Y011986D01*
X004428Y011949D02*
X004361Y011787D01*
X004361Y011612D01*
X004428Y011450D01*
X004551Y011327D01*
X004713Y011260D01*
X005488Y011260D01*
X005650Y011327D01*
X005774Y011450D01*
X005841Y011612D01*
X005841Y011787D01*
X005774Y011949D01*
X005650Y012073D01*
X005488Y012140D01*
X004713Y012140D01*
X004551Y012073D01*
X004428Y011949D01*
X004377Y011827D02*
X003883Y011827D01*
X003883Y011711D02*
X003883Y012325D01*
X003897Y012312D01*
X004014Y012263D01*
X004140Y012263D01*
X004257Y012312D01*
X004347Y012401D01*
X004395Y012518D01*
X004395Y012529D01*
X004371Y012461D02*
X004423Y012461D01*
X004609Y012303D02*
X004235Y012303D01*
X003919Y012303D02*
X003883Y012303D01*
X003483Y012303D02*
X002965Y012303D01*
X003038Y012461D02*
X003483Y012461D01*
X003483Y012620D02*
X003045Y012620D01*
X002994Y012778D02*
X003483Y012778D01*
X003483Y012937D02*
X002857Y012937D01*
X002702Y013095D02*
X003483Y013095D01*
X003483Y013254D02*
X002972Y013254D01*
X003060Y013412D02*
X003483Y013412D01*
X003646Y014205D02*
X002867Y014205D01*
X002998Y014363D02*
X003804Y014363D01*
X003886Y014839D02*
X002955Y014839D01*
X002714Y014997D02*
X004044Y014997D01*
X004203Y015156D02*
X002765Y015156D01*
X002976Y015314D02*
X004361Y015314D01*
X004520Y015473D02*
X003043Y015473D01*
X003045Y015631D02*
X004678Y015631D01*
X004837Y015790D02*
X002989Y015790D01*
X002832Y015948D02*
X004995Y015948D01*
X006403Y013095D02*
X007772Y013095D01*
X007614Y012937D02*
X006250Y012937D01*
X006663Y011986D02*
X005737Y011986D01*
X005824Y011827D02*
X006504Y011827D01*
X006346Y011669D02*
X005841Y011669D01*
X005798Y011510D02*
X006187Y011510D01*
X006029Y011352D02*
X005675Y011352D01*
X005553Y010876D02*
X001107Y010876D01*
X001107Y010718D02*
X005395Y010718D01*
X005255Y010559D02*
X001107Y010559D01*
X001107Y010401D02*
X005255Y010401D01*
X005255Y010242D02*
X001107Y010242D01*
X001107Y010084D02*
X005255Y010084D01*
X005255Y009925D02*
X001107Y009925D01*
X001107Y009767D02*
X005255Y009767D01*
X005255Y009608D02*
X004665Y009608D01*
X004661Y009611D02*
X004584Y009651D01*
X004502Y009677D01*
X004416Y009691D01*
X004393Y009691D01*
X004393Y009161D01*
X004923Y009161D01*
X004923Y009184D01*
X004909Y009270D01*
X004882Y009352D01*
X004843Y009429D01*
X004792Y009499D01*
X004731Y009560D01*
X004661Y009611D01*
X004828Y009450D02*
X005255Y009450D01*
X005255Y009291D02*
X004902Y009291D01*
X004923Y009121D02*
X004393Y009121D01*
X004393Y009161D01*
X004353Y009161D01*
X004353Y009691D01*
X004329Y009691D01*
X004244Y009677D01*
X004162Y009651D01*
X004084Y009611D01*
X004014Y009560D01*
X003953Y009499D01*
X003902Y009429D01*
X003863Y009352D01*
X003836Y009270D01*
X003823Y009184D01*
X003823Y009161D01*
X004353Y009161D01*
X004353Y009121D01*
X004393Y009121D01*
X004393Y008591D01*
X004416Y008591D01*
X004502Y008604D01*
X004584Y008631D01*
X004661Y008670D01*
X004731Y008721D01*
X004792Y008783D01*
X004843Y008853D01*
X004882Y008930D01*
X004909Y009012D01*
X004923Y009098D01*
X004923Y009121D01*
X004897Y008974D02*
X005255Y008974D01*
X005255Y008816D02*
X004816Y008816D01*
X004635Y008657D02*
X005255Y008657D01*
X005255Y008499D02*
X001107Y008499D01*
X001107Y008657D02*
X001550Y008657D01*
X001524Y008670D02*
X001602Y008631D01*
X001684Y008604D01*
X001769Y008591D01*
X001793Y008591D01*
X001793Y009121D01*
X001833Y009121D01*
X001833Y009161D01*
X002363Y009161D01*
X002363Y009184D01*
X002349Y009270D01*
X002322Y009352D01*
X002283Y009429D01*
X002232Y009499D01*
X002171Y009560D01*
X002101Y009611D01*
X002024Y009651D01*
X001942Y009677D01*
X001856Y009691D01*
X001833Y009691D01*
X001833Y009161D01*
X001793Y009161D01*
X001793Y009691D01*
X001769Y009691D01*
X001684Y009677D01*
X001602Y009651D01*
X001524Y009611D01*
X001454Y009560D01*
X001393Y009499D01*
X001342Y009429D01*
X001303Y009352D01*
X001276Y009270D01*
X001263Y009184D01*
X001263Y009161D01*
X001793Y009161D01*
X001793Y009121D01*
X001263Y009121D01*
X001263Y009098D01*
X001276Y009012D01*
X001303Y008930D01*
X001342Y008853D01*
X001393Y008783D01*
X001454Y008721D01*
X001524Y008670D01*
X001369Y008816D02*
X001107Y008816D01*
X001107Y008974D02*
X001289Y008974D01*
X001107Y009133D02*
X001793Y009133D01*
X001833Y009133D02*
X004353Y009133D01*
X004353Y009121D02*
X003823Y009121D01*
X003823Y009098D01*
X003836Y009012D01*
X003863Y008930D01*
X003902Y008853D01*
X003953Y008783D01*
X004014Y008721D01*
X004084Y008670D01*
X004162Y008631D01*
X004244Y008604D01*
X004329Y008591D01*
X004353Y008591D01*
X004353Y009121D01*
X004393Y009133D02*
X005255Y009133D01*
X005255Y008340D02*
X001107Y008340D01*
X001107Y008182D02*
X005255Y008182D01*
X005021Y007706D02*
X004749Y007706D01*
X005111Y007231D02*
X005452Y007231D01*
X005452Y007389D02*
X005270Y007389D01*
X005428Y007548D02*
X005452Y007548D01*
X005452Y007072D02*
X004805Y007072D01*
X004626Y006914D02*
X005452Y006914D01*
X006049Y006914D02*
X009783Y006914D01*
X009783Y007072D02*
X006049Y007072D01*
X006049Y007231D02*
X009783Y007231D01*
X009783Y007389D02*
X006049Y007389D01*
X006049Y007548D02*
X009783Y007548D01*
X009783Y007706D02*
X006049Y007706D01*
X006049Y007865D02*
X009783Y007865D01*
X009783Y008023D02*
X006049Y008023D01*
X006049Y008182D02*
X009783Y008182D01*
X009783Y008340D02*
X006049Y008340D01*
X006049Y008499D02*
X009783Y008499D01*
X009783Y008657D02*
X006049Y008657D01*
X004393Y008657D02*
X004353Y008657D01*
X004353Y008816D02*
X004393Y008816D01*
X004393Y008974D02*
X004353Y008974D01*
X004353Y009291D02*
X004393Y009291D01*
X004393Y009450D02*
X004353Y009450D01*
X004353Y009608D02*
X004393Y009608D01*
X004080Y009608D02*
X002105Y009608D01*
X002268Y009450D02*
X003917Y009450D01*
X003843Y009291D02*
X002342Y009291D01*
X002363Y009121D02*
X001833Y009121D01*
X001833Y008591D01*
X001856Y008591D01*
X001942Y008604D01*
X002024Y008631D01*
X002101Y008670D01*
X002171Y008721D01*
X002232Y008783D01*
X002283Y008853D01*
X002322Y008930D01*
X002349Y009012D01*
X002363Y009098D01*
X002363Y009121D01*
X002337Y008974D02*
X003849Y008974D01*
X003929Y008816D02*
X002256Y008816D01*
X002075Y008657D02*
X004110Y008657D01*
X003940Y007072D02*
X004084Y006929D01*
X004353Y006597D02*
X004393Y006597D01*
X004393Y006438D02*
X004353Y006438D01*
X004353Y006280D02*
X004393Y006280D01*
X004393Y006121D02*
X004353Y006121D01*
X004353Y005963D02*
X004393Y005963D01*
X004393Y005804D02*
X004353Y005804D01*
X005279Y005012D02*
X001107Y005012D01*
X001107Y005170D02*
X005438Y005170D01*
X005452Y005329D02*
X001107Y005329D01*
X001107Y005487D02*
X005452Y005487D01*
X006049Y005487D02*
X009783Y005487D01*
X009783Y005329D02*
X006049Y005329D01*
X006049Y005170D02*
X009828Y005170D01*
X009986Y005012D02*
X006049Y005012D01*
X006049Y004853D02*
X010145Y004853D01*
X010303Y004695D02*
X006049Y004695D01*
X006049Y004536D02*
X010462Y004536D01*
X010620Y004378D02*
X006049Y004378D01*
X006049Y004219D02*
X010779Y004219D01*
X010937Y004061D02*
X006049Y004061D01*
X006049Y003902D02*
X011096Y003902D01*
X011254Y003744D02*
X006049Y003744D01*
X006049Y003585D02*
X011413Y003585D01*
X011571Y003427D02*
X006049Y003427D01*
X006049Y003268D02*
X011730Y003268D01*
X011888Y003110D02*
X006049Y003110D01*
X005950Y002951D02*
X008170Y002951D01*
X008090Y002793D02*
X005791Y002793D01*
X005932Y002933D02*
X005932Y002933D01*
X005543Y003110D02*
X004910Y003110D01*
X004909Y003107D02*
X004923Y003192D01*
X004923Y003215D01*
X004393Y003215D01*
X004393Y002685D01*
X004416Y002685D01*
X004502Y002699D01*
X004584Y002726D01*
X004661Y002765D01*
X004731Y002816D01*
X004792Y002877D01*
X004843Y002947D01*
X004882Y003024D01*
X004909Y003107D01*
X004923Y003255D02*
X004923Y003279D01*
X004909Y003364D01*
X004882Y003446D01*
X004843Y003524D01*
X004792Y003594D01*
X004731Y003655D01*
X004661Y003706D01*
X004584Y003745D01*
X004502Y003772D01*
X004416Y003785D01*
X004393Y003785D01*
X004393Y003255D01*
X004923Y003255D01*
X004923Y003268D02*
X005649Y003268D01*
X005649Y003427D02*
X004889Y003427D01*
X004798Y003585D02*
X005649Y003585D01*
X005649Y003744D02*
X004587Y003744D01*
X004484Y003902D02*
X005649Y003902D01*
X005649Y004061D02*
X004747Y004061D01*
X005053Y004219D02*
X005649Y004219D01*
X005649Y004378D02*
X005211Y004378D01*
X005159Y004325D02*
X005159Y004325D01*
X005370Y004536D02*
X005649Y004536D01*
X005649Y004695D02*
X005528Y004695D01*
X005121Y004853D02*
X004631Y004853D01*
X004806Y004695D02*
X004962Y004695D01*
X004115Y004853D02*
X002071Y004853D01*
X002102Y004840D02*
X001914Y004918D01*
X001711Y004918D01*
X001524Y004840D01*
X001380Y004697D01*
X001303Y004510D01*
X001303Y004307D01*
X001380Y004119D01*
X001524Y003976D01*
X001711Y003898D01*
X001914Y003898D01*
X002102Y003976D01*
X002245Y004119D01*
X002323Y004307D01*
X002323Y004510D01*
X002245Y004697D01*
X002102Y004840D01*
X002246Y004695D02*
X003939Y004695D01*
X003874Y004536D02*
X002312Y004536D01*
X002323Y004378D02*
X003863Y004378D01*
X003899Y004219D02*
X002287Y004219D01*
X002187Y004061D02*
X003999Y004061D01*
X004261Y003902D02*
X001924Y003902D01*
X001942Y003772D02*
X001856Y003785D01*
X001833Y003785D01*
X001833Y003255D01*
X002363Y003255D01*
X002363Y003279D01*
X002349Y003364D01*
X002322Y003446D01*
X002283Y003524D01*
X002232Y003594D01*
X002171Y003655D01*
X002101Y003706D01*
X002024Y003745D01*
X001942Y003772D01*
X002027Y003744D02*
X004159Y003744D01*
X004162Y003745D02*
X004084Y003706D01*
X004014Y003655D01*
X003953Y003594D01*
X003902Y003524D01*
X003863Y003446D01*
X003836Y003364D01*
X003823Y003279D01*
X003823Y003255D01*
X004353Y003255D01*
X004353Y003215D01*
X004393Y003215D01*
X004393Y003255D01*
X004353Y003255D01*
X004353Y003785D01*
X004329Y003785D01*
X004244Y003772D01*
X004162Y003745D01*
X004353Y003744D02*
X004393Y003744D01*
X004393Y003585D02*
X004353Y003585D01*
X004353Y003427D02*
X004393Y003427D01*
X004393Y003268D02*
X004353Y003268D01*
X004353Y003215D02*
X003823Y003215D01*
X003823Y003192D01*
X003836Y003107D01*
X003863Y003024D01*
X003902Y002947D01*
X003953Y002877D01*
X004014Y002816D01*
X004084Y002765D01*
X004162Y002726D01*
X004244Y002699D01*
X004329Y002685D01*
X004353Y002685D01*
X004353Y003215D01*
X004353Y003110D02*
X004393Y003110D01*
X004393Y002951D02*
X004353Y002951D01*
X004353Y002793D02*
X004393Y002793D01*
X004699Y002793D02*
X005226Y002793D01*
X005384Y002951D02*
X004845Y002951D01*
X005067Y002634D02*
X001107Y002634D01*
X001107Y002476D02*
X004909Y002476D01*
X004750Y002317D02*
X001107Y002317D01*
X001107Y002159D02*
X004592Y002159D01*
X004046Y002793D02*
X002139Y002793D01*
X002171Y002816D02*
X002232Y002877D01*
X002283Y002947D01*
X002322Y003024D01*
X002349Y003107D01*
X002363Y003192D01*
X002363Y003215D01*
X001833Y003215D01*
X001833Y002685D01*
X001856Y002685D01*
X001942Y002699D01*
X002024Y002726D01*
X002101Y002765D01*
X002171Y002816D01*
X002285Y002951D02*
X003900Y002951D01*
X003836Y003110D02*
X002350Y003110D01*
X002363Y003268D02*
X003823Y003268D01*
X003857Y003427D02*
X002329Y003427D01*
X002238Y003585D02*
X003947Y003585D01*
X001833Y003585D02*
X001793Y003585D01*
X001793Y003427D02*
X001833Y003427D01*
X001833Y003268D02*
X001793Y003268D01*
X001793Y003255D02*
X001793Y003785D01*
X001769Y003785D01*
X001684Y003772D01*
X001602Y003745D01*
X001524Y003706D01*
X001454Y003655D01*
X001393Y003594D01*
X001342Y003524D01*
X001303Y003446D01*
X001276Y003364D01*
X001263Y003279D01*
X001263Y003255D01*
X001793Y003255D01*
X001793Y003215D01*
X001833Y003215D01*
X001833Y003255D01*
X001793Y003255D01*
X001793Y003215D02*
X001263Y003215D01*
X001263Y003192D01*
X001276Y003107D01*
X001303Y003024D01*
X001342Y002947D01*
X001393Y002877D01*
X001454Y002816D01*
X001524Y002765D01*
X001602Y002726D01*
X001684Y002699D01*
X001769Y002685D01*
X001793Y002685D01*
X001793Y003215D01*
X001793Y003110D02*
X001833Y003110D01*
X001833Y002951D02*
X001793Y002951D01*
X001793Y002793D02*
X001833Y002793D01*
X001486Y002793D02*
X001107Y002793D01*
X001107Y002951D02*
X001340Y002951D01*
X001276Y003110D02*
X001107Y003110D01*
X001107Y003268D02*
X001263Y003268D01*
X001297Y003427D02*
X001107Y003427D01*
X001107Y003585D02*
X001387Y003585D01*
X001599Y003744D02*
X001107Y003744D01*
X001107Y003902D02*
X001701Y003902D01*
X001793Y003744D02*
X001833Y003744D01*
X001439Y004061D02*
X001107Y004061D01*
X001107Y004219D02*
X001339Y004219D01*
X001303Y004378D02*
X001107Y004378D01*
X001107Y004536D02*
X001314Y004536D01*
X001379Y004695D02*
X001107Y004695D01*
X001107Y004853D02*
X001555Y004853D01*
X001793Y006597D02*
X001833Y006597D01*
X001793Y008657D02*
X001833Y008657D01*
X001833Y008816D02*
X001793Y008816D01*
X001793Y008974D02*
X001833Y008974D01*
X001833Y009291D02*
X001793Y009291D01*
X001793Y009450D02*
X001833Y009450D01*
X001833Y009608D02*
X001793Y009608D01*
X001520Y009608D02*
X001107Y009608D01*
X001107Y009450D02*
X001357Y009450D01*
X001283Y009291D02*
X001107Y009291D01*
X002855Y011193D02*
X002978Y011317D01*
X002999Y011366D01*
X003538Y011366D01*
X003766Y011594D01*
X003883Y011711D01*
X003841Y011669D02*
X004361Y011669D01*
X004403Y011510D02*
X003682Y011510D01*
X003766Y011594D02*
X003766Y011594D01*
X003434Y011827D02*
X002966Y011827D01*
X002741Y011986D02*
X003483Y011986D01*
X003483Y012144D02*
X002737Y012144D01*
X002993Y011352D02*
X004526Y011352D01*
X002325Y013095D02*
X002285Y013095D01*
X002285Y013254D02*
X002325Y013254D01*
X002325Y013412D02*
X002285Y013412D01*
X002285Y013729D02*
X002325Y013729D01*
X002325Y013888D02*
X002285Y013888D01*
X005412Y019277D02*
X007302Y019277D01*
X007343Y019435D02*
X005412Y019435D01*
X007900Y018643D02*
X008128Y018643D01*
X008090Y018484D02*
X007938Y018484D01*
X008017Y018326D02*
X008130Y018326D01*
X014200Y019752D02*
X016388Y019752D01*
X015499Y019277D02*
X015312Y019277D01*
X015412Y019118D02*
X015497Y019118D01*
X016704Y018326D02*
X016948Y018326D01*
X016960Y018167D02*
X017106Y018167D01*
X017115Y018009D02*
X017265Y018009D01*
X017181Y017850D02*
X017423Y017850D01*
X017582Y017692D02*
X017245Y017692D01*
X017245Y017533D02*
X017740Y017533D01*
X017864Y016582D02*
X015753Y016582D01*
X015206Y016107D02*
X014861Y016107D01*
X014883Y015948D02*
X015374Y015948D01*
X015542Y015790D02*
X014883Y015790D01*
X014795Y016265D02*
X015038Y016265D01*
X014870Y016424D02*
X014699Y016424D01*
X014703Y016582D02*
X014541Y016582D01*
X021771Y023556D02*
X022493Y023556D01*
X022855Y023556D02*
X023312Y023556D01*
X023195Y023715D02*
X023471Y023715D01*
X023353Y023873D02*
X023629Y023873D01*
X023788Y024032D02*
X023451Y024032D01*
X023516Y024190D02*
X023946Y024190D01*
X024105Y024349D02*
X023539Y024349D01*
X023539Y024507D02*
X024263Y024507D01*
X024422Y024666D02*
X023508Y024666D01*
X023442Y024824D02*
X024580Y024824D01*
X024586Y024983D02*
X023332Y024983D01*
X023174Y025141D02*
X024586Y025141D01*
X024195Y026092D02*
X024170Y026092D01*
X024328Y026251D02*
X024353Y026251D01*
X024487Y026409D02*
X024512Y026409D01*
X024645Y026568D02*
X024670Y026568D01*
X024804Y026726D02*
X024829Y026726D01*
X024962Y026885D02*
X024987Y026885D01*
X025121Y027043D02*
X025146Y027043D01*
X025279Y027202D02*
X025304Y027202D01*
X025438Y027360D02*
X025463Y027360D01*
X025596Y027519D02*
X025621Y027519D01*
X025755Y027677D02*
X025780Y027677D01*
X025913Y027836D02*
X025938Y027836D01*
X026072Y027994D02*
X026097Y027994D01*
X025506Y027994D02*
X023625Y027994D01*
X023784Y027836D02*
X025348Y027836D01*
X025189Y027677D02*
X023895Y027677D01*
X023961Y027519D02*
X025031Y027519D01*
X024872Y027360D02*
X023994Y027360D01*
X023994Y027202D02*
X024714Y027202D01*
X024555Y027043D02*
X023973Y027043D01*
X023907Y026885D02*
X024397Y026885D01*
X024238Y026726D02*
X023811Y026726D01*
X023653Y026568D02*
X024080Y026568D01*
X023921Y026409D02*
X023318Y026409D01*
X022940Y026409D02*
X022383Y026409D01*
X022224Y026568D02*
X022605Y026568D01*
X021836Y023491D02*
X021836Y023491D01*
X021930Y023398D02*
X023154Y023398D01*
X029501Y016582D02*
X032814Y016582D01*
X032865Y016424D02*
X029660Y016424D01*
X029756Y016265D02*
X033024Y016265D01*
X033182Y016107D02*
X029822Y016107D01*
X029844Y015948D02*
X033341Y015948D01*
X033499Y015790D02*
X029844Y015790D01*
X029811Y015631D02*
X033658Y015631D01*
X033816Y015473D02*
X029745Y015473D01*
X029634Y015314D02*
X033975Y015314D01*
X034133Y015156D02*
X029476Y015156D01*
X037987Y011035D02*
X039074Y011035D01*
X039074Y010876D02*
X038226Y010876D01*
X038375Y010718D02*
X039074Y010718D01*
X039074Y010559D02*
X038441Y010559D01*
X038500Y010401D02*
X039074Y010401D01*
X039074Y010242D02*
X038500Y010242D01*
X038500Y010084D02*
X039074Y010084D01*
X039074Y009925D02*
X038439Y009925D01*
X038373Y009767D02*
X039074Y009767D01*
X039074Y009608D02*
X038222Y009608D01*
X037977Y009450D02*
X039074Y009450D01*
X022423Y037504D02*
X022164Y037504D01*
X022266Y037663D02*
X022321Y037663D01*
X022359Y038138D02*
X022228Y038138D01*
X022060Y038297D02*
X022527Y038297D01*
X021527Y038297D02*
X021290Y038297D01*
X021304Y038138D02*
X021359Y038138D01*
X021321Y037663D02*
X021304Y037663D01*
X021304Y037504D02*
X021423Y037504D01*
X009783Y006755D02*
X006049Y006755D01*
X006049Y006597D02*
X009783Y006597D01*
X009783Y006438D02*
X006049Y006438D01*
X006049Y006280D02*
X009783Y006280D01*
X009783Y006121D02*
X006049Y006121D01*
X006049Y005963D02*
X009783Y005963D01*
X009783Y005804D02*
X006049Y005804D01*
X006049Y005646D02*
X009783Y005646D01*
X008864Y002000D02*
X008809Y002000D01*
X008913Y001842D02*
X009022Y001842D01*
D25*
X008801Y001558D02*
X008605Y001755D01*
X008801Y001558D02*
X023368Y001558D01*
X023171Y002149D02*
X022778Y001755D01*
X009392Y001755D01*
X008408Y002739D01*
X007817Y001755D02*
X008408Y001164D01*
X024549Y001164D01*
X024156Y002149D02*
X023171Y002149D01*
X023171Y002542D02*
X012738Y002542D01*
X009983Y005298D01*
X009983Y011597D01*
X011164Y012188D02*
X011754Y012778D01*
X011754Y016125D01*
X012581Y016952D01*
X013053Y016952D01*
X013526Y017424D01*
X013526Y017897D01*
X012935Y017700D02*
X012837Y017601D01*
X011557Y016322D01*
X011557Y012975D01*
X011164Y012582D01*
X008014Y012582D01*
X005652Y010219D01*
X005652Y005101D01*
X004959Y004408D01*
X004373Y004408D01*
X005849Y003133D02*
X005849Y010023D01*
X008014Y012188D01*
X011164Y012188D01*
X010967Y012975D02*
X011360Y013369D01*
X011360Y016715D01*
X011951Y017306D01*
X010179Y015141D02*
X010573Y014747D01*
X010179Y015141D02*
X006518Y015141D01*
X006203Y014826D01*
X006203Y013172D01*
X005731Y012700D01*
X005101Y012700D01*
X004077Y012582D02*
X004077Y013960D01*
X008408Y018290D01*
X008408Y018487D01*
X007817Y018290D02*
X007817Y018093D01*
X003683Y013960D01*
X003683Y011794D01*
X003455Y011566D01*
X002305Y011566D01*
X002305Y014566D02*
X003896Y014566D01*
X007227Y017897D01*
X007227Y018881D01*
X007620Y019274D01*
X007620Y018487D02*
X007817Y018290D01*
X005455Y021637D02*
X005455Y022424D01*
X006046Y023015D01*
X006046Y027149D01*
X004077Y029117D01*
X010927Y029156D02*
X010967Y029117D01*
X010927Y029156D02*
X010927Y029944D01*
X014313Y033330D01*
X023290Y033330D01*
X025140Y031479D01*
X025140Y029314D01*
X025337Y029117D01*
X025731Y029117D01*
X026715Y030101D01*
X026715Y034432D01*
X031242Y038960D01*
X031833Y038960D01*
X032620Y038960D02*
X029864Y036204D01*
X028880Y036204D01*
X026912Y034235D01*
X026912Y029904D01*
X025927Y028920D01*
X025140Y028920D01*
X024746Y029314D01*
X024746Y031479D01*
X023132Y033093D01*
X014549Y033093D01*
X012148Y030692D01*
X012148Y029708D01*
X010967Y028526D01*
X011754Y028723D02*
X012542Y029511D01*
X012542Y030534D01*
X014864Y032857D01*
X015494Y032857D01*
X015731Y032857D01*
X022975Y032857D01*
X024353Y031479D01*
X024353Y029314D01*
X024943Y028723D01*
X026124Y028723D01*
X027109Y029708D01*
X027109Y034038D01*
X028880Y035810D01*
X029864Y035810D01*
X032423Y038369D01*
X034786Y038369D01*
X035376Y038960D01*
X036164Y038960D01*
X034589Y038960D02*
X032620Y038960D01*
X033644Y034235D02*
X030652Y034235D01*
X030258Y034629D01*
X028486Y034629D01*
X027305Y033448D01*
X027305Y029511D01*
X023959Y026164D01*
X022345Y026164D01*
X019038Y029471D01*
X016439Y029471D01*
X015888Y028920D01*
X012935Y028920D01*
X011360Y027345D01*
X011754Y026164D02*
X013447Y026164D01*
X015888Y023723D01*
X019274Y023723D01*
X021400Y025849D01*
X024234Y025849D01*
X026715Y028330D01*
X030101Y028330D01*
X032463Y030692D01*
X032463Y032109D01*
X034195Y033841D01*
X035770Y033841D01*
X035967Y034038D01*
X036242Y033645D02*
X035534Y032936D01*
X033683Y032936D01*
X032817Y032070D01*
X032817Y030692D01*
X028290Y026164D01*
X025337Y026164D01*
X024786Y025613D01*
X024786Y024747D01*
X023132Y023093D01*
X021951Y023093D01*
X021636Y023408D01*
X015731Y023408D01*
X013171Y025967D01*
X012148Y025967D01*
X011360Y025180D01*
X011360Y023211D01*
X014116Y020062D02*
X035376Y020062D01*
X039668Y015771D01*
X039668Y003881D01*
X039510Y003723D01*
X038723Y004117D02*
X038723Y007424D01*
X039274Y007975D01*
X039274Y015574D01*
X035061Y019786D01*
X028880Y019786D01*
X028644Y019550D01*
X016636Y019550D01*
X015809Y019196D02*
X028683Y019196D01*
X028959Y019471D01*
X034628Y019471D01*
X035652Y018448D01*
X035652Y014983D01*
X036518Y014117D01*
X036518Y009393D01*
X036990Y008920D01*
X036990Y006952D01*
X036557Y006519D01*
X036557Y002936D01*
X035770Y002149D01*
X034195Y002542D02*
X033801Y002149D01*
X034195Y002542D02*
X034195Y008645D01*
X035888Y010337D01*
X035888Y013684D01*
X033014Y016558D01*
X033014Y017897D01*
X031754Y019156D01*
X029038Y019156D01*
X028723Y018841D01*
X015337Y018841D01*
X015140Y019038D01*
X015101Y019038D01*
X014786Y018605D02*
X014589Y018802D01*
X014589Y018841D01*
X014786Y018605D02*
X016951Y018605D01*
X018053Y017503D01*
X018053Y016676D01*
X018329Y016400D01*
X019510Y016400D01*
X021557Y014353D01*
X024746Y014353D01*
X027305Y011794D01*
X029707Y011794D01*
X029983Y011519D01*
X029983Y010180D01*
X031321Y008841D01*
X031321Y002660D01*
X031636Y002345D01*
X031695Y002286D01*
X031833Y002149D01*
X028683Y002345D02*
X028683Y007542D01*
X025416Y010810D01*
X025416Y011597D01*
X025101Y011912D01*
X022109Y011912D01*
X021321Y012700D01*
X021321Y014117D01*
X019353Y016086D01*
X018250Y016086D01*
X018093Y016243D01*
X015809Y016243D01*
X015140Y016912D01*
X015101Y016912D01*
X015101Y017503D01*
X014589Y018093D01*
X014353Y017188D02*
X015770Y015849D01*
X019195Y015849D01*
X021006Y014038D01*
X021006Y012542D01*
X021951Y011597D01*
X024943Y011597D01*
X025101Y011440D01*
X025101Y010613D01*
X027502Y008211D01*
X027502Y002542D01*
X024353Y002345D02*
X024156Y002149D01*
X037542Y002936D02*
X038723Y004117D01*
X010967Y012975D02*
X007935Y012975D01*
X005455Y010495D01*
X005455Y007857D01*
X004959Y007361D01*
X004373Y007361D01*
X005849Y003133D02*
X004373Y001657D01*
X004373Y001455D01*
X036242Y033645D02*
X039116Y033645D01*
D26*
X021006Y035613D03*
X016675Y036400D03*
X011557Y036794D03*
X011557Y038763D03*
X006833Y038369D03*
X006439Y034038D03*
X004864Y034038D03*
X002109Y034038D03*
X005652Y031282D03*
X006833Y031676D03*
X009589Y032070D03*
D27*
X009983Y031676D01*
X011164Y031676D01*
X011951Y032463D01*
X011951Y035219D01*
X013132Y036400D01*
X016675Y036400D01*
X025731Y035310D02*
X025731Y029708D01*
X006833Y031676D02*
X006439Y032070D01*
X006439Y034038D01*
M02*
